<?xml version="1.0" encoding="utf-8"?>
<!-- Generator: Adobe Illustrator 17.1.0, SVG Export Plug-In . SVG Version: 6.00 Build 0)  -->
<!DOCTYPE svg PUBLIC "-//W3C//DTD SVG 1.1//EN" "http://www.w3.org/Graphics/SVG/1.1/DTD/svg11.dtd">
<svg version="1.1" id="Layer_1" xmlns="http://www.w3.org/2000/svg" xmlns:xlink="http://www.w3.org/1999/xlink" x="0px" y="0px"
	 viewBox="0 0 270.7 270.7" enable-background="new 0 0 270.7 270.7" xml:space="preserve">
<g>
	<path fill="#25B8DC" d="M270.7,27.4v216c0,9-6.5,16.4-15.2,17.8c-39.5,6.5-80.1,9.6-120.1,9.6c-40,0-80.7-3.1-120.1-9.6
		C6.5,259.7,0,252.4,0,243.4v-216c0-9,6.5-16.6,15.2-17.8C54.7,3.1,95,0,135.4,0c40.3,0,80.4,3.1,120.1,9.6
		C264.3,10.7,270.7,18.3,270.7,27.4z"/>
</g>
<g>
	<g opacity="0.3">
		<path fill="#161E2A" d="M130,147.2L76.7,83.9c-1.9-2.5-0.6-5.8,2.6-6.1l28.9-2.5c1.6-0.2,2.7,0.7,3.4,1.5l28.2,39
			c0.9,1.1,2.7,1.1,3.5-0.3L164.3,72c0.5-0.8,1.3-1.9,3.1-2.1l28.9-2.5c3.2-0.3,5.1,2.8,3.7,5.5L160,144.1l5.6,59.1
			c0.3,2-1.5,4.1-3.5,4.1l-24.9,2.3c-2.2,0.3-4.1-1.5-4.1-3.5L130,147.2z"/>
	</g>
	<g>
		<path fill="#FFFFFF" d="M121.5,139.8l-52-61.6c-1.7-2.5-0.6-5.6,2.6-5.9l28.1-2.4c1.5-0.1,2.7,0.7,3.2,1.5l27.5,37.9
			c0.9,1.1,2.7,1.1,3.3-0.3l20.4-42.5c0.5-0.8,1.3-1.9,2.9-2.1l28.1-2.4c3.2-0.3,4.9,2.6,3.7,5.4l-38.8,69.6l5.5,57.6
			c0.3,2-1.4,3.9-3.4,4.1l-24.3,2.1c-2.2,0.3-3.9-1.4-4.1-3.4L121.5,139.8z"/>
	</g>
</g>
</svg>
