<?xml version="1.0" encoding="utf-8"?>
<!-- Generator: Adobe Illustrator 17.1.0, SVG Export Plug-In . SVG Version: 6.00 Build 0)  -->
<!DOCTYPE svg PUBLIC "-//W3C//DTD SVG 1.1//EN" "http://www.w3.org/Graphics/SVG/1.1/DTD/svg11.dtd">
<svg version="1.1" id="Layer_1" xmlns="http://www.w3.org/2000/svg" xmlns:xlink="http://www.w3.org/1999/xlink" x="0px" y="0px"
	 viewBox="0 0 400 400" enable-background="new 0 0 400 400" xml:space="preserve">
<g>
	<circle fill="#23AFD2" cx="200" cy="200" r="200"/>
	<g>
		<defs>
			<circle id="SVGID_1_" cx="200" cy="200" r="200"/>
		</defs>
		<clipPath id="SVGID_2_">
			<use xlink:href="#SVGID_1_"  overflow="visible"/>
		</clipPath>
		<path clip-path="url(#SVGID_2_)" fill="#562A1A" d="M318.4,95.6c-14.8-29-84.6,152.5-88.7,239.4c-1.2,26,67.7,23.1,69.8,38.6
			c4,28.8,74.6-64.1,74.6-64.1s-19.3-6.7-30.2-79.1C338.9,196.9,330.4,119.2,318.4,95.6z"/>
		<path clip-path="url(#SVGID_2_)" fill="#562A1A" d="M81.5,95.6c14.8-29,72.2,135.2,76.4,222.2c1.2,26-55.3,40.4-57.5,55.9
			c-4,28.8-73.7-64.1-73.7-64.1s20.7-8.1,29.3-79.1C60,196.7,69.5,119.2,81.5,95.6z"/>
		<circle clip-path="url(#SVGID_2_)" fill="#FAD199" cx="200" cy="528.2" r="211.1"/>
	</g>
	<ellipse fill="#FAD199" cx="199.8" cy="190.1" rx="131.1" ry="144.9"/>
	<path fill="#F8B155" d="M199.8,335.1c72.4,0,131.1-64.9,131.1-144.9S272.2,45.2,199.8,45.2v128c0,3.1,0.6,6.2,1.7,9.2l24.5,56
		c2.5,6.4-2.3,13.4-9.2,13.4h-17V335.1z"/>
	<path fill="#562A1A" d="M318.2,99.7c0.5-0.5,0.8-1.2,0.9-1.9c1.7,3.6,3,6.8,2.7,6c-0.9-2.4-1.8-4.8-2.8-7.1
		c-0.1-0.2-0.2-0.4-0.3-0.7c-1.1-2.4-2.2-4.7-3.4-7c-0.6-1.4-1.2-2.8-2.3-4.2c0,0,0,0,0,0c-14.1-24.5-35.2-40.6-56.6-50.5
		c-14.8-7.5-32.1-12.6-52.5-13.2c-1.3-0.1-2.5-0.1-3.7-0.1c-0.1,0-0.1,0-0.2,0c0,0-0.1,0-0.1,0c-0.9,0-1.7,0-2.6,0
		c-0.1,0-0.1,0-0.2,0c-0.8,0-1.6,0.1-2.4,0.1c-0.4,0-0.8,0-1.2,0.1c-0.3,0-0.5,0-0.8,0.1c-0.9,0.1-1.8,0.1-2.7,0.2
		c-0.2,0-0.4,0-0.6,0.1c-0.5,0-0.9,0.1-1.4,0.1c-35.5,4-89.3,25.6-109.7,82c-0.4,1.2,2.1-3,4.1-5.1c-9.8,20.5-15.6,67.9-15.6,93.4
		c0,0,17.9-14.5,27.2-43c1.3-4.1,2.3-8.6,3-13.2c0.1,0,0.2,0,0.2,0c13.9,1.9,43.6-14.7,52.1-19.6c0.9-0.5,1.9,0.3,1.6,1.3
		c-4.2,14-18.4,25.7-25.8,31c-1,0.7-0.3,2.2,0.9,2c38.9-8.3,68.1-28.1,75.4-33.4c0.8-0.6,1.9,0.1,1.8,1
		c-1.4,10.8-18.8,28.6-24.9,34.5c-0.7,0.7-0.2,2,0.8,1.9c31.2-1.7,64.4-30.4,70.9-36.3c0.6-0.6,1.6-0.3,1.8,0.5
		c2.8,9.1-8.7,23.4-13.8,29.2c-0.7,0.8,0.1,2.1,1.1,1.8c27.4-6.7,46.6-23.1,62.8-42.4c-0.3,10.3-0.1,28.2,4.3,41.6
		c9.3,28.5,27.3,43,27.3,43C333.4,166.9,327.7,120.7,318.2,99.7z"/>
	<circle fill="#562A1A" cx="149.7" cy="186.9" r="14.4"/>
	<circle fill="#562A1A" cx="248.3" cy="186.9" r="14.4"/>
	<path fill="#562A1A" d="M200.2,285.8c-14.5,0-27.5-4.2-36.6-10.9c-1.2-0.9-2.8,0.6-1.9,1.8c7.2,10.9,21.8,18.3,38.5,18.3
		c16.7,0,31.3-7.4,38.5-18.3c0.9-1.3-0.7-2.8-1.9-1.9C227.7,281.6,214.7,285.8,200.2,285.8z"/>
</g>
</svg>
