<?xml version="1.0" encoding="utf-8"?>
<!-- Generator: Adobe Illustrator 17.1.0, SVG Export Plug-In . SVG Version: 6.00 Build 0)  -->
<!DOCTYPE svg PUBLIC "-//W3C//DTD SVG 1.1//EN" "http://www.w3.org/Graphics/SVG/1.1/DTD/svg11.dtd">
<svg version="1.1" id="Layer_1" xmlns="http://www.w3.org/2000/svg" xmlns:xlink="http://www.w3.org/1999/xlink" x="0px" y="0px"
	 viewBox="-305 99.1 595.3 385.9" enable-background="new -305 99.1 595.3 385.9" xml:space="preserve">
<g>
	<rect x="-306.5" y="98.1" fill="#00A8FF" width="642.8" height="387.7"/>
</g>
<g>
	<path fill="#1792DD" d="M278.8,270.5c-4.1,0-7.3-3.3-7.3-7.3v-29.5c0-4.1-3.3-7.3-7.3-7.3H242c-4.1,0-7.3-3.3-7.3-7.3V191
		c0-4.1-3.3-7.3-7.3-7.3h-51.1c-4.1,0-7.3,3.3-7.3,7.3v27.9c0,4.1,0,10.7,0,14.8v29.5c0,4.1-3.3,7.3-7.3,7.3h-40.1
		c-4.1,0-7.3,3.3-7.3,7.3v29c0,4.1-3.3,7.3-7.3,7.3H30.7c-4.1,0-7.3-3.3-7.3-7.3v-80.5c0-4.1-3.3-7.3-7.3-7.3h-234.5
		c-4.1,0-7.3,3.3-7.3,7.3v80.5c0,4.1-3.3,7.3-7.3,7.3h-85.4c-4.1,0-7.3,3.3-7.3,7.3v138.9c0,4.1,3.3,7.3,7.3,7.3h650.7
		c4.1,0,7.3-3.3,7.3-7.3V277.9c0-4.1-3.3-7.3-7.3-7.3L278.8,270.5L278.8,270.5z"/>
</g>
<g>
	<rect x="-13.7" y="329" fill="#E8E9E5" width="194.4" height="145.1"/>
	<rect x="-13.7" y="352.2" fill="#525D6D" width="194.4" height="37.3"/>
	<rect x="-13.8" y="352.2" opacity="0.2" fill="#FFFFFF" width="1" height="37.3"/>
	<rect x="-13.7" y="410.7" fill="#525D6D" width="194.4" height="37.3"/>
	<polygon opacity="0.2" points="180.7,360.8 -13.7,360.5 -13.7,352.2 180.7,352.2 	"/>
	<rect x="-13.7" y="408.9" fill="#FFFFFF" width="194.4" height="1.7"/>
	<rect x="-13.7" y="447.9" fill="#FFFFFF" width="194.4" height="1.7"/>
	<rect x="-13.7" y="351.4" fill="#FFFFFF" width="194.4" height="1.7"/>
	<polygon opacity="5.000000e-02" points="180.7,474.1 39.7,474.1 172.1,329 180.7,329 	"/>
	<polygon opacity="0.15" points="180.7,474.1 166.3,474.1 177.7,329 180.7,329 	"/>
	<rect x="180.7" y="294.8" fill="#E8E9E5" width="194.4" height="179.3"/>
	<rect x="180.7" y="294.8" fill="#FFFFFF" width="194.4" height="1.7"/>
	<polygon opacity="0.2" points="180.7,413.7 -13.7,416.7 -13.7,410.7 180.7,410.7 	"/>
	<rect x="-13.7" y="444.9" opacity="0.2" width="194.4" height="3"/>
	<rect x="-13.7" y="386.5" opacity="0.2" width="194.4" height="3"/>
	<g>
		<defs>
			<rect id="SVGID_1_" x="-13.7" y="352.2" width="194.4" height="37.3"/>
		</defs>
		<clipPath id="SVGID_2_">
			<use xlink:href="#SVGID_1_"  overflow="visible"/>
		</clipPath>
		<polygon opacity="0.1" clip-path="url(#SVGID_2_)" fill="#FFFFFF" points="140.8,347.7 220.6,347.7 141,389.5 61.3,389.5 		"/>
		<polygon opacity="0.1" clip-path="url(#SVGID_2_)" fill="#FFFFFF" points="117.1,347.7 129.4,347.7 49.8,389.5 37.6,389.5 		"/>
	</g>
	<g>
		<defs>
			<rect id="SVGID_3_" x="-13.7" y="410.7" width="194.4" height="37.3"/>
		</defs>
		<clipPath id="SVGID_4_">
			<use xlink:href="#SVGID_3_"  overflow="visible"/>
		</clipPath>
		<polygon opacity="0.1" clip-path="url(#SVGID_4_)" fill="#FFFFFF" points="35.6,406.1 115.3,406.1 35.8,447.9 -44,447.9 		"/>
		<polygon opacity="0.1" clip-path="url(#SVGID_4_)" fill="#FFFFFF" points="11.9,406.1 24.1,406.1 -55.5,447.9 -67.7,447.9 		"/>
	</g>
	<rect x="-13.8" y="410.7" opacity="0.2" fill="#FFFFFF" width="1" height="37.3"/>
	<rect x="180.7" y="335.1" fill="#525D6D" width="194.4" height="37.3"/>
	<rect x="180.7" y="335.1" opacity="0.2" fill="#FFFFFF" width="1" height="37.3"/>
	<rect x="180.7" y="393.5" fill="#525D6D" width="194.4" height="37.3"/>
	<polygon opacity="0.2" points="375.2,343.7 180.7,343.4 180.7,335.1 375.2,335.1 	"/>
	<rect x="180.7" y="391.8" fill="#FFFFFF" width="194.4" height="1.7"/>
	<rect x="180.7" y="430.8" fill="#FFFFFF" width="194.4" height="1.7"/>
	<rect x="180.7" y="334.2" fill="#FFFFFF" width="194.4" height="1.7"/>
	<polygon opacity="5.000000e-02" points="375.2,474.1 174.9,474.1 330.1,294.8 375.2,294.8 	"/>
	<polygon opacity="0.2" points="375.2,396.5 180.7,399.6 180.7,393.5 375.2,393.5 	"/>
	<rect x="180.7" y="427.8" opacity="0.2" width="194.4" height="3"/>
	<rect x="180.7" y="369.3" opacity="0.2" width="194.4" height="3"/>
	<g>
		<defs>
			<rect id="SVGID_5_" x="180.7" y="335.1" width="194.4" height="37.3"/>
		</defs>
		<clipPath id="SVGID_6_">
			<use xlink:href="#SVGID_5_"  overflow="visible"/>
		</clipPath>
		<polygon opacity="0.1" clip-path="url(#SVGID_6_)" fill="#FFFFFF" points="365.5,330.6 377.7,330.6 298.1,372.4 285.9,372.4 		"/>
	</g>
	<g>
		<defs>
			<rect id="SVGID_7_" x="180.7" y="393.5" width="194.4" height="37.3"/>
		</defs>
		<clipPath id="SVGID_8_">
			<use xlink:href="#SVGID_7_"  overflow="visible"/>
		</clipPath>
		<polygon opacity="0.1" clip-path="url(#SVGID_8_)" fill="#FFFFFF" points="283.9,389 363.6,389 284.1,430.8 204.4,430.8 		"/>
		<polygon opacity="0.1" clip-path="url(#SVGID_8_)" fill="#FFFFFF" points="260.2,389 272.4,389 192.9,430.8 180.7,430.8 		"/>
	</g>
	<rect x="180.7" y="393.5" opacity="0.2" fill="#FFFFFF" width="1" height="37.3"/>
</g>
<g>
	<g>
		<path id="Bush_23_" fill="#4C9300" d="M-180.3,441.8c0.5-20.9,17.6-37.8,38.7-37.8c17.9,0,33,12.2,37.4,28.8
			c19.4,2.1,35.8,14.9,35.8,34.8c0,10.6-3.6,23.9-15.5,28.5l-132.4,0c0,0-1.6-7.3-1.6-15.7C-218,459.4-201.2,442.3-180.3,441.8z"/>
		<path id="Bush_22_" opacity="0.1" enable-background="new    " d="M-163.1,441.8c-0.5-20.9-17.6-37.8-38.7-37.8
			c-17.9,0-33,12.2-37.4,28.8c-19.4,2.1-35.8,14.9-35.8,34.8c0,10.6,3.6,23.9,15.5,28.5l132.4,0c0,0,1.6-7.3,1.6-15.7
			C-125.5,459.4-142.2,442.3-163.1,441.8z"/>
		<path fill="#86E200" d="M-170.9,441.8c-0.5-20.9-17.6-37.8-38.7-37.8c-8.2,0-15.9,2.6-22.1,7c-5.5-8.3-14.9-13.8-25.6-13.8
			c-16.9,0-30.6,13.7-30.6,30.6c0,9,3.9,17,10,22.6c-3.1,4.9-4.8,10.6-4.8,17.2c0,10.6,3.6,23.9,15.5,28.5l132.4,0
			c0,0,1.6-7.3,1.6-15.7C-133.3,459.4-150.1,442.3-170.9,441.8z"/>
		<ellipse opacity="0.1" enable-background="new    " cx="-202.5" cy="481.1" rx="34.1" ry="22.5"/>
		<ellipse fill="#6CCC00" cx="-204.5" cy="474.1" rx="32.2" ry="27.5"/>
		<ellipse opacity="0.1" enable-background="new    " cx="-248.8" cy="481.1" rx="32.6" ry="22.5"/>
		<ellipse fill="#6CCC00" cx="-248.4" cy="478.2" rx="32.2" ry="22.3"/>
		<ellipse opacity="0.1" enable-background="new    " cx="-202.5" cy="481.1" rx="34.1" ry="22.5"/>
		<ellipse fill="#86E200" cx="-204.5" cy="474.1" rx="32.2" ry="27.5"/>
		<ellipse opacity="0.1" enable-background="new    " cx="-159.7" cy="479.9" rx="40.5" ry="24"/>
		<ellipse fill="#86E200" cx="-160" cy="478.2" rx="37.7" ry="25.7"/>
		<ellipse opacity="0.1" enable-background="new    " cx="-248.8" cy="481.1" rx="32.6" ry="22.5"/>
		<ellipse fill="#6CCC00" cx="-248.4" cy="478.2" rx="32.2" ry="22.3"/>
		<ellipse fill="#86E200" cx="-248.4" cy="478.2" rx="32.2" ry="22.3"/>
		<path opacity="0.1" enable-background="new    " d="M-246.7,459.7c0-27.5-22.7-45.2-49.4-48.1c-6.1-22.9-26.9-39.7-51.7-39.7
			c-29.1,0-52.8,23.2-53.4,52.2c-28.8,0.8-52,24.4-52,53.4c0,11.6,8.7,18.7,8.7,18.7l74.9,3c12,7.1,31,11.7,52.6,11.7
			C-268,510.9-246.7,488.5-246.7,459.7z"/>
		<path opacity="0.1" enable-background="new    " d="M-302.1,409.2c-6-22.7-26.7-39.4-51.3-39.4c-28.9,0-52.4,23.1-53.1,51.8
			c-28.6,0.8-51.6,24.2-51.6,53.1c0,1.3,0.1,2.6,0.4,3.8c0,0,0,0.1,0,0.1c0,15.2,14.4,27.5,32.2,27.5c10,0,18.9-3.9,24.8-9.9h25.6
			c11.9,7.1,30.8,11.7,52.2,11.7c48.8,0,69.9-22.2,69.9-50.8C-253.1,429.6-275.6,412.1-302.1,409.2z"/>
		<path fill="#6CCC00" d="M-250,457c0-27.3-22.5-44.8-49.1-47.8c-6-22.7-26.7-39.4-51.3-39.4c-28.9,0-52.4,23.1-53.1,51.8
			c-28.6,0.8-51.6,24.2-51.6,53.1c0,11.5,10.5,21.5,10.5,21.5l72.5,0c11.9,7.1,30.8,11.7,52.2,11.7C-271.1,507.8-250,485.6-250,457z
			"/>
	</g>
	<g>
		<path id="Bush_21_" opacity="0.1" enable-background="new    " d="M26.8,441.8c0.5-20.9,17.6-37.8,38.7-37.8
			c17.9,0,33,12.2,37.4,28.8c19.4,2.1,35.8,14.9,35.8,34.8c0,10.6-3.6,23.9-15.5,28.5l-132.4,0c0,0-1.6-7.3-1.6-15.7
			C-10.8,459.4,5.9,442.3,26.8,441.8z"/>
		<path id="Bush_20_" fill="#6CCC00" d="M18.8,441.8c0.5-20.9,17.6-37.8,38.7-37.8c17.9,0,33,12.2,37.4,28.8
			c19.4,2.1,35.8,14.9,35.8,34.8c0,10.6-3.6,23.9-15.5,28.5l-132.4,0c0,0-1.6-7.3-1.6-15.7C-18.8,459.4-2.1,442.3,18.8,441.8z"/>
		<path opacity="0.1" enable-background="new    " d="M45.6,450.1c-5.4-13.2-16-27.8-39.8-28.5c-0.7-28.7-24.2-51.8-53.1-51.8
			c-24.6,0-45.3,16.7-51.3,39.4c-26.6,2.9-49.1,20.4-49.1,47.8c0,14.5,5,32.8,21.3,39.1l115-1.1c7.3,7.2,18.3,11.7,30.6,11.7
			c22,0,39.9-14.5,39.9-32.5C59.2,469.4,61,459.8,45.6,450.1z"/>
		<path opacity="0.1" enable-background="new    " d="M44.4,474.6c0-28.8-23-52.3-51.6-53.1c-0.7-28.7-24.2-51.8-53.1-51.8
			c-24.6,0-41.8,15-47.8,37.7c-26.6,2.9-49.8,23.6-52.5,49.5c-3.5,33.2,14.1,45.6,34.1,45.6c15.1,0,28.7-2.4,34.1-6.5l134.6,0
			C42.2,496.1,44.4,486.1,44.4,474.6z"/>
		<path id="Bush_18_" fill="#6CCC00" d="M-1,421.6c-0.7-28.7-24.2-51.8-53.1-51.8c-24.6,0-45.3,16.7-51.3,39.4
			c-26.6,2.9-51.3,20.5-51.3,62.2c0,14.5,1,17.2,17.3,23.5l187.8,1.2c0,0,2.2-10,2.2-21.5C50.6,445.8,27.6,422.3-1,421.6z"/>
	</g>
	<ellipse fill="#6CCC00" cx="-124.6" cy="473.1" rx="32.2" ry="27.5"/>
	<ellipse fill="#6CCC00" cx="-118.7" cy="473.1" rx="38.1" ry="27.5"/>
	<ellipse opacity="0.1" enable-background="new    " cx="-80.2" cy="480.1" rx="32.6" ry="22.5"/>
	<ellipse fill="#6CCC00" cx="-80.6" cy="477.2" rx="32.2" ry="22.3"/>
	<ellipse fill="#6CCC00" cx="18.3" cy="473.5" rx="38.8" ry="30.9"/>
	<ellipse fill="#6CCC00" cx="18.3" cy="473.5" rx="38.8" ry="30.9"/>
	<ellipse opacity="0.1" enable-background="new    " cx="-35.2" cy="481.4" rx="39.3" ry="25.3"/>
	<ellipse fill="#6CCC00" cx="-34.7" cy="478.1" rx="38.8" ry="25.1"/>
</g>
<path fill="#FFFFFF" d="M-244.5,159.8c-1.6,0-3.1,0.2-4.7,0.5c0.1-0.5,0.1-1.1,0.1-1.6c0-13-10.6-23.6-23.6-23.6
	c-10.9,0-20.1,7.4-22.8,17.6c-3.3-2.1-7.1-3.3-11.2-3.3c-10.9,0-19.8,8.3-20.9,19c-2.3-1-4.9-1.6-7.6-1.6c-10.5,0-19,8.5-19,19
	c0,9.7,7.3,17.6,16.6,18.8v0.1h92l0,0c0.3,0,0.6,0,1,0c12.4,0,22.5-10.1,22.5-22.5C-222,169.8-232,159.8-244.5,159.8z"/>
<g>
	<g>
		<defs>
			<rect id="SVGID_9_" x="-513.9" y="107.2" width="595.3" height="385.9"/>
		</defs>
		<clipPath id="SVGID_10_">
			<use xlink:href="#SVGID_9_"  overflow="visible"/>
		</clipPath>
	</g>
	<g>
		<g>
			<defs>
				<rect id="SVGID_11_" x="-513.9" y="107.2" width="595.3" height="385.9"/>
			</defs>
			<clipPath id="SVGID_12_">
				<use xlink:href="#SVGID_11_"  overflow="visible"/>
			</clipPath>
		</g>
		<g>
			<g>
				<defs>
					<rect id="SVGID_13_" x="-513.9" y="107.2" width="595.3" height="385.9"/>
				</defs>
				<clipPath id="SVGID_14_">
					<use xlink:href="#SVGID_13_"  overflow="visible"/>
				</clipPath>
			</g>
			<g>
				<g>
					<defs>
						<rect id="SVGID_15_" x="-513.9" y="107.2" width="595.3" height="385.9"/>
					</defs>
					<clipPath id="SVGID_16_">
						<use xlink:href="#SVGID_15_"  overflow="visible"/>
					</clipPath>
				</g>
				<g>
					<g>
						<defs>
							<rect id="SVGID_17_" x="-513.9" y="107.2" width="595.3" height="385.9"/>
						</defs>
						<clipPath id="SVGID_18_">
							<use xlink:href="#SVGID_17_"  overflow="visible"/>
						</clipPath>
					</g>
					<g>
						<g>
							<defs>
								<rect id="SVGID_19_" x="-513.9" y="107.2" width="595.3" height="385.9"/>
							</defs>
							<clipPath id="SVGID_20_">
								<use xlink:href="#SVGID_19_"  overflow="visible"/>
							</clipPath>
						</g>
						<g>
							<g>
								<defs>
									<rect id="SVGID_21_" x="-513.9" y="107.2" width="595.3" height="385.9"/>
								</defs>
								<clipPath id="SVGID_22_">
									<use xlink:href="#SVGID_21_"  overflow="visible"/>
								</clipPath>
							</g>
							<g>
								<g>
									<defs>
										<rect id="SVGID_23_" x="-513.9" y="107.2" width="595.3" height="385.9"/>
									</defs>
									<clipPath id="SVGID_24_">
										<use xlink:href="#SVGID_23_"  overflow="visible"/>
									</clipPath>
								</g>
								<g>
									<g>
										<defs>
											<rect id="SVGID_25_" x="-513.9" y="107.2" width="595.3" height="385.9"/>
										</defs>
										<clipPath id="SVGID_26_">
											<use xlink:href="#SVGID_25_"  overflow="visible"/>
										</clipPath>
									</g>
									<g>
										<g>
											<defs>
												<rect id="SVGID_27_" x="-513.9" y="107.2" width="595.3" height="385.9"/>
											</defs>
											<clipPath id="SVGID_28_">
												<use xlink:href="#SVGID_27_"  overflow="visible"/>
											</clipPath>
											<g clip-path="url(#SVGID_28_)">
												<g>
													<path fill="#FFCD00" d="M-198.4,439.7h-208.2V252.9c0-17.3,14-31.3,31.3-31.3h145.7c17.3,0,31.3,14,31.3,31.3
														C-198.4,252.9-198.4,439.7-198.4,439.7z"/>
													<path fill="#FDC12D" d="M-198.4,439.7h-105.3V221.6h74c17.3,0,31.3,14,31.3,31.3C-198.4,252.9-198.4,439.7-198.4,439.7
														z"/>
													<g>
														<path fill="#FFFFCD" d="M-314.1,247.2c0,4.1,3.3,7.3,7.3,7.3h9c4.1,0,7.3-3.3,7.3-7.3v-5c0-4.1-3.3-7.3-7.3-7.3h-9
															c-4.1,0-7.3,3.3-7.3,7.3V247.2z"/>
													</g>
													<g>
														<path fill="#F6F5C8" d="M-308.7,254.5h12.6c3.2,0,5.8-2.6,5.8-5.8v-8.3c0-3.2-2.6-5.8-5.8-5.8h-0.1
															c-0.7,0-1.5,0.4-1.9,1.1L-308.7,254.5z"/>
													</g>
													<path fill="#004B9F" d="M-393.3,384.8h181.8v-97c0-11.1-8.9-20-20-20h-141.8c-11.1,0-20,8.9-20,20V384.8z"/>
													<path fill="#063B88" d="M-303.7,384.8h92.2v-97c0-11.1-8.9-20-20-20h-72.2V384.8z"/>
													<path fill="#FFFFCD" d="M-240.6,429.1h42.3v-27.1h-42.3c-2.5,0-4.6,2-4.6,4.6v18C-245.2,427.2-243.1,429.1-240.6,429.1
														z"/>
													<rect x="-211.5" y="402.2" fill="#FF6C00" width="13.2" height="27.1"/>
													<path fill="#C19F25" d="M-210.9,468.8h-183.2c-6.9,0-12.5-5.6-12.5-12.5v-16.6h208.2v16.6
														C-198.4,463.3-204,468.8-210.9,468.8z"/>
													<path fill="#B3882B" d="M-210.9,468.8h-92.8v-29.1h105.4v16.6C-198.4,463.3-204,468.8-210.9,468.8z"/>
													<g>
														<path opacity="0.2" enable-background="new    " d="M-301.8,413.3l-8.9,5.5l8.9,5.5l8.9-5.5L-301.8,413.3z
															 M-306.5,418.8l4.7-2.9l4.7,2.9l-4.7,2.9L-306.5,418.8z"/>
														<g opacity="0.2">
															<polygon points="-306.5,413.7 -301.8,410.8 -297.3,413.7 -298.4,414.4 -296.2,415.7 -292.9,413.7 -301.8,408.1 
																-310.8,413.7 -307.4,415.7 -305.3,414.4 															"/>
														</g>
														<path fill="#FFFFFF" d="M-302.5,412.6l-8.9,5.5l8.9,5.5l8.9-5.5L-302.5,412.6z M-307.1,418.1l4.7-2.9l4.7,2.9
															l-4.7,2.9L-307.1,418.1z"/>
														<g>
															<polygon fill="#FFFFFF" points="-307.1,412.9 -302.5,410.1 -297.9,412.9 -299,413.7 -296.9,415 -293.6,412.9 
																-302.5,407.5 -311.4,412.9 -308.1,415 -305.9,413.7 															"/>
														</g>
													</g>
													<path fill="#2D4049" d="M-232.7,493.5h-7.5c-6,0-11-4.9-11-11v-13.7h29.5v13.7C-221.7,488.6-226.7,493.5-232.7,493.5z"
														/>
													<rect x="-251.2" y="468.8" fill="#1F2D32" width="29.5" height="6.1"/>
													<polygon fill="#F6F5C8" points="-237.5,429.1 -211.5,429.1 -211.5,402.2 -216.1,402.2 													"/>
												</g>
											</g>
										</g>
										<g>
											<g>
												<defs>
													<rect id="SVGID_29_" x="-513.9" y="107.2" width="595.3" height="385.9"/>
												</defs>
												<clipPath id="SVGID_30_">
													<use xlink:href="#SVGID_29_"  overflow="visible"/>
												</clipPath>
												<g opacity="0.1" clip-path="url(#SVGID_30_)">
													<path d="M-202.6,298.1c0,6,1.5,11.5,4.2,16.3v-32.6C-201.1,286.6-202.6,292.2-202.6,298.1z"/>
												</g>
											</g>
											<g>
												<g>
													<defs>
														<rect id="SVGID_31_" x="-513.9" y="107.2" width="595.3" height="385.9"/>
													</defs>
													<clipPath id="SVGID_32_">
														<use xlink:href="#SVGID_31_"  overflow="visible"/>
													</clipPath>
													<rect x="-160.7" y="281.4" clip-path="url(#SVGID_32_)" fill="#2D4049" width="5" height="212.2"/>
												</g>
												<g>
													<g>
														<defs>
															<rect id="SVGID_33_" x="-513.9" y="107.2" width="595.3" height="385.9"/>
														</defs>
														<clipPath id="SVGID_34_">
															<use xlink:href="#SVGID_33_"  overflow="visible"/>
														</clipPath>
														<rect x="-158.2" y="281.4" clip-path="url(#SVGID_34_)" fill="#1F2D32" width="2.5" height="212.2"/>
													</g>
													<g>
														<g>
															<defs>
																<rect id="SVGID_35_" x="-513.9" y="107.2" width="595.3" height="385.9"/>
															</defs>
															<clipPath id="SVGID_36_">
																<use xlink:href="#SVGID_35_"  overflow="visible"/>
															</clipPath>
															<g clip-path="url(#SVGID_36_)">
																<path fill="#D40049" d="M-158.9,335.4c-20.6,0-37.3-16.7-37.3-37.3c0-20.6,16.7-37.3,37.3-37.3s37.3,16.7,37.3,37.3
																	C-121.6,318.6-138.3,335.4-158.9,335.4z"/>
																<path fill="#FFFFFF" d="M-158.9,264.5c18.6,0,33.6,15.1,33.6,33.6s-15.1,33.6-33.6,33.6s-33.6-15.1-33.6-33.6
																	S-177.5,264.5-158.9,264.5 M-158.9,257.2c-22.6,0-41,18.4-41,41c0,22.6,18.4,41,41,41s41-18.4,41-41
																	S-136.3,257.2-158.9,257.2L-158.9,257.2z"/>
															</g>
														</g>
														<g>
															<g>
																<defs>
																	<rect id="SVGID_37_" x="-513.9" y="107.2" width="595.3" height="385.9"/>
																</defs>
																<clipPath id="SVGID_38_">
																	<use xlink:href="#SVGID_37_"  overflow="visible"/>
																</clipPath>
																<g opacity="0.1" clip-path="url(#SVGID_38_)">
																	<path d="M-151.7,297.4c-2.2,0-4,1.8-4,4v0.9h2v-0.9c0-1.1,0.9-2,2-2s2,0.9,2,2v0.9h2v-0.9
																		C-147.7,299.3-149.5,297.4-151.7,297.4z"/>
																</g>
															</g>
															<g>
																<g>
																	<defs>
																		<rect id="SVGID_39_" x="-513.9" y="107.2" width="595.3" height="385.9"/>
																	</defs>
																	<clipPath id="SVGID_40_">
																		<use xlink:href="#SVGID_39_"  overflow="visible"/>
																	</clipPath>
																	<g clip-path="url(#SVGID_40_)">
																		<path fill="#FFFFFF" d="M-152.6,296.4c-2.2,0-4,1.8-4,4v0.9h2v-0.9c0-1.1,0.9-2,2-2s2,0.9,2,2v0.9h2v-0.9
																			C-148.6,298.2-150.4,296.4-152.6,296.4z"/>
																	</g>
																</g>
																<g>
																	<g>
																		<defs>
																			<rect id="SVGID_41_" x="-513.9" y="107.2" width="595.3" height="385.9"/>
																		</defs>
																		<clipPath id="SVGID_42_">
																			<use xlink:href="#SVGID_41_"  overflow="visible"/>
																		</clipPath>
																		<g id="Shadow_1_" clip-path="url(#SVGID_42_)">
																			<path fill="#C00C47" d="M-158.9,331.7c18.6,0,33.6-15.1,33.6-33.6s-15.1-33.6-33.6-33.6V331.7z"/>
																		</g>
																	</g>
																	<g>
																		<g>
																			<defs>
																				<rect id="SVGID_43_" x="-513.9" y="107.2" width="595.3" height="385.9"/>
																			</defs>
																			<clipPath id="SVGID_44_">
																				<use xlink:href="#SVGID_43_"  overflow="visible"/>
																			</clipPath>
																			<path clip-path="url(#SVGID_44_)" fill="#AC0B3F" d="M-146.2,279.7h-22.3c-2,0-3.6,1.6-3.6,3.6v5.1v13.9v8.7
																				c0,1.5,0.9,2.8,2.2,3.3v3.4c0,0.9,0.7,1.8,1.8,1.8h1.7c0.9,0,1.8-0.7,1.8-1.8v-3.2h14.8v3.3
																				c0,0.9,0.7,1.8,1.8,1.8h1.7c0.9,0,1.8-0.7,1.8-1.8v-3.5c1.3-0.6,2.2-1.9,2.2-3.3v-8.7v-13.9v-5.1
																				C-142.6,281.2-144.3,279.7-146.2,279.7z M-169.8,283.2c0-0.7,0.7-1.4,1.4-1.4h22.3c0.7,0,1.4,0.7,1.4,1.4v1.8
																				c-0.5-0.2-0.8-0.3-1.4-0.3h-22.3c-0.5,0-0.9,0.1-1.4,0.3V283.2z M-167.4,311.4c-1.3,0-2.4-1.1-2.4-2.4
																				s1.1-2.4,2.4-2.4c1.3,0,2.4,1.1,2.4,2.4C-165.1,310.3-166.1,311.4-167.4,311.4z M-168.5,303.6
																				c-0.7,0-1.4-0.7-1.4-1.4v-13.9c0-0.7,0.7-1.4,1.4-1.4h22.3c0.7,0,1.4,0.7,1.4,1.4v13.9c0,0.7-0.7,1.4-1.4,1.4
																				C-146.2,303.6-168.5,303.6-168.5,303.6z M-147.2,311.4c-1.3,0-2.4-1.1-2.4-2.4s1.1-2.4,2.4-2.4
																				c1.3,0,2.4,1.1,2.4,2.4C-144.8,310.3-145.9,311.4-147.2,311.4z"/>
																		</g>
																		<g>
																			<g>
																				<defs>
																					<rect id="SVGID_45_" x="-513.9" y="107.2" width="595.3" height="385.9"/>
																				</defs>
																				<clipPath id="SVGID_46_">
																					<use xlink:href="#SVGID_45_"  overflow="visible"/>
																				</clipPath>
																				<path clip-path="url(#SVGID_46_)" fill="#FFFFFF" d="M-147.1,278.5h-22.3c-2,0-3.6,1.6-3.6,3.6v5.1v13.9v8.7
																					c0,1.5,0.9,2.8,2.2,3.3v3.4c0,0.9,0.7,1.8,1.8,1.8h1.7c0.9,0,1.8-0.7,1.8-1.8v-3.3h14.8v3.3
																					c0,0.9,0.7,1.8,1.8,1.8h1.7c0.9,0,1.8-0.7,1.8-1.8v-3.5c1.3-0.6,2.2-1.9,2.2-3.3v-8.7v-13.9v-5.1
																					C-143.5,280.1-145.1,278.5-147.1,278.5z M-170.8,282.2c0-0.7,0.7-1.4,1.4-1.4h22.3c0.7,0,1.4,0.7,1.4,1.4v1.8
																					c-0.5-0.2-0.8-0.3-1.4-0.3h-22.3c-0.5,0-0.9,0.1-1.4,0.3V282.2z M-168.3,310.3c-1.3,0-2.4-1.1-2.4-2.4
																					s1.1-2.4,2.4-2.4c1.3,0,2.4,1.1,2.4,2.4C-165.9,309.2-167,310.3-168.3,310.3z M-169.4,302.5
																					c-0.7,0-1.4-0.7-1.4-1.4v-13.9c0-0.7,0.7-1.4,1.4-1.4h22.3c0.7,0,1.4,0.7,1.4,1.4v13.9c0,0.7-0.7,1.4-1.4,1.4
																					C-147,302.5-169.4,302.5-169.4,302.5z M-148.2,310.3c-1.3,0-2.4-1.1-2.4-2.4s1.1-2.4,2.4-2.4
																					c1.3,0,2.4,1.1,2.4,2.4C-145.7,309.2-146.8,310.3-148.2,310.3z"/>
																			</g>
																		</g>
																	</g>
																</g>
															</g>
														</g>
													</g>
												</g>
											</g>
										</g>
									</g>
								</g>
							</g>
						</g>
					</g>
				</g>
			</g>
		</g>
	</g>
</g>
<path fill="#FFFFFF" d="M34.2,179.7L34.2,179.7L34.2,179.7c-0.1-5.5-4.5-9.9-9.9-9.9c-4.4,0-8.1,2.9-9.3,6.8
	c-1.1-0.7-2.4-1.1-3.8-1.1c-3.9,0-7,3.2-7,7c0,0.3,0,0.6,0.1,0.8c-1-0.6-2.2-0.9-3.5-0.9c-4.2,0-7.5,3.3-7.5,7.5
	c0,4.2,3.3,7.5,7.5,7.5l0,0h33.5c4.9,0,8.9-4,8.9-8.9C43.2,183.7,39.2,179.7,34.2,179.7z"/>
<g>
	<g>
		<path id="Bush_29_" fill="#4C9300" d="M113.1,441.8c0.5-20.9,17.6-37.8,38.7-37.8c17.9,0,33,12.2,37.4,28.8
			c19.4,2.1,35.8,14.9,35.8,34.8c0,10.6-3.6,23.9-15.5,28.5l-132.4,0c0,0-1.6-7.3-1.6-15.7C75.5,459.4,92.3,442.3,113.1,441.8z"/>
		<path id="Bush_27_" opacity="0.1" enable-background="new    " d="M130.4,441.8c-0.5-20.9-17.6-37.8-38.7-37.8
			c-17.9,0-33,12.2-37.4,28.8c-19.4,2.1-35.8,14.9-35.8,34.8c0,10.6,3.6,23.9,15.5,28.5l132.4,0c0,0,1.6-7.3,1.6-15.7
			C168,459.4,151.3,442.3,130.4,441.8z"/>
		<path fill="#86E200" d="M122.6,441.8c-0.5-20.9-17.6-37.8-38.7-37.8c-8.2,0-15.9,2.6-22.1,7c-5.5-8.3-14.9-13.8-25.6-13.8
			c-16.9,0-30.6,13.7-30.6,30.6c0,9,3.9,17,10,22.6c-3.1,4.9-4.8,10.6-4.8,17.2c0,10.6,3.6,23.9,15.5,28.5l132.4,0
			c0,0,1.6-7.3,1.6-15.7C160.2,459.4,143.4,442.3,122.6,441.8z"/>
		<ellipse opacity="0.1" enable-background="new    " cx="91" cy="481.1" rx="34.1" ry="22.5"/>
		<ellipse fill="#6CCC00" cx="89" cy="474.1" rx="32.2" ry="27.5"/>
		<ellipse opacity="0.1" enable-background="new    " cx="44.7" cy="481.1" rx="32.6" ry="22.5"/>
		<ellipse fill="#6CCC00" cx="45.1" cy="478.2" rx="32.2" ry="22.3"/>
		<ellipse opacity="0.1" enable-background="new    " cx="91" cy="481.1" rx="34.1" ry="22.5"/>
		<ellipse fill="#86E200" cx="89" cy="474.1" rx="32.2" ry="27.5"/>
		<ellipse opacity="0.1" enable-background="new    " cx="133.8" cy="479.9" rx="40.5" ry="24"/>
		<ellipse fill="#86E200" cx="133.5" cy="478.2" rx="37.7" ry="25.7"/>
		<ellipse opacity="0.1" enable-background="new    " cx="44.7" cy="481.1" rx="32.6" ry="22.5"/>
		<ellipse fill="#6CCC00" cx="45.1" cy="478.2" rx="32.2" ry="22.3"/>
		<ellipse fill="#86E200" cx="45.1" cy="478.2" rx="32.2" ry="22.3"/>
		<ellipse fill="#6CCC00" cx="-129" cy="478.6" rx="32.2" ry="27.5"/>
		<path opacity="0.1" enable-background="new    " d="M46.8,459.7c0-27.5-22.7-45.2-49.4-48.1c-6.1-22.9-26.9-39.7-51.7-39.7
			c-29.1,0-52.8,23.2-53.4,52.2c-28.8,0.8-52,24.4-52,53.4c0,11.6,2.2,21.7,2.2,21.7l81.3,0c12,7.1,31,11.7,52.6,11.7
			C25.5,510.9,46.8,488.5,46.8,459.7z"/>
		<path opacity="0.1" enable-background="new    " d="M-96.8,470.5c0,20.8-15.2,37.6-34.1,37.6s-33.5-12-33.5-37.6
			c0-20.8,24.1-45.3,46.9-45.3C-98.6,425.2-96.8,449.8-96.8,470.5z"/>
		<path fill="#6CCC00" d="M43.5,457c0-27.3-22.5-44.8-49.1-47.8c-6-22.7-26.7-39.4-51.3-39.4c-28.9,0-52.4,23.1-53.1,51.8
			c-28.6,0.8-51.6,24.2-51.6,53.1c0,11.5,10.5,21.5,10.5,21.5l72.5,0c11.9,7.1,30.8,11.7,52.2,11.7C22.4,507.8,43.5,485.6,43.5,457z
			"/>
		<ellipse fill="#6CCC00" cx="-129" cy="478.6" rx="32.2" ry="27.5"/>
		<ellipse opacity="0.1" enable-background="new    " cx="-84.6" cy="485.6" rx="32.6" ry="22.5"/>
		<ellipse fill="#6CCC00" cx="-85" cy="482.7" rx="32.2" ry="22.3"/>
	</g>
	<g>
		<path id="Bush_26_" opacity="0.1" enable-background="new    " d="M320.3,441.8c0.5-20.9,17.6-37.8,38.7-37.8
			c17.9,0,33,12.2,37.4,28.8c19.4,2.1,35.8,14.9,35.8,34.8c0,10.6-3.6,23.9-15.5,28.5l-132.4,0c0,0-1.6-7.3-1.6-15.7
			C282.7,459.4,299.4,442.3,320.3,441.8z"/>
		<path id="Bush_25_" fill="#6CCC00" d="M312.3,441.8c0.5-20.9,17.6-37.8,38.7-37.8c17.9,0,33,12.2,37.4,28.8
			c19.4,2.1,35.8,14.9,35.8,34.8c0,10.6-3.6,23.9-15.5,28.5l-132.4,0c0,0-1.6-7.3-1.6-15.7C274.7,459.4,291.4,442.3,312.3,441.8z"/>
		<path opacity="0.1" enable-background="new    " d="M339.1,450.1c-5.4-13.2-16-27.8-39.8-28.5c-0.7-28.7-24.2-51.8-53.1-51.8
			c-24.6,0-45.3,16.7-51.3,39.4c-26.6,2.9-49.1,20.4-49.1,47.8c0,14.5,5,32.8,21.3,39.1l115-1.1c7.3,7.2,18.3,11.7,30.6,11.7
			c22,0,39.9-14.5,39.9-32.5C352.7,469.4,354.5,459.8,339.1,450.1z"/>
		<path opacity="0.1" enable-background="new    " d="M337.9,474.6c0-28.8-23-52.3-51.6-53.1c-0.7-28.7-24.2-51.8-53.1-51.8
			c-24.6,0-41.8,15-47.8,37.7c-26.6,2.9-49.8,23.6-52.5,49.5c-3.5,33.2,14.1,45.6,34.1,45.6c15.1,0,28.7-2.4,34.1-6.5l134.6,0
			C335.7,496.1,337.9,486.1,337.9,474.6z"/>
		<path id="Bush_24_" fill="#6CCC00" d="M292.5,421.6c-0.7-28.7-24.2-51.8-53.1-51.8c-24.6,0-45.3,16.7-51.3,39.4
			c-26.6,2.9-51.3,20.5-51.3,62.2c0,14.5,1,17.2,17.3,23.5l187.8,1.2c0,0,2.2-10,2.2-21.5C344.1,445.8,321.1,422.3,292.5,421.6z"/>
	</g>
	<ellipse fill="#6CCC00" cx="168.9" cy="473.1" rx="32.2" ry="27.5"/>
	<ellipse fill="#6CCC00" cx="174.8" cy="473.1" rx="38.1" ry="27.5"/>
	<ellipse opacity="0.1" enable-background="new    " cx="213.2" cy="480.1" rx="32.6" ry="22.5"/>
	<ellipse fill="#6CCC00" cx="212.9" cy="477.2" rx="32.2" ry="22.3"/>
	<ellipse fill="#6CCC00" cx="311.8" cy="473.5" rx="38.8" ry="30.9"/>
	<ellipse fill="#6CCC00" cx="311.8" cy="473.5" rx="38.8" ry="30.9"/>
	<ellipse opacity="0.1" enable-background="new    " cx="258.3" cy="481.4" rx="39.3" ry="25.3"/>
	<ellipse fill="#6CCC00" cx="258.8" cy="478.1" rx="38.8" ry="25.1"/>
</g>
<g>
	<circle fill="#FFCD00" cx="177.4" cy="197" r="27.2"/>
	<path fill="#F1C22C" d="M155.3,212.8c4.9,6.9,13,11.4,22.1,11.4c15,0,27.2-12.2,27.2-27.2c0-1.9-0.2-3.7-0.5-5.4
		c-3.3-2.7-7.6-4.3-12.2-4.3c-10.6,0-19.2,8.4-19.2,18.7c0,0.4,0,0.9,0,1.3c-1.2-0.2-2.5-0.4-3.8-0.4
		C163.5,206.9,158.7,209.2,155.3,212.8z"/>
	<path fill="#FFFFFF" d="M152.4,227.2c0,9.9,8,17.8,17.8,17.8c0.3,0,0.5,0,0.8,0v0h73v-0.1c7.4-0.9,13.2-7.3,13.2-14.9
		c0-8.3-6.7-15-15-15c-2.1,0-4.2,0.4-6,1.2c-0.8-8.5-7.9-15.1-16.6-15.1c-3.3,0-6.3,0.9-8.9,2.6c-2.1-8-9.4-13.9-18.1-13.9
		c-10.3,0-18.7,8.4-18.7,18.7c0,0.4,0,0.9,0,1.3c-1.2-0.2-2.4-0.4-3.7-0.4C160.4,209.4,152.4,217.4,152.4,227.2z"/>
</g>
</svg>
