<?xml version="1.0" encoding="utf-8"?>
<!-- Generator: Adobe Illustrator 17.1.0, SVG Export Plug-In . SVG Version: 6.00 Build 0)  -->
<!DOCTYPE svg PUBLIC "-//W3C//DTD SVG 1.1//EN" "http://www.w3.org/Graphics/SVG/1.1/DTD/svg11.dtd">
<svg version="1.1" id="Layer_1" xmlns="http://www.w3.org/2000/svg" xmlns:xlink="http://www.w3.org/1999/xlink" x="0px" y="0px"
	 width="50.3px" height="38.4px" viewBox="0 5.8 50.3 38.4" enable-background="new 0 5.8 50.3 38.4" xml:space="preserve">
<g>
	<g opacity="0.2">
		<path d="M50.3,18v23.3c0,1.6-1.3,2.9-2.9,2.9H6.7c-1.6,0-2.9-1.3-2.9-2.9V18c0-1.6,1.3-2.9,2.9-2.9h8.7l1.4-4.3
			c0.3-0.8,1.3-1.5,2.2-1.5h16.2c0.8,0,1.9,0.7,2.1,1.5l1.4,4.3h8.7C49.1,15.1,50.3,16.4,50.3,18z M35.8,29.7c0-4.8-4-8.7-8.7-8.7
			c-4.9,0-8.7,4-8.7,8.7c0,4.9,3.8,8.7,8.7,8.7C31.8,38.4,35.8,34.5,35.8,29.7z"/>
	</g>
	<g>
		<g>
			<path fill="#FFFFFF" d="M46.5,14.5v23.3c0,1.6-1.3,2.9-2.9,2.9H2.9c-1.6,0-2.9-1.3-2.9-2.9V14.5c0-1.6,1.3-2.9,2.9-2.9h8.7
				L13,7.3c0.3-0.8,1.3-1.5,2.2-1.5h16.2c0.8,0,1.9,0.7,2.1,1.5l1.4,4.3h8.7C45.2,11.6,46.5,12.9,46.5,14.5z M32,26.2
				c0-4.8-4-8.7-8.7-8.7c-4.9,0-8.7,4-8.7,8.7c0,4.9,3.8,8.7,8.7,8.7C28,34.9,32,31,32,26.2z"/>
		</g>
	</g>
</g>
</svg>
