<?xml version="1.0" encoding="utf-8"?>
<!-- Generator: Adobe Illustrator 17.1.0, SVG Export Plug-In . SVG Version: 6.00 Build 0)  -->
<!DOCTYPE svg PUBLIC "-//W3C//DTD SVG 1.1//EN" "http://www.w3.org/Graphics/SVG/1.1/DTD/svg11.dtd">
<svg version="1.1" id="Layer_1" xmlns="http://www.w3.org/2000/svg" xmlns:xlink="http://www.w3.org/1999/xlink" x="0px" y="0px"
	 viewBox="-108.2 -65 261.4 183.7" enable-background="new -108.2 -65 261.4 183.7" xml:space="preserve">
<g id="Layer_1_1_" display="none">
	<path display="inline" opacity="0.2" enable-background="new    " d="M30.3,20.1L42.2,6.5H30.7l-6.2,7.1l-6.2-7.1H6.7l11.8,13.4
		c-3.9,2.1-6.6,6.2-6.6,11c0,6.8,5.6,12.4,12.4,12.4s12.4-5.6,12.4-12.4C36.6,26.2,34.1,22.2,30.3,20.1z"/>
	<polygon display="inline" fill="#A32E2E" points="32.1,21.2 20.5,21.2 6.7,5.5 18.2,5.5 	"/>
	<polygon display="inline" opacity="0.1" enable-background="new    " points="32.1,21.2 20.5,21.2 18.7,19.1 23.2,11.1 	"/>
	<polygon display="inline" fill="#ED2B2B" points="42.2,5.5 30.7,5.5 16.9,21.2 28.4,21.2 	"/>
	<g display="inline">
		<g>
			<defs>
				<polygon id="SVGID_1_" points="42.2,5.5 30.7,5.5 24.5,12.6 18.7,19.1 16.9,21.2 20.5,21.2 28.4,21.2 32.1,21.2 30.2,19.1 				
					"/>
			</defs>
			<clipPath id="SVGID_2_">
				<use xlink:href="#SVGID_1_"  overflow="visible"/>
			</clipPath>
			<circle opacity="0.2" clip-path="url(#SVGID_2_)" enable-background="new    " cx="24.3" cy="29.2" r="12.4"/>
		</g>
	</g>
	<circle display="inline" fill="#F4BF25" cx="24.3" cy="29.8" r="12.4"/>
	<circle display="inline" fill="#F4BF25" cx="24.3" cy="29.8" r="12.4"/>
	<circle display="inline" fill="#F4BF25" cx="24.3" cy="29.8" r="12.4"/>
	<circle display="inline" fill="#F4BF25" cx="24.3" cy="29.8" r="11.7"/>
	<path display="inline" fill="#F3B900" d="M24.3,36.7c-5.2,0-9.7-2-12.2-4.8c1,5.8,6.1,10.3,12.2,10.3s11.2-4.4,12.2-10.3
		C34,34.6,29.4,36.7,24.3,36.7z"/>
	<path display="inline" fill="#C18801" d="M24.3,41.3c-6.7,0-12.1-5.3-12.4-11.9c0,0.1,0,0.3,0,0.4c0,6.8,5.6,12.4,12.4,12.4
		s12.4-5.6,12.4-12.4c0-0.1,0-0.3,0-0.4C36.4,36,31,41.3,24.3,41.3z"/>
	<g display="inline">
		<g>
			<defs>
				<ellipse id="SVGID_3_" cx="24.3" cy="29.5" rx="11.9" ry="11.4"/>
			</defs>
			<clipPath id="SVGID_4_">
				<use xlink:href="#SVGID_3_"  overflow="visible"/>
			</clipPath>
			<polygon opacity="0.2" clip-path="url(#SVGID_4_)" fill="#FFFFD7" enable-background="new    " points="6.3,30.4 9.5,35.7 
				36.4,20.5 33.3,15.1 			"/>
		</g>
		<g>
			<defs>
				<ellipse id="SVGID_5_" cx="24.3" cy="29.5" rx="11.9" ry="11.4"/>
			</defs>
			<clipPath id="SVGID_6_">
				<use xlink:href="#SVGID_5_"  overflow="visible"/>
			</clipPath>
			<polygon opacity="0.2" clip-path="url(#SVGID_6_)" fill="#FFFFD7" enable-background="new    " points="11.9,37.5 12.4,38.4 
				39.4,23.2 38.8,22.3 			"/>
		</g>
	</g>
	<path display="inline" fill="#FCEBC1" d="M24.3,18.5c4.3,0,8.1,2.1,10.2,5.3c-2-3.6-5.8-6-10.2-6s-8.2,2.4-10.2,6
		C16.2,20.6,20,18.5,24.3,18.5z"/>
	<polygon display="inline" fill="#DE9C01" points="24.3,23.6 26.3,27.7 30.9,28.3 27.6,31.5 28.3,36.1 24.3,33.9 20.2,36.1 21,31.5 
		17.7,28.3 22.2,27.7 	"/>
	<g display="inline">
		<polygon fill="#CA8801" points="21,31.5 20.2,36.1 20.6,35.9 21.3,31.9 		"/>
		<polygon fill="#CA8801" points="24.5,24 24.3,23.6 22.2,27.7 17.7,28.3 18,28.7 22.6,28 		"/>
		<polygon fill="#CA8801" points="30.6,28.6 30.9,28.3 26.5,27.7 26.6,28 		"/>
		<polygon fill="#CA8801" points="26.6,28 24.3,23.4 24.3,23.6 26.4,28 		"/>
		<polygon fill="#CA8801" points="18,28.7 18,28.7 21,31.5 21,31.5 		"/>
	</g>
</g>
<g>
	<defs>
		<rect id="SVGID_7_" x="-108.2" y="-65" width="261.4" height="183.7"/>
	</defs>
	<clipPath id="SVGID_8_">
		<use xlink:href="#SVGID_7_"  overflow="visible"/>
	</clipPath>
	<g id="Layer_2" clip-path="url(#SVGID_8_)">
		<path opacity="0.1" enable-background="new    " d="M-42.4-11.1l26.3-61.4l-39.2,15.6l-11.6,32.6l-41.3-21.4l-28.6,21.3l58.2,29.7
			c-10.5,12.4-14,30-7.6,46.1c9.2,23.3,35.6,34.5,58.8,25.3S7.1,41.1-2.1,17.8C-8.4,2-25.2-10.1-42.4-11.1z"/>
		<polygon fill="#A32E2E" points="-36,-9.4 -73.5,9.8 -144.7,-18.5 -107.2,-37.6 		"/>
		<polygon opacity="0.1" enable-background="new    " points="-36,-9.4 -73.5,9.8 -82.9,6 -81.5,-27.4 		"/>
		<polygon fill="#ED2B2B" points="-29.1,-77.7 -63.2,-73.8 -85.4,15.9 -47.9,-3.4 		"/>
		<g>
			<g>
				<defs>
					<polygon id="SVGID_9_" points="-29.1,-77.7 -63.2,-73.8 -75.1,-24.9 -82.9,6 -85.4,15.9 -73.5,9.8 -47.9,-3.4 -36,-9.4 
						-45.4,-13.2 					"/>
				</defs>
				<clipPath id="SVGID_10_">
					<use xlink:href="#SVGID_9_"  overflow="visible"/>
				</clipPath>
				<circle opacity="0.2" clip-path="url(#SVGID_10_)" enable-background="new    " cx="-48.1" cy="29.4" r="45.3"/>
			</g>
		</g>
		<circle fill="#F4BF25" cx="-46.9" cy="31.6" r="45.3"/>
		<circle fill="#F4BF25" cx="-46.9" cy="31.6" r="45.3"/>
		<circle fill="#F4BF25" cx="-46.9" cy="31.6" r="45.3"/>
		<circle fill="#F4BF25" cx="-46.9" cy="31.6" r="42.9"/>
		<path fill="#F3B900" d="M-35.6,53.9c-16.8,8.6-34.9,9.4-47.6,4.9c13,17.3,36.9,23.3,56.8,13.1S2.7,38.7-3.8,18
			C-7.5,31.1-18.7,45.3-35.6,53.9z"/>
		<path fill="#C18801" d="M-27.8,69c-21.8,11.1-48.4,2.9-60.1-18.2c0.2,0.5,0.5,1,0.7,1.5c11.3,22.3,38.7,31.1,60.9,19.7
			C-4,60.6,4.8,33.3-6.6,11c-0.2-0.5-0.5-1-0.7-1.5C2.8,31.5-6.1,57.8-27.8,69z"/>
		<g>
			<g>
				<defs>
					
						<ellipse id="SVGID_11_" transform="matrix(0.4552 0.8904 -0.8904 0.4552 1.3542 58.9339)" cx="-47.5" cy="30.6" rx="41.8" ry="43.5"/>
				</defs>
				<clipPath id="SVGID_12_">
					<use xlink:href="#SVGID_11_"  overflow="visible"/>
				</clipPath>
				<polygon opacity="0.2" clip-path="url(#SVGID_12_)" fill="#FFFFD7" enable-background="new    " points="-104.5,63.3 
					-85.3,75.4 -23,-19.1 -42.2,-31.1 				"/>
			</g>
			<g>
				<defs>
					
						<ellipse id="SVGID_13_" transform="matrix(0.4552 0.8904 -0.8904 0.4552 1.3542 58.9339)" cx="-47.5" cy="30.6" rx="41.8" ry="43.5"/>
				</defs>
				<clipPath id="SVGID_14_">
					<use xlink:href="#SVGID_13_"  overflow="visible"/>
				</clipPath>
				<polygon opacity="0.2" clip-path="url(#SVGID_14_)" fill="#FFFFD7" enable-background="new    " points="-74.5,77.2 -71.2,79.3 
					-8.8,-15.2 -12.1,-17.3 				"/>
			</g>
		</g>
		<path fill="#FCEBC1" d="M-65.8-5.4c13.9-7.1,29.7-6.5,42.2,0.3c-12.6-8.2-29-9.7-43.3-2.4s-22.8,21.6-23.3,36.5
			C-88.5,15-79.8,1.8-65.8-5.4z"/>
		<polygon fill="#DE9C01" points="-57.4,11.2 -43.9,21.2 -28,15.8 -33.4,31.7 -23.3,45.2 -40.1,44.9 -49.8,58.7 -54.8,42.7 
			-70.8,37.7 -57.1,28 		"/>
		<g>
			<polygon fill="#CA8801" points="-54.8,42.7 -49.8,58.7 -48.8,57.3 -53.3,43.2 			"/>
			<polygon fill="#CA8801" points="-55.8,12.4 -57.4,11.2 -57.1,28 -70.8,37.7 -69.3,38.2 -55.6,28.5 			"/>
			<polygon fill="#CA8801" points="-28.4,17 -28,15.8 -43.3,21 -42.3,21.7 			"/>
			<polygon fill="#CA8801" points="-42.3,21.7 -57.4,10.6 -57.4,11.2 -43,21.9 			"/>
			<polygon fill="#CA8801" points="-69.3,38.2 -69.3,38.2 -54.8,42.7 -54.8,42.7 			"/>
		</g>
		<g>
			<path opacity="0.1" enable-background="new    " d="M122.3-26.8l54.1-38l-41-7.3l-26.7,21.4L84.9-90.2l-35.2,3L83.3-32
				C68-27.1,55.9-14.1,53,2.8c-4.3,24.3,11.9,47.6,36.3,51.9s47.6-11.9,51.9-36.3C144,2,136.1-17,122.3-26.8z"/>
			<polygon fill="#00509E" points="123.5,-18.6 82,-22 19,-106.6 78.3,-79.4 			"/>
			<polygon opacity="0.1" enable-background="new    " points="123.5,-18.6 82,-22 76,-30.1 94.7,-57.4 			"/>
			<polygon fill="#1D64D0" points="173.7,-81.2 123.3,-75.8 68.8,-23.1 110.3,-19.7 			"/>
			<g>
				<g>
					<defs>
						<polygon id="SVGID_15_" points="173.7,-81.2 123.3,-75.8 98.6,-52 76,-30.1 68.8,-23.1 82,-22 110.3,-19.7 123.5,-18.6 
							117.5,-26.7 						"/>
					</defs>
					<clipPath id="SVGID_16_">
						<use xlink:href="#SVGID_15_"  overflow="visible"/>
					</clipPath>
					<circle opacity="0.2" clip-path="url(#SVGID_16_)" enable-background="new    " cx="93.1" cy="7.7" r="44.8"/>
				</g>
			</g>
			<circle fill="#F4BF25" cx="93" cy="10.1" r="44.8"/>
			<circle fill="#F4BF25" cx="93" cy="10.1" r="44.8"/>
			<circle fill="#D2D2D7" cx="93" cy="10.1" r="44.8"/>
			<circle fill="#D2D2D7" cx="93" cy="10.1" r="42.4"/>
			<path fill="#C8C8CD" d="M90.9,34.9c-18.5-1.5-34.2-10.2-42.6-20.7C50.2,35.4,67.2,53,89.3,54.8s41.7-12.7,47-33.4
				C126.4,30.3,109.5,36.3,90.9,34.9z"/>
			<path fill="#A0A0A5" d="M89.5,51.5c-24.1-2-42.2-22.7-41.1-46.6c0,0.5-0.1,1-0.1,1.6c-2,24.6,16.3,46.2,41,48.3
				c24.6,2,46.2-16.3,48.3-41c0-0.5,0.1-1.1,0.1-1.6C134.8,36,113.7,53.5,89.5,51.5z"/>
			<g>
				<g>
					<defs>
						
							<ellipse id="SVGID_17_" transform="matrix(-8.136499e-02 0.9967 -0.9967 -8.136499e-02 109.5838 -82.997)" cx="93" cy="9" rx="41.3" ry="43"/>
					</defs>
					<clipPath id="SVGID_18_">
						<use xlink:href="#SVGID_17_"  overflow="visible"/>
					</clipPath>
					<polygon opacity="0.2" clip-path="url(#SVGID_18_)" fill="#FFFFFF" enable-background="new    " points="28,6.9 37.9,27 
						139.4,-19.9 129.6,-40.1 					"/>
				</g>
				<g>
					<defs>
						
							<ellipse id="SVGID_19_" transform="matrix(-8.136499e-02 0.9967 -0.9967 -8.136499e-02 109.5838 -82.997)" cx="93" cy="9" rx="41.3" ry="43"/>
					</defs>
					<clipPath id="SVGID_20_">
						<use xlink:href="#SVGID_19_"  overflow="visible"/>
					</clipPath>
					<polygon opacity="0.2" clip-path="url(#SVGID_20_)" fill="#FFFFFF" enable-background="new    " points="46.1,34.1 47.8,37.7 
						149.4,-9.3 147.7,-12.8 					"/>
				</g>
			</g>
			<path fill="#F0F0F0" d="M96.2-30.7c15.5,1.2,28.4,10,35.3,22.2c-6.2-13.5-19.3-23.2-35.1-24.6s-30.4,6.3-38.6,18.5
				C66.6-25.5,80.9-32,96.2-30.7z"/>
			<polygon fill="#A0A0A5" points="94.8,-12.4 100.9,3 117.1,6.7 104.3,17.3 105.8,33.9 91.8,25 76.4,31.5 80.6,15.4 69.6,2.9 
				86.2,1.8 			"/>
			<g>
				<polygon fill="#8C8C8C" points="80.6,15.5 76.4,31.5 78,30.8 81.7,16.6 				"/>
				<polygon fill="#8C8C8C" points="95.5,-10.6 94.8,-12.4 86.2,1.8 69.6,2.9 70.7,4.1 87.3,3 				"/>
				<polygon fill="#8C8C8C" points="116.2,7.5 117.1,6.7 101.5,3.2 102,4.2 				"/>
				<polygon fill="#8C8C8C" points="102,4.2 95,-12.9 94.8,-12.4 101.3,4 				"/>
				<polygon fill="#CA8801" points="70.7,4.1 70.7,4.1 80.6,15.5 80.6,15.4 				"/>
			</g>
		</g>
		<g>
			<path opacity="0.1" enable-background="new    " d="M139.5,34.7l16.9-78L179,6.9l-8.2,32.6l33.4,3.9l22.9,32.8l-62-2
				c1.8,15.7-5.6,27.2-19.5,36.7c-20,13.8-47.4,8.7-61.2-11.3c-13.8-20-8.7-47.4,11.3-61.2C109.3,29.2,125.7,27.9,139.5,34.7z"/>
			<polygon fill="#267E0C" points="132.2,36.5 156,72.9 225.5,77.4 203.2,44.9 			"/>
			<polygon opacity="0.1" enable-background="new    " points="132.2,36.5 154.5,68.9 163.9,70 177.4,41.9 			"/>
			<polygon fill="#5CAE0C" points="160.2,-38.3 179,9.9 161.6,79.2 137.7,44.9 			"/>
			<g>
				<g>
					<defs>
						<polygon id="SVGID_21_" points="160.2,-38.3 179,9.9 171.2,41.2 163.9,70 161.6,79.2 154.5,68.9 139.3,46.9 132.2,36.5 
							139.3,39.4 						"/>
					</defs>
					<clipPath id="SVGID_22_">
						<use xlink:href="#SVGID_21_"  overflow="visible"/>
					</clipPath>
					<circle opacity="0.2" clip-path="url(#SVGID_22_)" enable-background="new    " cx="125" cy="73.7" r="42.2"/>
				</g>
			</g>
			<circle fill="#F4BF25" cx="123.1" cy="75.1" r="42.2"/>
			<circle fill="#F4BF25" cx="123.1" cy="75.1" r="42.2"/>
			<circle fill="#CF892C" cx="123.1" cy="75.1" r="42.2"/>
			<circle fill="#CF892C" cx="123.1" cy="75.1" r="40"/>
			<path fill="#CA7F1A" d="M103.8,88.2c10,14.5,24.5,23.2,37,25.1c-18.3,8.4-40.6,2.8-52.4-14.4c-11.9-17.2-9.2-40,5.3-54.2
				C90.9,57.1,93.9,73.8,103.8,88.2z"/>
			<path fill="#B47224" d="M90.8,97.2c12.9,18.8,38.3,23.8,57.5,11.7c-0.4,0.3-0.9,0.6-1.2,0.9c-19.2,13.2-45.5,8.3-58.7-10.8
				S80,53.4,99.2,40.2c0.5-0.3,0.9-0.6,1.2-0.8C82.2,52.9,77.8,78.5,90.8,97.2z"/>
			<g>
				<g>
					<defs>
						
							<ellipse id="SVGID_23_" transform="matrix(0.8238 -0.5669 0.5669 0.8238 -20.3554 83.323)" cx="123.8" cy="74.4" rx="38.9" ry="40.5"/>
					</defs>
					<clipPath id="SVGID_24_">
						<use xlink:href="#SVGID_23_"  overflow="visible"/>
					</clipPath>
					<polygon clip-path="url(#SVGID_24_)" fill="#D78F38" points="156.2,126.6 135.2,128 125.8,22.9 146.8,21.5 					"/>
				</g>
				<g>
					<defs>
						
							<ellipse id="SVGID_25_" transform="matrix(0.8238 -0.5669 0.5669 0.8238 -20.3554 83.323)" cx="123.8" cy="74.4" rx="38.9" ry="40.5"/>
					</defs>
					<clipPath id="SVGID_26_">
						<use xlink:href="#SVGID_25_"  overflow="visible"/>
					</clipPath>
					<polygon clip-path="url(#SVGID_26_)" fill="#D78F38" points="125.4,124.6 121.7,124.9 112.5,19.8 116.1,19.5 					"/>
				</g>
			</g>
			<path fill="#ECA445" d="M154.9,53.1c-8.3-12-21.6-18.5-34.8-18.4c13.9-1.3,28.1,4.8,36.6,17.2c8.5,12.3,9.1,27.7,3,40.3
				C164.5,79.8,163.1,65.1,154.9,53.1z"/>
			<polygon fill="#B47224" points="140.7,63 125.2,65.2 114.5,53.7 111.8,69.1 97.6,75.7 111.5,83 113.3,98.5 124.5,87.6 
				139.9,90.7 133,76.6 			"/>
			<g>
				<polygon fill="#9C5A12" points="124.5,87.6 113.3,98.5 113.2,97 123.1,87.4 				"/>
				<polygon fill="#9C5A12" points="138.8,63.2 140.7,63 133,76.6 139.9,90.7 138.4,90.3 131.5,76.3 				"/>
				<polygon fill="#9C5A12" points="114.2,54.8 114.5,53.7 124.8,64.7 123.7,64.9 				"/>
				<polygon fill="#9C5A12" points="123.7,64.9 140.9,62.4 140.7,63 124,65.3 				"/>
				<polygon fill="#CA8801" points="138.4,90.3 138.5,90.4 124.5,87.6 124.5,87.6 				"/>
			</g>
		</g>
	</g>
</g>
</svg>
