<?xml version="1.0" encoding="utf-8"?>
<!-- Generator: Adobe Illustrator 17.1.0, SVG Export Plug-In . SVG Version: 6.00 Build 0)  -->
<!DOCTYPE svg PUBLIC "-//W3C//DTD SVG 1.1//EN" "http://www.w3.org/Graphics/SVG/1.1/DTD/svg11.dtd">
<svg version="1.1" id="Layer_1" xmlns="http://www.w3.org/2000/svg" xmlns:xlink="http://www.w3.org/1999/xlink" x="0px" y="0px"
	 viewBox="-108.2 319 640 408.9" enable-background="new -108.2 319 640 408.9" xml:space="preserve">
<g>
	<g opacity="0.1" enable-background="new    ">
		<path d="M530.8,557.9c0,0,34.4-20.8,100.7-32.8c7.7-1.4,32.9-5.5,32.9-5.5l-65.7-44.2L524,496l-14.1-103.6l-76-25.3l20.4,145.1
			c-36.2-3.5-73.1,12.7-94.3,45.3c-30.7,46.7-17.9,109.8,29,140.6c46.9,30.8,109.8,17.9,140.6-29
			C550.2,637.4,550.8,590.7,530.8,557.9z"/>
	</g>
	<g>
		<path fill="#00509E" d="M500.7,568c-19.1,10.9-63-19.1-57.1-42c19.6-76.5-56.3-226.9-56.3-226.9l96.6-11.4
			C484,287.7,560,534.3,500.7,568z"/>
	</g>
	<g opacity="0.1" enable-background="new    ">
		<path d="M507.7,567.2c-22.2,11.3-79.4-50.4-79.4-50.4l-0.6-8.4c21.1-0.8,15.1,3.2,15.1,3.2s61.3-47.6,78-53.5
			C520.8,458,532.5,554.6,507.7,567.2z"/>
	</g>
	<g>
		<path fill="#1D64D0" d="M674.3,514c0,0-48-78.3-76-71.9c-69.1,15.8-162,86.3-162,86.3s55.4,70.5,67.5,45
			C525.7,527.5,674.3,514,674.3,514z"/>
	</g>
	<g>
		<g>
			<defs>
				<path id="SVGID_1_" d="M640.1,470.5l-63.3-13.7l-46.4-3.2l-60.3,51.1c0,0-10.9,7.1-15.2,11c-6.9,6.1-38.8,1.9-38.8,1.9
					l26.5,14.1l56.8,30.2l19.3-5.5l7.6-4.7L640.1,470.5z"/>
			</defs>
			<clipPath id="SVGID_2_">
				<use xlink:href="#SVGID_1_"  overflow="visible"/>
			</clipPath>
			<g opacity="0.2" clip-path="url(#SVGID_2_)" enable-background="new    ">
				<circle cx="439.1" cy="603.6" r="101.6"/>
			</g>
		</g>
	</g>
	<g>
		<circle fill="#F4BF25" cx="436.7" cy="608.5" r="101.6"/>
	</g>
	<g>
		<circle fill="#F4BF25" cx="436.7" cy="608.5" r="101.6"/>
	</g>
	<g>
		<circle fill="#D2D2D7" cx="436.7" cy="608.5" r="101.6"/>
	</g>
	<g>
		<circle fill="#D2D2D7" cx="436.7" cy="608.5" r="96.1"/>
	</g>
	<g>
		<path fill="#C8C8CD" d="M410.1,658.2c-37.2-19.7-62-51.9-70.1-81.3c-15.1,45.8,4.5,97.7,48.9,121.3s98.2,11,127.8-27.4
			C488.1,680.5,447.6,677.8,410.1,658.2z"/>
	</g>
	<g>
		<path fill="#A0A0A5" d="M392.3,691.5c-48.4-25.8-67.5-85.1-43.8-133.9c-0.4,1-1.1,2-1.6,3.2c-26.2,49.4-7.5,110.8,42,137.3
			c49.4,26.2,110.8,7.5,137.3-42c0.4-1,1.2-2.2,1.6-3.2C500.5,699.9,440.9,717.4,392.3,691.5z"/>
	</g>
	<g>
		<g>
			<defs>
				
					<ellipse id="SVGID_3_" transform="matrix(0.8831 0.4691 -0.4691 0.8831 335.544 -134.5678)" cx="437.8" cy="606.1" rx="97.5" ry="93.6"/>
			</defs>
			<clipPath id="SVGID_4_">
				<use xlink:href="#SVGID_3_"  overflow="visible"/>
			</clipPath>
			<g opacity="0.2" clip-path="url(#SVGID_4_)" enable-background="new    ">
				<polygon fill="#FFFFFF" points="304.3,543.5 306.9,594.2 560.2,587.6 558,536.8 				"/>
			</g>
		</g>
		<g>
			<g>
				<defs>
					
						<ellipse id="SVGID_5_" transform="matrix(0.8831 0.4691 -0.4691 0.8831 335.544 -134.5678)" cx="437.8" cy="606.1" rx="97.5" ry="93.6"/>
				</defs>
				<clipPath id="SVGID_6_">
					<use xlink:href="#SVGID_5_"  overflow="visible"/>
				</clipPath>
				<g opacity="0.2" clip-path="url(#SVGID_6_)" enable-background="new    ">
					<polygon fill="#FFFFFF" points="317.6,616.4 317.9,625.4 571.5,618.7 571.1,609.9 					"/>
				</g>
			</g>
		</g>
		<g>
			<path fill="#F0F0F0" d="M480,526.4c31.2,16.4,50.2,46.3,53.6,77.9c-0.8-33.7-19.4-65.6-51-82.7c-31.6-17.1-68.9-14.2-96.9,3.9
				C413.7,510.7,449.3,510,480,526.4z"/>
		</g>
		<g>
			<polygon fill="#A0A0A5" points="460.7,563.2 459.5,600.8 489.9,623 453.8,633.6 442,669.5 420.9,638.4 383,638.1 406.2,608.4 
				394.5,572.5 430,585.1 			"/>
		</g>
		<g>
			<g>
				<polygon fill="#8C8C8C" points="406.1,608.6 383,638.1 386.9,638.1 407.4,611.9 				"/>
			</g>
			<g>
				<polygon fill="#8C8C8C" points="460.5,567.6 460.7,563.2 430,585.1 394.5,572.5 395.7,576 431.2,588.6 				"/>
			</g>
			<g>
				<polygon fill="#8C8C8C" points="487.4,623.9 489.9,623 460.6,601.7 460.8,604.3 				"/>
			</g>
			<g>
				<polygon fill="#8C8C8C" points="460.8,604.3 461.5,562.4 460.7,563.2 459.5,603.2 				"/>
			</g>
			<g>
				<polygon fill="#CA8801" points="395.7,576 395.7,576 406.1,608.6 406.2,608.4 				"/>
			</g>
		</g>
	</g>
</g>
<g opacity="0.1" enable-background="new    ">
	<path d="M334.3,433.5c0,0,43.8-92.2,91.6-137.1c17.4-16.3-119.1,28.3-119.1,28.3l-30.5,61.4c0,0-64-63.1-94.1-71.8
		C156.8,307,77,319,77,319l160.8,139c-26.9,25-39.5,63.6-29.4,101.4c14.4,54.7,70.6,86.9,125.1,72.5c54.5-14.4,86.9-70.6,72.6-125.4
		C396.2,469.5,372.6,440.3,334.3,433.5z"/>
</g>
<g>
	<path fill="#A32E2E" d="M322.3,436.5L246.4,484c0,0-98.4-128-249.6-169c-31-8.4,126.2-24.8,157.2-10
		C234.7,343.6,322.3,436.5,322.3,436.5z"/>
</g>
<g opacity="0.1" enable-background="new    ">
	<polygon points="334.1,440.5 248,469.5 219.4,456.9 241.4,362.5 	"/>
</g>
<g>
	<path fill="#ED2B2B" d="M456.7,238.1c21.9-15.9-92.1-35.6-115.5-11.9c-53.7,54-107.6,238.2-107.6,238.2l94.4-25.3
		C327.9,439.1,357.4,309.9,456.7,238.1z"/>
</g>
<g>
	<g>
		<defs>
			<path id="SVGID_13_" d="M392.9,297.7c13.3-21.7-101.1-13.2-101.1-13.2s-42.7,127.9-58.3,179.9c-1.5,5-13.8,15.6-13.8,15.6
				l28.3-10.5l61-22.7l28.3-10.3l-7.9-9.5C329.4,426.9,342.9,379.7,392.9,297.7z"/>
		</defs>
		<clipPath id="SVGID_8_">
			<use xlink:href="#SVGID_13_"  overflow="visible"/>
		</clipPath>
		<g opacity="0.2" clip-path="url(#SVGID_8_)" enable-background="new    ">
			<circle cx="299.7" cy="520.3" r="102.4"/>
		</g>
	</g>
</g>
<g>
	<circle fill="#F4BF25" cx="301.9" cy="525.5" r="102.4"/>
</g>
<g>
	<circle fill="#F4BF25" cx="301.9" cy="525.5" r="102.4"/>
</g>
<g>
	<circle fill="#F4BF25" cx="301.9" cy="525.5" r="102.4"/>
</g>
<g>
	<circle fill="#F4BF25" cx="301.9" cy="525.5" r="96.9"/>
</g>
<g>
	<path fill="#F3B900" d="M321.2,578.6c-40,14.8-80.8,11.7-108.1-1.8c24.5,42.3,76.5,62.2,123.9,44.6c47.4-17.5,74.2-66.7,65.2-114.9
		C390.4,535,361.4,563.8,321.2,578.6z"/>
</g>
<g>
	<path fill="#C18801" d="M334.7,614.6c-51.9,19.1-109.4-6.5-130-57c0.3,1.2,0.9,2.4,1.2,3.6c19.4,53.1,78.5,80.2,131.3,60.5
		c53.1-19.6,80.2-78.5,60.6-131.6c-0.3-1.2-0.9-2.4-1.2-3.6C413.4,538.6,386.4,595.3,334.7,614.6z"/>
</g>
<g>
	<defs>
		
			<ellipse id="SVGID_15_" transform="matrix(0.9381 -0.3463 0.3463 0.9381 -162.5266 136.5119)" cx="300.7" cy="523.1" rx="98.3" ry="94.4"/>
	</defs>
	<clipPath id="SVGID_10_">
		<use xlink:href="#SVGID_15_"  overflow="visible"/>
	</clipPath>
	<g opacity="0.2" clip-path="url(#SVGID_10_)" enable-background="new    ">
		<polygon fill="#FFFFD7" points="164.1,581.2 204,613.5 369.1,418.2 329.2,386.1 		"/>
	</g>
</g>
<g>
	<g>
		<defs>
			
				<ellipse id="SVGID_17_" transform="matrix(0.9381 -0.3463 0.3463 0.9381 -162.5266 136.5119)" cx="300.7" cy="523.1" rx="98.3" ry="94.4"/>
		</defs>
		<clipPath id="SVGID_12_">
			<use xlink:href="#SVGID_17_"  overflow="visible"/>
		</clipPath>
		<g opacity="0.2" clip-path="url(#SVGID_12_)" enable-background="new    ">
			<polygon fill="#FFFFD7" points="227.7,620.4 234.5,626 399.9,430.8 393,425.2 			"/>
		</g>
	</g>
</g>
<g>
	<path fill="#FCEBC1" d="M269.4,437.5c33.1-12.2,68.4-6.6,94.6,12c-26.1-21.8-62.5-29.5-96.5-17c-34,12.5-56.9,42.3-62.1,75.6
		C213,477.1,236,449.9,269.4,437.5z"/>
</g>
<g>
	<polygon fill="#DE9C01" points="283.8,477 311.4,503 348.5,495.2 332.1,529.4 351.2,562.4 313.5,557.2 288.1,585.6 281.1,548.3 
		246.6,532.8 279.9,514.7 	"/>
</g>
<g>
	<g>
		<polygon fill="#CA8801" points="281.1,548.3 288.1,585.6 290.7,582.7 284.4,549.9 		"/>
	</g>
	<g>
		<polygon fill="#CA8801" points="287,480.1 283.8,477 279.9,514.7 246.6,532.8 249.8,534.3 283.2,516.3 		"/>
	</g>
	<g>
		<polygon fill="#CA8801" points="347.3,497.8 348.5,495.2 312.8,502.7 314.8,504.6 		"/>
	</g>
	<g>
		<polygon fill="#CA8801" points="314.8,504.6 283.9,475.6 283.8,477 313.2,504.8 		"/>
	</g>
	<g>
		<polygon fill="#CA8801" points="249.8,534.3 249.8,534.3 281.1,548.3 281.1,548.3 		"/>
	</g>
</g>
<g opacity="0.1" enable-background="new    ">
	<path d="M253.8,1014.3l-374.9,79.7c0,0-183.8-411.4-110.7-523.4c49.8-76.2,339-76.1,378.4-75.7c2.5,0,4.6,2,4.8,4.5
		C174.5,772,253.8,1014.3,253.8,1014.3z"/>
</g>
<g id="Layer_1_1_" display="none">
	<path display="inline" opacity="0.2" enable-background="new    " d="M230.9,486.5l29.1-33.3h-28.2l-15.2,17.4l-15.2-17.4h-28.4
		L202,486c-9.5,5.1-16.2,15.2-16.2,26.9c0,16.6,13.7,30.4,30.4,30.4s30.4-13.7,30.4-30.4C246.3,501.4,240.2,491.6,230.9,486.5z"/>
	<polygon display="inline" fill="#A32E2E" points="235.3,489.2 206.9,489.2 173.1,450.7 201.3,450.7 	"/>
	<polygon display="inline" opacity="0.1" enable-background="new    " points="235.3,489.2 206.9,489.2 202.5,484 213.5,464.4 	"/>
	<polygon display="inline" fill="#ED2B2B" points="260,450.7 231.9,450.7 198.1,489.2 226.2,489.2 	"/>
	<g display="inline">
		<g>
			<g>
				<defs>
					<polygon id="SVGID_19_" points="260,450.7 231.9,450.7 216.7,468.1 202.5,484 198.1,489.2 206.9,489.2 226.2,489.2 
						235.3,489.2 230.7,484 					"/>
				</defs>
				<clipPath id="SVGID_14_">
					<use xlink:href="#SVGID_19_"  overflow="visible"/>
				</clipPath>
				<circle opacity="0.2" clip-path="url(#SVGID_14_)" enable-background="new    " cx="216.2" cy="508.8" r="30.4"/>
			</g>
		</g>
	</g>
	<circle display="inline" fill="#F4BF25" cx="216.2" cy="510.2" r="30.4"/>
	<circle display="inline" fill="#F4BF25" cx="216.2" cy="510.2" r="30.4"/>
	<circle display="inline" fill="#F4BF25" cx="216.2" cy="510.2" r="30.4"/>
	<circle display="inline" fill="#F4BF25" cx="216.2" cy="510.2" r="28.6"/>
	<path display="inline" fill="#F3B900" d="M216.2,527.1c-12.7,0-23.7-4.9-29.9-11.8c2.4,14.2,14.9,25.2,29.9,25.2
		s27.4-10.8,29.9-25.2C240,522,228.7,527.1,216.2,527.1z"/>
	<path display="inline" fill="#C18801" d="M216.2,538.4c-16.4,0-29.6-13-30.4-29.1c0,0.2,0,0.7,0,1c0,16.6,13.7,30.4,30.4,30.4
		s30.4-13.7,30.4-30.4c0-0.2,0-0.7,0-1C245.8,525.4,232.6,538.4,216.2,538.4z"/>
	<g display="inline">
		<g>
			<g>
				<defs>
					<ellipse id="SVGID_21_" cx="216.2" cy="509.5" rx="29.1" ry="27.9"/>
				</defs>
				<clipPath id="SVGID_16_">
					<use xlink:href="#SVGID_21_"  overflow="visible"/>
				</clipPath>
				<polygon opacity="0.2" clip-path="url(#SVGID_16_)" fill="#FFFFD7" enable-background="new    " points="172.1,511.7 180,524.7 
					245.8,487.5 238.2,474.2 				"/>
			</g>
		</g>
		<g>
			<g>
				<defs>
					<ellipse id="SVGID_23_" cx="216.2" cy="509.5" rx="29.1" ry="27.9"/>
				</defs>
				<clipPath id="SVGID_18_">
					<use xlink:href="#SVGID_23_"  overflow="visible"/>
				</clipPath>
				<polygon opacity="0.2" clip-path="url(#SVGID_18_)" fill="#FFFFD7" enable-background="new    " points="185.8,529.1 
					187.1,531.3 253.2,494.1 251.7,491.9 				"/>
			</g>
		</g>
	</g>
	<path display="inline" fill="#FCEBC1" d="M216.2,482.6c10.5,0,19.8,5.1,25,13c-4.9-8.8-14.2-14.7-25-14.7s-20.1,5.9-25,14.7
		C196.4,487.7,205.7,482.6,216.2,482.6z"/>
	<polygon display="inline" fill="#DE9C01" points="216.2,495 221.1,505.1 232.4,506.6 224.3,514.4 226,525.6 216.2,520.3 
		206.2,525.6 208.1,514.4 200,506.6 211.1,505.1 	"/>
	<g display="inline">
		<polygon fill="#CA8801" points="208.1,514.4 206.2,525.6 207.1,525.2 208.9,515.4 		"/>
		<polygon fill="#CA8801" points="216.7,496 216.2,495 211.1,505.1 200,506.6 200.8,507.5 212,505.8 		"/>
		<polygon fill="#CA8801" points="231.6,507.3 232.4,506.6 221.6,505.1 221.8,505.8 		"/>
		<polygon fill="#CA8801" points="221.8,505.8 216.2,494.6 216.2,495 221.3,505.8 		"/>
		<polygon fill="#CA8801" points="200.8,507.5 200.8,507.5 208.1,514.4 208.1,514.4 		"/>
	</g>
</g>
<g>
	<path fill="#FFFFFF" d="M233.9,994.1c1.3,5.3-2,10.6-7.4,11.8l-357.3,75.6c-5.4,1.1-10.7-2.3-11.9-7.7l-108.6-513.6
		C-128.5,487,86.3,481,120.9,480.5c2.7,0,5,1.9,5.3,4.6C145.6,631,233.9,994.1,233.9,994.1z"/>
</g>
<g opacity="0.2">
	<g>
		<path opacity="0.5" fill="#FA5A28" d="M-32.2,666.8c1.6,11.2,12.1,19.1,23.3,17.5l66.3-9.4c11.2-1.6,19.1-12.1,17.5-23.3
			l-9.4-66.3C64,574,53.5,566.2,42.3,567.7l-66.3,9.4c-11.2,1.6-19.1,12.1-17.5,23.3L-32.2,666.8z"/>
	</g>
</g>
<g>
	<g>
		<g>
			<path fill="#FA5A28" d="M15.1,667.7c-4.6-1.2-8.5-1.5-14.9-1.6c-0.5,0-1-0.2-1.2-0.6c-15.2-21.6-25.7-49.9-49-67.8
				c-1.1-0.8-0.6-2.5,0.7-2.7c9.9-1.5,23.9-2.5,35.9,0.4c0.3,0.1,0.5,0.2,0.7,0.4c6.7,6.4,9.4,14.1,18.1,23.4
				c0.8,0.8,2.1,0.6,2.5-0.5c9.5-22.9,35.3-66.1,51.8-86.1c0.2-0.3,0.6-0.5,1-0.5c5.8-0.7,10.6-1,15.1-0.5c5.8,0.7,11,2.6,17,6.3
				c1,0.6,1,2,0,2.6c-40,25-54.5,72.5-75.9,126.3C16.6,667.5,15.8,667.9,15.1,667.7z"/>
		</g>
	</g>
</g>
<path display="none" fill="#4D4C4D" d="M-590.3-60.7v1127.3h1604.1V-60.7H-590.3z M531.8,727.9h-640V278.1h640V727.9z"/>
<g>
	<g>
		<g>
			<path fill="#FA5A28" d="M44.5,839c-4.6-1.2-8.5-1.5-14.9-1.6c-0.5,0-1-0.2-1.2-0.6c-15.2-21.6-25.7-49.9-49-67.8
				c-1.1-0.8-0.6-2.5,0.7-2.7c9.9-1.5,23.9-2.5,35.9,0.4c0.3,0.1,0.5,0.2,0.7,0.4c6.7,6.4,9.4,14.1,18.1,23.4
				c0.8,0.8,2.1,0.6,2.5-0.5c9.5-22.9,35.3-66.1,51.8-86.1c0.2-0.3,0.6-0.5,1-0.5c5.8-0.7,10.6-1,15.1-0.5c5.8,0.7,11,2.6,17,6.3
				c1,0.6,1,2,0,2.6c-40,25-54.5,72.5-75.9,126.3C46.1,838.8,45.3,839.2,44.5,839z"/>
		</g>
	</g>
</g>
</svg>
