<?xml version="1.0" encoding="utf-8"?>
<!-- Generator: Adobe Illustrator 17.1.0, SVG Export Plug-In . SVG Version: 6.00 Build 0)  -->
<!DOCTYPE svg PUBLIC "-//W3C//DTD SVG 1.1//EN" "http://www.w3.org/Graphics/SVG/1.1/DTD/svg11.dtd">
<svg version="1.1" id="Layer_1" xmlns="http://www.w3.org/2000/svg" xmlns:xlink="http://www.w3.org/1999/xlink" x="0px" y="0px"
	 viewBox="0 0 30 30" enable-background="new 0 0 30 30" xml:space="preserve">
<g>
	<path fill="#FFFFFF" d="M30,15c0,8.3-6.7,15-15,15C6.7,30,0,23.3,0,15S6.7,0,15,0C23.3,0,30,6.7,30,15z M26.2,15
		c0-6.1-5.1-11.2-11.2-11.2C8.9,3.8,3.8,8.9,3.8,15S8.9,26.2,15,26.2C21.1,26.2,26.2,21.1,26.2,15z M18.5,20.9l-4.9-3.9
		C13.2,16.6,13,16,13,15.5l0.3-7.9c0-0.9,0.8-1.6,1.7-1.6c0.9,0,1.6,0.7,1.6,1.6l0.3,7.1l3.9,3.8c0.6,0.7,0.6,1.8-0.1,2.4
		C20.1,21.4,19.2,21.4,18.5,20.9z"/>
</g>
</svg>
