<?xml version="1.0" encoding="utf-8"?>
<!-- Generator: Adobe Illustrator 17.1.0, SVG Export Plug-In . SVG Version: 6.00 Build 0)  -->
<!DOCTYPE svg PUBLIC "-//W3C//DTD SVG 1.1//EN" "http://www.w3.org/Graphics/SVG/1.1/DTD/svg11.dtd">
<svg version="1.1" id="Layer_1" xmlns="http://www.w3.org/2000/svg" xmlns:xlink="http://www.w3.org/1999/xlink" x="0px" y="0px"
	 viewBox="0 0 50 50" enable-background="new 0 0 50 50" xml:space="preserve">
<g opacity="0.3" enable-background="new    ">
	<path d="M48.2,39.1c1.1,1.1,1.3,2.7,0.5,3.7c-1.9,2.5-4.1,4.6-6.5,6.5c-1,0.9-2.7,0.7-3.8-0.4L25.8,36.3L13.2,49
		c-1.1,1.1-2.7,1.3-3.8,0.4C7,47.5,4.9,45.3,3,43c-0.9-1.1-0.7-2.7,0.4-3.8L16,26.6L3.5,14c-1.1-1.1-1.3-2.8-0.5-3.8
		c1.9-2.5,4.1-4.6,6.4-6.5c1.1-0.9,2.7-0.7,3.8,0.5l12.6,12l12.6-12c1.1-1.1,2.8-1.3,3.8-0.5c2.5,1.9,4.6,4.1,6.5,6.5
		c0.9,1,0.7,2.7-0.5,3.8L35.6,26.5L48.2,39.1z"/>
</g>
<g>
	<path fill="#FFFFFF" d="M46.5,35.9c1.1,1.1,1.3,2.7,0.5,3.7c-1.9,2.5-4.1,4.6-6.5,6.5c-1,0.9-2.7,0.7-3.8-0.4L24.2,33.1L11.6,45.7
		c-1.1,1.1-2.8,1.3-3.8,0.4c-2.4-1.9-4.5-4.1-6.4-6.4c-0.9-1.1-0.7-2.8,0.3-3.8l12.6-12.6L1.8,10.8C0.7,9.6,0.5,8,1.3,7
		c2-2.5,4.1-4.6,6.5-6.5c1-0.9,2.7-0.7,3.8,0.4l12.6,12l12.6-12c1.1-1.1,2.8-1.3,3.8-0.5C43,2.3,45.1,4.5,47,6.9
		c0.9,1,0.7,2.7-0.5,3.8L33.9,23.3L46.5,35.9z"/>
</g>
</svg>
