<?xml version="1.0" encoding="utf-8"?>
<!-- Generator: Adobe Illustrator 17.1.0, SVG Export Plug-In . SVG Version: 6.00 Build 0)  -->
<!DOCTYPE svg PUBLIC "-//W3C//DTD SVG 1.1//EN" "http://www.w3.org/Graphics/SVG/1.1/DTD/svg11.dtd">
<svg version="1.1" id="Layer_1" xmlns="http://www.w3.org/2000/svg" xmlns:xlink="http://www.w3.org/1999/xlink" x="0px" y="0px"
	 viewBox="-197.9 248 1035.8 640.1" enable-background="new -197.9 248 1035.8 640.1" xml:space="preserve">
<path opacity="0.2" fill="#34343F" enable-background="new    " d="M320,888c0.7,0,1.7,0,2.4,0c31.1-0.3,61.4-12.1,84.6-35.2
	c0.3-0.3,0.7-0.7,1-1c0.3-0.3,0.7-0.7,1.4-1l390.8-391.1c49.4-49,50.4-128.4,2.4-176.4s-127.4-46.9-176.4,2.4L320,591.9L13.8,285.7
	c-49-49-128.4-50.1-176.4-2.4c-48,48-46.9,127.4,2.4,176.4l390.8,390.8c0.3,0.3,0.7,0.7,1.4,1c0.3,0.3,0.7,0.7,1,1
	c23.1,23.1,53.9,34.9,84.6,35.2C318.2,888,319.3,888,320,888z"/>
</svg>
