<?xml version="1.0" encoding="utf-8"?>
<!-- Generator: Adobe Illustrator 17.1.0, SVG Export Plug-In . SVG Version: 6.00 Build 0)  -->
<!DOCTYPE svg PUBLIC "-//W3C//DTD SVG 1.1//EN" "http://www.w3.org/Graphics/SVG/1.1/DTD/svg11.dtd">
<svg version="1.1" id="Layer_1" xmlns="http://www.w3.org/2000/svg" xmlns:xlink="http://www.w3.org/1999/xlink" x="0px" y="0px"
	 viewBox="0 0 34.6 30" enable-background="new 0 0 34.6 30" xml:space="preserve">
<g>
	<path fill="#FFFFFF" d="M8.1,21.9c-5.6-0.1-7.2-0.4-7.2-0.4c-0.3,0-0.5-0.2-0.6-0.4C0,20.9,0,20.6,0,20.3c0.5-2.1,0.4-2.7,2.3-4.1
		C4,15,6.2,14,6.9,13.3c0.5-0.6,1.1-1.4,0.1-2.6C4.6,7.8,4.3,5.3,5.4,3c1-2.2,3.2-3,5-3s4,0.8,5,3C15.8,3.8,16,4.7,16,5.6
		c-2.3,0.3-4.8,1.6-6.1,4.4c-1,2.2-1.6,5.8,1.5,10c-0.3,0.2-0.7,0.4-1.1,0.6h0C9.6,20.9,8.8,21.4,8.1,21.9z M7.8,29.6
		c-0.3,0-0.5-0.2-0.6-0.4C6.9,29,6.9,28.7,7,28.4c0.5-2.1,0.4-2.7,2.3-4.1c1.7-1.2,3.9-2.2,4.6-3c0.5-0.6,1.1-1.4,0.1-2.6
		c-2.5-2.9-2.7-5.4-1.7-7.8c1-2.2,3.2-3,5-3s4,0.8,5,3c1,2.3,0.8,4.9-1.7,7.8c-1,1.2-0.4,1.9,0.1,2.6c0.7,0.8,2.8,1.7,4.6,3
		c1.9,1.4,1.8,2.1,2.3,4.1c0.1,0.3,0,0.5-0.1,0.8c-0.1,0.2-0.4,0.4-0.7,0.4c-0.1,0-2.1,0.4-9.6,0.4C9.8,30,7.9,29.6,7.8,29.6z
		 M34.4,21.1c-0.1,0.2-0.4,0.4-0.7,0.4c-0.1,0-1.7,0.3-7.2,0.4c-0.8-0.5-1.6-1-2.2-1.4c-0.4-0.2-0.8-0.4-1.1-0.6
		c3.1-4.1,2.6-7.7,1.5-10c-1.3-2.8-3.8-4-6.1-4.4c0-0.9,0.2-1.8,0.6-2.6c1-2.2,3.2-3,5-3s4,0.8,5,3c1,2.3,0.8,4.9-1.7,7.8
		c-1,1.2-0.4,1.9,0.1,2.6c0.7,0.8,2.8,1.7,4.6,3c1.9,1.4,1.8,2.1,2.3,4.1C34.6,20.6,34.6,20.9,34.4,21.1z"/>
</g>
</svg>
