<?xml version="1.0" encoding="utf-8"?>
<!-- Generator: Adobe Illustrator 17.1.0, SVG Export Plug-In . SVG Version: 6.00 Build 0)  -->
<!DOCTYPE svg PUBLIC "-//W3C//DTD SVG 1.1//EN" "http://www.w3.org/Graphics/SVG/1.1/DTD/svg11.dtd">
<svg version="1.1" id="Layer_1" xmlns="http://www.w3.org/2000/svg" xmlns:xlink="http://www.w3.org/1999/xlink" x="0px" y="0px"
	 viewBox="0 0 270.7 270.7" enable-background="new 0 0 270.7 270.7" xml:space="preserve">
<g>
	<path fill="#25B8DC" d="M270.7,27.4v216c0,9-6.5,16.4-15.2,17.8c-39.5,6.5-80.1,9.6-120.1,9.6c-40,0-80.7-3.1-120.1-9.6
		C6.5,259.7,0,252.4,0,243.4v-216c0-9,6.5-16.6,15.2-17.8C54.7,3.1,95,0,135.4,0c40.3,0,80.4,3.1,120.1,9.6
		C264.3,10.7,270.7,18.3,270.7,27.4z M234.6,41.7c-33-4.5-66-6.8-99.3-6.8c-33.3,0-66.6,2.3-99.3,6.8V229c32.7,4.5,66,6.8,99.3,6.8
		c33.3,0,66.3-2.3,99.3-6.8V41.7z"/>
</g>
<g>
	<path fill="#25B8DC" d="M191.2,145.8c-0.3,3.1-2.8,5.4-5.9,5.4h-34.1v34.1c0,3.1-2.4,5.6-5.4,5.9c-6.9,0.7-14,0.7-20.9,0
		c-3-0.3-5.4-2.8-5.4-5.9v-34.1h-34c-3.2,0-5.8-2.3-6.1-5.4c-0.7-6.9-0.7-13.8,0-20.7c0.3-3.1,2.8-5.5,6.1-5.5h34v-34
		c0-3.2,2.4-5.8,5.4-6.1c6.9-0.7,14-0.7,20.9,0c3,0.3,5.4,2.8,5.4,6.1v34h34.1c3.1,0,5.6,2.4,5.9,5.5
		C191.9,132,191.9,138.9,191.2,145.8z"/>
</g>
</svg>
