<?xml version="1.0" encoding="utf-8"?>
<!-- Generator: Adobe Illustrator 17.1.0, SVG Export Plug-In . SVG Version: 6.00 Build 0)  -->
<!DOCTYPE svg PUBLIC "-//W3C//DTD SVG 1.1//EN" "http://www.w3.org/Graphics/SVG/1.1/DTD/svg11.dtd">
<svg version="1.1" id="Layer_1" xmlns="http://www.w3.org/2000/svg" xmlns:xlink="http://www.w3.org/1999/xlink" x="0px" y="0px"
	 viewBox="0 0 640 861.8" enable-background="new 0 0 640 861.8" xml:space="preserve">
<g>
	<defs>
		<rect id="SVGID_1_" width="640" height="861.8"/>
	</defs>
	<clipPath id="SVGID_2_">
		<use xlink:href="#SVGID_1_"  overflow="visible"/>
	</clipPath>
	<g clip-path="url(#SVGID_2_)">
		<rect fill="#E4EAF0" width="640" height="861.8"/>
	</g>
	<g clip-path="url(#SVGID_2_)">
		<path fill="#BAC4CE" d="M511,502.5c-2.2,0-4.4-0.8-6-2.5c-3.3-3.3-3.3-8.7,0-12l172.7-172.7c3.3-3.3,8.7-3.3,12,0
			c3.3,3.3,3.3,8.7,0,12L517,500C515.4,501.7,513.2,502.5,511,502.5z"/>
	</g>
	<g clip-path="url(#SVGID_2_)">
		<path fill="#25b8dc" d="M57,771.5H-83c-4.7,0-8.5-3.8-8.5-8.5s3.8-8.5,8.5-8.5H57c3.3,0,8.7-2.3,11.1-4.6l254.9-254.9
			c5.5-5.5,15.4-9.6,23.1-9.6h155c3.3,0,8.7-2.3,11-4.6l66.5-66.9c3.3-3.3,8.7-3.3,12,0c3.3,3.3,3.3,8.7,0,12l-66.5,66.9
			c-5.4,5.5-15.4,9.6-23.1,9.6H346c-3.3,0-8.7,2.3-11.1,4.6L80.1,761.9C74.6,767.4,64.7,771.5,57,771.5z"/>
	</g>
	<g clip-path="url(#SVGID_2_)">
		<circle fill="#FFFFFF" cx="250.8" cy="577.8" r="16"/>
		<path fill="#3E4E5A" d="M250.8,597.8c-11,0-20-9-20-20c0-11,9-20,20-20s20,9,20,20C270.8,588.8,261.8,597.8,250.8,597.8z
			 M250.8,565.8c-6.6,0-12,5.4-12,12s5.4,12,12,12s12-5.4,12-12S257.4,565.8,250.8,565.8z"/>
	</g>
	<g clip-path="url(#SVGID_2_)">
		<circle fill="#FFFFFF" cx="336" cy="494" r="16"/>
		<path fill="#3E4E5A" d="M336,514c-11,0-20-9-20-20s9-20,20-20s20,9,20,20S347,514,336,514z M336,482c-6.6,0-12,5.4-12,12
			s5.4,12,12,12s12-5.4,12-12S342.6,482,336,482z"/>
	</g>
	<g clip-path="url(#SVGID_2_)">
		<circle fill="#FFFFFF" cx="66" cy="761" r="16"/>
		<path fill="#3E4E5A" d="M66,781c-11,0-20-9-20-20s9-20,20-20s20,9,20,20S77,781,66,781z M66,749c-6.6,0-12,5.4-12,12s5.4,12,12,12
			s12-5.4,12-12S72.6,749,66,749z"/>
	</g>
	<g clip-path="url(#SVGID_2_)">
		<circle fill="#FFFFFF" cx="511" cy="494" r="16"/>
		<path fill="#3E4E5A" d="M511,514c-11,0-20-9-20-20s9-20,20-20s20,9,20,20S522,514,511,514z M511,482c-6.6,0-12,5.4-12,12
			s5.4,12,12,12s12-5.4,12-12S517.6,482,511,482z"/>
	</g>
	<g clip-path="url(#SVGID_2_)">
		<circle fill="#FFFFFF" cx="584.5" cy="420" r="16"/>
		<path fill="#3E4E5A" d="M584.5,440c-11,0-20-9-20-20s9-20,20-20s20,9,20,20S595.5,440,584.5,440z M584.5,408c-6.6,0-12,5.4-12,12
			s5.4,12,12,12s12-5.4,12-12S591.1,408,584.5,408z"/>
	</g>
	<g clip-path="url(#SVGID_2_)">
		<path fill="#BAC4CE" d="M30,721.7h-74.4c-4.7,0-8.5-3.8-8.5-8.5s3.8-8.5,8.5-8.5H30c3.3,0,8.7-2.3,11.1-4.6L187,554.2
			c2.3-2.3,4.6-7.8,4.6-11.1V141.6c0-7.7,4.1-17.6,9.6-23.1L387.5-67.9c3.3-3.3,8.7-3.3,12,0c3.3,3.3,3.3,8.7,0,12L213.1,130.5
			c-2.3,2.3-4.6,7.8-4.6,11.1v401.5c0,7.7-4.1,17.6-9.6,23.1L53.1,712.1C47.6,717.6,37.7,721.7,30,721.7z"/>
	</g>
	<g clip-path="url(#SVGID_2_)">
		<path fill="#BAC4CE" d="M697.1,211.6H465L243.5-9.9c-3.3-3.3-3.3-8.7,0-12c3.3-3.3,8.7-3.3,12,0L472,194.6h225.1
			c4.7,0,8.5,3.8,8.5,8.5S701.8,211.6,697.1,211.6z"/>
	</g>
	<g clip-path="url(#SVGID_2_)">
		<circle fill="#FFFFFF" cx="466.7" cy="200.1" r="16"/>
		<path fill="#BAC4CE" d="M466.7,220.1c-11,0-20-9-20-20s9-20,20-20s20,9,20,20S477.7,220.1,466.7,220.1z M466.7,188.1
			c-6.6,0-12,5.4-12,12s5.4,12,12,12s12-5.4,12-12S473.3,188.1,466.7,188.1z"/>
	</g>
	<g clip-path="url(#SVGID_2_)">
		<circle fill="#FFFFFF" cx="299.1" cy="32.6" r="16"/>
		<path fill="#BAC4CE" d="M299.1,52.6c-11,0-20-9-20-20s9-20,20-20s20,9,20,20S310.1,52.6,299.1,52.6z M299.1,20.6
			c-6.6,0-12,5.4-12,12s5.4,12,12,12s12-5.4,12-12S305.7,20.6,299.1,20.6z"/>
	</g>
	<g clip-path="url(#SVGID_2_)">
		<circle fill="#FFFFFF" cx="199" cy="549" r="16"/>
		<path fill="#BAC4CE" d="M199,569c-11,0-20-9-20-20s9-20,20-20s20,9,20,20S210,569,199,569z M199,537c-6.6,0-12,5.4-12,12
			s5.4,12,12,12s12-5.4,12-12S205.6,537,199,537z"/>
	</g>
	<g clip-path="url(#SVGID_2_)">
		<circle fill="#FFFFFF" cx="78.9" cy="673.5" r="16"/>
		<path fill="#BAC4CE" d="M78.9,693.5c-11,0-20-9-20-20s9-20,20-20s20,9,20,20S89.9,693.5,78.9,693.5z M78.9,661.5
			c-6.6,0-12,5.4-12,12s5.4,12,12,12s12-5.4,12-12S85.5,661.5,78.9,661.5z"/>
	</g>
	<g clip-path="url(#SVGID_2_)">
		<line fill="#FFFFFF" x1="667" y1="244.1" x2="-30.8" y2="244.1"/>
		<rect x="-30.8" y="242.1" fill="#BAC4CE" width="697.8" height="4"/>
	</g>
	<g clip-path="url(#SVGID_2_)">
		<circle fill="#FFFFFF" cx="200" cy="244.1" r="16"/>
		<path fill="#BAC4CE" d="M200,264.1c-11,0-20-9-20-20s9-20,20-20s20,9,20,20S211,264.1,200,264.1z M200,232.1c-6.6,0-12,5.4-12,12
			s5.4,12,12,12s12-5.4,12-12S206.6,232.1,200,232.1z"/>
	</g>
	<g clip-path="url(#SVGID_2_)">
		<line fill="#FFFFFF" x1="66" y1="-15.9" x2="66" y2="244.1"/>
		<rect x="64" y="-15.9" fill="#BAC4CE" width="4" height="260"/>
	</g>
	<g clip-path="url(#SVGID_2_)">
		<circle fill="#FFFFFF" cx="66" cy="244.1" r="10"/>
		<path fill="#BAC4CE" d="M66,255.7c-6.4,0-11.6-5.2-11.6-11.6s5.2-11.6,11.6-11.6s11.6,5.2,11.6,11.6S72.4,255.7,66,255.7z
			 M66,235.7c-4.6,0-8.4,3.8-8.4,8.4s3.8,8.4,8.4,8.4s8.4-3.8,8.4-8.4S70.6,235.7,66,235.7z"/>
	</g>
	<g clip-path="url(#SVGID_2_)">
		<circle fill="#FFFFFF" cx="66" cy="90.3" r="10"/>
		<path fill="#BAC4CE" d="M66,101.9c-6.4,0-11.6-5.2-11.6-11.6S59.6,78.7,66,78.7s11.6,5.2,11.6,11.6S72.4,101.9,66,101.9z M66,81.9
			c-4.6,0-8.4,3.8-8.4,8.4s3.8,8.4,8.4,8.4s8.4-3.8,8.4-8.4S70.6,81.9,66,81.9z"/>
	</g>
	<g clip-path="url(#SVGID_2_)">
		<circle fill="#FFFFFF" cx="320" cy="244.1" r="10"/>
		<path fill="#BAC4CE" d="M320,255.7c-6.4,0-11.6-5.2-11.6-11.6s5.2-11.6,11.6-11.6s11.6,5.2,11.6,11.6S326.4,255.7,320,255.7z
			 M320,235.7c-4.6,0-8.4,3.8-8.4,8.4s3.8,8.4,8.4,8.4s8.4-3.8,8.4-8.4S324.6,235.7,320,235.7z"/>
	</g>
	<g clip-path="url(#SVGID_2_)">
		<circle fill="#FFFFFF" cx="600.5" cy="244.1" r="10"/>
		<path fill="#BAC4CE" d="M600.5,255.7c-6.4,0-11.6-5.2-11.6-11.6s5.2-11.6,11.6-11.6s11.6,5.2,11.6,11.6S606.9,255.7,600.5,255.7z
			 M600.5,235.7c-4.6,0-8.4,3.8-8.4,8.4s3.8,8.4,8.4,8.4s8.4-3.8,8.4-8.4S605.1,235.7,600.5,235.7z"/>
	</g>
	<g clip-path="url(#SVGID_2_)">
		<line fill="#FFFFFF" x1="552" y1="244.1" x2="552" y2="203.1"/>
		<rect x="550" y="203.1" fill="#BAC4CE" width="4" height="41"/>
	</g>
	<g clip-path="url(#SVGID_2_)">
		<circle fill="#FFFFFF" cx="552" cy="203.1" r="16"/>
		<path fill="#BAC4CE" d="M552,223.1c-11,0-20-9-20-20s9-20,20-20s20,9,20,20S563,223.1,552,223.1z M552,191.1c-6.6,0-12,5.4-12,12
			s5.4,12,12,12s12-5.4,12-12S558.6,191.1,552,191.1z"/>
	</g>
	<g clip-path="url(#SVGID_2_)">
		<circle fill="#FFFFFF" cx="200" cy="364.1" r="16"/>
		<path fill="#BAC4CE" d="M200,384.1c-11,0-20-9-20-20s9-20,20-20s20,9,20,20S211,384.1,200,384.1z M200,352.1c-6.6,0-12,5.4-12,12
			s5.4,12,12,12s12-5.4,12-12S206.6,352.1,200,352.1z"/>
	</g>
	<path clip-path="url(#SVGID_2_)" fill="#82C8EC" d="M932.3,673.5H699.5l135.6-136c36.3-36.4,36.2-95.3-0.2-131.5
		c-36.4-36.3-95.3-36.2-131.5,0.2l-140,140.4c-11.5,11.5-27,17.9-43.2,17.9H411.1c-25.8,0-51,10.4-69.2,28.7L183.5,751.7
		c-18.2,18.2-28.6,43.4-28.6,69.2v104.6c0,51.3,41.1,93.7,92.3,94.1c47.3,0.3,86.5-34.7,92.8-80.2h592.3V673.5z"/>
	<g clip-path="url(#SVGID_2_)">
		<path fill="#82C8EC" d="M749.5,140.6H540.8c-25.8,0-51-10.5-69.2-28.7L321.2-38.4H204.6c-25.8,0-51-10.4-69.2-28.7l-86.2-86.2
			c-36.3-36.3-36.3-95.2,0-131.5c36.3-36.3,95.2-36.3,131.5,0l60.4,60.4h116.6c25.8,0,51,10.5,69.2,28.7L577.3-45.4h172.2
			c51.4,0,93,41.6,93,93S800.8,140.6,749.5,140.6z"/>
	</g>
	<g clip-path="url(#SVGID_2_)">
		<circle fill="#FFFFFF" cx="552" cy="244.1" r="10"/>
		<path fill="#BAC4CE" d="M552,255.7c-6.4,0-11.6-5.2-11.6-11.6s5.2-11.6,11.6-11.6s11.6,5.2,11.6,11.6S558.4,255.7,552,255.7z
			 M552,235.7c-4.6,0-8.4,3.8-8.4,8.4s3.8,8.4,8.4,8.4s8.4-3.8,8.4-8.4S556.6,235.7,552,235.7z"/>
	</g>
</g>
</svg>
