<?xml version="1.0" encoding="utf-8"?>
<!-- Generator: Adobe Illustrator 17.1.0, SVG Export Plug-In . SVG Version: 6.00 Build 0)  -->
<!DOCTYPE svg PUBLIC "-//W3C//DTD SVG 1.1//EN" "http://www.w3.org/Graphics/SVG/1.1/DTD/svg11.dtd">
<svg version="1.1" id="Layer_1" xmlns="http://www.w3.org/2000/svg" xmlns:xlink="http://www.w3.org/1999/xlink" x="0px" y="0px"
	 viewBox="10.6 1.1 30 47.8" enable-background="new 10.6 1.1 30 47.8" xml:space="preserve">
<path opacity="0.3" enable-background="new    " d="M25.8,26.6l13.2-13.2c2.1-2.1,2.1-5.5,0-7.6c-2.1-2.1-5.5-2.1-7.6,0.1L14.7,22.7
	l0,0l0,0c-1,1-1.5,2.4-1.5,3.7c0,0,0,0,0,0.1c0,0,0,0,0,0.1c0,1.3,0.4,2.7,1.5,3.7l0,0l0,0l16.8,16.8c2.1,2.1,5.5,2.2,7.6,0.1
	c2.1-2.1,2.1-5.5-0.1-7.6L25.8,26.6z"/>
<path fill="#FFFFFF" d="M23.2,23.4l13.2-13.2c2.1-2.1,2.2-5.5,0.1-7.6c-2.1-2.1-5.5-2.1-7.6,0.1L12.1,19.6l0,0l0,0
	c-1,1-1.5,2.4-1.5,3.7c0,0,0,0,0,0.1c0,0,0,0,0,0.1c0,1.3,0.4,2.7,1.5,3.7l0,0l0,0l16.8,16.8c2.1,2.1,5.5,2.2,7.6,0.1
	c2.1-2.1,2.1-5.5-0.1-7.6L23.2,23.4z"/>
</svg>
