<?xml version="1.0" encoding="utf-8"?>
<!-- Generator: Adobe Illustrator 17.1.0, SVG Export Plug-In . SVG Version: 6.00 Build 0)  -->
<!DOCTYPE svg PUBLIC "-//W3C//DTD SVG 1.1//EN" "http://www.w3.org/Graphics/SVG/1.1/DTD/svg11.dtd">
<svg version="1.1" id="Yellow" xmlns="http://www.w3.org/2000/svg" xmlns:xlink="http://www.w3.org/1999/xlink" x="0px" y="0px"
	 viewBox="-0.1 279.1 595.3 284.2" enable-background="new -0.1 279.1 595.3 284.2" xml:space="preserve">
<g>
	<g opacity="0.3">
		<path fill="#161E2A" d="M99.5,439.7L13,328.8c-3.1-4.3-0.6-9.9,4.8-10.2l49.3-2.3c2.8-0.3,4.5,1.4,5.7,2.8l45.4,68.1
			c1.4,2,4.5,2,6-0.3l38.3-72.6c0.9-1.4,2.3-3.1,5.4-3.4l49.3-2.3c5.4-0.3,8.5,5.1,6,9.6l-72.6,118.3l5.7,100.7
			c0.3,3.4-2.8,6.8-6.2,6.8l-42.5,2.3c-3.7,0.3-6.8-2.8-6.8-6.2L99.5,439.7z"/>
		<path fill="#161E2A" d="M223.2,419.8c34.3-7.4,69.8,12.5,77.7,49.3c0.6,2.3,1.1,6.8,1.4,9.4c0.3,3.4-2,6.5-5.1,7.1l-81.1,17.6
			c2.8,8.8,13.3,20.4,30.6,16.7c8.5-1.7,17.3-7.9,21.8-13c2.6-3.1,6-3.7,8.5-1.7l21.3,16.4c2.6,2.3,4.3,6.2,1.7,9.9
			c-9.4,14.5-24.4,25.5-45.7,30.1c-40,8.8-77.1-16.7-85.6-55.6C160.5,467.5,183.5,428.3,223.2,419.8z M250.7,465.2
			c-4.3-10.5-15.9-16.2-25.5-13c-9.9,3.1-15.3,14.5-13.6,25.5L250.7,465.2z"/>
		<path fill="#161E2A" d="M313.9,327.6c-0.3-3.4,2.8-6.8,6.2-6.8l33.5-1.7c3.4-0.3,6.8,2.8,6.8,6.2l10.8,221.2
			c0.3,3.4-2.8,6.8-6.2,6.8l-39.4,1.7c-3.4,0.3-6.8-2.8-6.8-6.2L313.9,327.6z"/>
		<path fill="#161E2A" d="M395.9,294.5c0-3.4,3.4-6.5,6.8-6.2l33.5,1.4c3.4,0,6.5,3.4,6.2,6.8l-6.5,236.2c0,3.4-3.4,6.5-6.8,6.2
			l-39.4-1.7c-3.4,0-6.5-3.4-6.2-6.8L395.9,294.5z"/>
		<path fill="#161E2A" d="M557,421.2c34.3,17,47.6,55.3,31.2,93.9c-15,35.5-59.6,49.3-93.9,32.3c-34.3-17-47.9-56.7-30.9-94.4
			C480.7,414.7,523,404.2,557,421.2z M524.1,507.2c13.3,6.5,29.2,0.6,36-12.8c6.5-13.3,1.4-29.2-11.9-35.7s-29.2-0.9-35.7,12.2
			C505.7,484.2,510.8,500.6,524.1,507.2z"/>
	</g>
	<g>
		<path fill="#FFFFFF" d="M85.4,426.6L1.1,318.6c-2.8-4.3-0.6-9.6,4.8-9.9l47.9-2.3c2.6,0,4.5,1.4,5.4,2.8l44.2,66.1
			c1.4,2,4.5,2,5.7-0.3l37.4-70.9c0.9-1.4,2.3-3.1,5.1-3.4l47.9-2.3c5.4-0.3,8.2,4.8,6,9.4l-70.3,115.7l5.7,98.1
			c0.3,3.4-2.6,6.5-6,6.8l-41.4,2c-3.7,0.3-6.5-2.6-6.8-6L85.4,426.6z"/>
		<path fill="#FFFFFF" d="M205.9,407.3c33.5-7.4,67.8,12.2,75.7,48.2c0.6,2.3,1.1,6.5,1.1,9.1c0.3,3.4-2,6.2-5.1,6.8l-78.6,17
			c2.8,8.5,12.8,19.9,29.8,16.2c8.2-1.7,16.7-7.7,21.3-12.8c2.6-2.8,5.7-3.7,8.2-1.7l20.7,16.2c2.6,2.3,4,6,1.7,9.6
			c-9.1,13.9-23.8,24.7-44.5,29.2c-39.1,8.5-75.2-16.4-83.4-53.9C144.9,453.8,167.3,415.6,205.9,407.3z M232.8,451.3
			c-4-10.2-15.6-15.6-24.7-12.8c-9.6,3.1-15.3,14.2-13.3,25L232.8,451.3z"/>
		<path fill="#FFFFFF" d="M294.4,317.4c0-3.4,2.8-6.5,6.2-6.5l32.3-1.4c3.4,0,6.5,2.8,6.5,6.2L350,531c0,3.4-2.8,6.5-6.2,6.5
			l-38.3,1.4c-3.4,0-6.5-2.8-6.5-6.2L294.4,317.4z"/>
		<path fill="#FFFFFF" d="M374.1,285.4c0-3.4,3.4-6.2,6.5-6.2l32.6,1.4c3.4,0,6.2,3.1,6.2,6.5l-6.5,230c0,3.4-3.4,6.2-6.5,6.2
			l-38.3-1.4c-3.4,0-6.2-3.1-6.2-6.5L374.1,285.4z"/>
		<path fill="#FFFFFF" d="M529.8,406.8c34.3,17,47.6,55.3,31.2,93.9c-15,35.5-59.6,49.3-93.9,32.3c-34.3-17-47.9-56.7-30.9-94.4
			C453.5,400,495.7,389.7,529.8,406.8z M496.6,492.7c13.3,6.5,29.2,0.6,36-12.8c6.5-13.3,1.4-29.2-11.9-35.7
			c-13.3-6.5-29.2-0.9-35.7,12.2C478.4,469.7,483.5,486.2,496.6,492.7z"/>
	</g>
</g>
</svg>
