<?xml version="1.0" encoding="utf-8"?>
<!-- Generator: Adobe Illustrator 17.1.0, SVG Export Plug-In . SVG Version: 6.00 Build 0)  -->
<!DOCTYPE svg PUBLIC "-//W3C//DTD SVG 1.1//EN" "http://www.w3.org/Graphics/SVG/1.1/DTD/svg11.dtd">
<svg version="1.1" id="Layer_1" xmlns="http://www.w3.org/2000/svg" xmlns:xlink="http://www.w3.org/1999/xlink" x="0px" y="0px"
	 viewBox="0 0 289.4 304.6" enable-background="new 0 0 289.4 304.6" xml:space="preserve">
<path opacity="0.2" d="M193.4,117.7l96-109.2h-92.8l-50.3,57.2L96,8.6H3.1l95,108.1c-31.6,16.7-53.1,49.9-53.1,88.2
	c0,55.1,44.7,99.7,99.7,99.7s99.7-44.7,99.7-99.7C244.5,167.4,223.9,134.8,193.4,117.7z"/>
<polygon fill="#00509E" points="207.5,126.9 114.7,126.9 3.1,0 96,0 "/>
<polygon opacity="0.1" points="207.5,126.9 114.7,126.9 99.9,110 136.4,46 "/>
<polygon fill="#1D64D0" points="289.4,0 196.6,0 85.1,126.9 177.9,126.9 "/>
<g>
	<defs>
		<polygon id="SVGID_1_" points="289.4,0 196.6,0 146.3,57.2 99.9,110 85.1,126.9 114.7,126.9 177.9,126.9 207.5,126.9 192.7,110 		
			"/>
	</defs>
	<clipPath id="SVGID_2_">
		<use xlink:href="#SVGID_1_"  overflow="visible"/>
	</clipPath>
	<circle opacity="0.2" clip-path="url(#SVGID_2_)" cx="144.8" cy="190.9" r="99.7"/>
</g>
<circle fill="#F4BF25" cx="144.8" cy="196.3" r="99.7"/>
<circle fill="#F4BF25" cx="144.8" cy="196.3" r="99.7"/>
<circle fill="#D2D2D7" cx="144.8" cy="196.3" r="99.7"/>
<circle fill="#D2D2D7" cx="144.8" cy="196.3" r="94.5"/>
<path fill="#C8C8CD" d="M144.8,251.5c-41.5,0-77.9-16.5-98.3-38.3c8,47,49,82.8,98.3,82.8s90.3-35.8,98.3-82.8
	C222.8,235,186.4,251.5,144.8,251.5z"/>
<path fill="#A0A0A5" d="M144.8,288.9c-53.9,0-97.8-42.7-99.7-96.2c0,1.2-0.1,2.4-0.1,3.6c0,55.1,44.7,99.7,99.7,99.7
	s99.7-44.7,99.7-99.7c0-1.2,0-2.4-0.1-3.6C242.6,246.1,198.7,288.9,144.8,288.9z"/>
<g>
	<defs>
		<ellipse id="SVGID_3_" cx="144.9" cy="193.9" rx="95.8" ry="92.1"/>
	</defs>
	<clipPath id="SVGID_4_">
		<use xlink:href="#SVGID_3_"  overflow="visible"/>
	</clipPath>
	<polygon opacity="0.2" clip-path="url(#SVGID_4_)" fill="#FFFFFF" points="0,200.8 25.5,243.7 242.7,121 217.2,78.2 	"/>
	<polygon opacity="0.2" clip-path="url(#SVGID_4_)" fill="#FFFFFF" points="45.1,258.1 49.5,265.6 266.7,142.9 262.2,135.4 	"/>
</g>
<path fill="#F0F0F0" d="M144.8,104.9c34.5,0,64.9,17.1,82.4,43c-16.2-28.8-47-48.2-82.4-48.2s-66.2,19.4-82.4,48.2
	C79.9,122.1,110.3,104.9,144.8,104.9z"/>
<polygon fill="#A0A0A5" points="144.8,145.8 161.2,179 197.9,184.4 171.3,210.2 177.6,246.7 144.8,229.5 112,246.7 118.3,210.2 
	91.8,184.4 128.4,179 "/>
<g>
	<polygon fill="#8C8C8C" points="118.3,210.3 112,246.7 115.3,245 120.9,212.8 	"/>
	<polygon fill="#8C8C8C" points="146.7,149.7 144.8,145.8 128.4,179 91.8,184.4 94.4,186.9 131,181.6 	"/>
	<polygon fill="#8C8C8C" points="195.9,186.3 197.9,184.4 162.6,179.2 163.8,181.6 	"/>
	<polygon fill="#8C8C8C" points="163.8,181.6 145.4,144.7 144.8,145.8 162.3,181.3 	"/>
	<polygon fill="#CA8801" points="94.4,186.9 94.3,186.9 118.3,210.3 118.3,210.2 	"/>
</g>
</svg>
