<?xml version="1.0" encoding="utf-8"?>
<!-- Generator: Adobe Illustrator 17.1.0, SVG Export Plug-In . SVG Version: 6.00 Build 0)  -->
<!DOCTYPE svg PUBLIC "-//W3C//DTD SVG 1.1//EN" "http://www.w3.org/Graphics/SVG/1.1/DTD/svg11.dtd">
<svg version="1.1" id="Layer_1" xmlns="http://www.w3.org/2000/svg" xmlns:xlink="http://www.w3.org/1999/xlink" x="0px" y="0px"
	 width="49.7px" height="44px" viewBox="0.3 0.2 49.7 44" enable-background="new 0.3 0.2 49.7 44" xml:space="preserve">
<g>
	<path opacity="0.2" d="M8.4,13.5l37,0c2.5,0,4.6-2,4.6-4.4s-2.1-4.4-4.6-4.4l0,0l-37,0C7.1,4.7,6,5.1,5.1,6
		C4.3,6.8,3.8,7.9,3.8,9.1C3.8,11.6,5.8,13.5,8.4,13.5z"/>
	<path opacity="0.2" d="M45.4,19.5L45.4,19.5l-37,0c-1.2,0-2.4,0.5-3.3,1.3c-0.9,0.8-1.3,1.9-1.3,3.1c0,2.4,2.1,4.4,4.6,4.4l37,0
		c2.5,0,4.6-2,4.6-4.4S47.9,19.5,45.4,19.5z"/>
	<path opacity="0.2" d="M45.4,35.3L45.4,35.3l-37,0c-1.2,0-2.4,0.5-3.3,1.3c-0.9,0.8-1.3,1.9-1.3,3.1c0,2.4,2.1,4.4,4.6,4.4l37,0
		c2.5,0,4.6-2,4.6-4.4S47.9,35.3,45.4,35.3z"/>
</g>
<g>
	<path fill="#FFFFFF" d="M4.9,9.1l37,0c2.5,0,4.6-2,4.6-4.4s-2.1-4.4-4.6-4.4l0,0l-37,0c-1.2,0-2.4,0.5-3.3,1.3
		C0.8,2.4,0.3,3.5,0.3,4.7C0.3,7.1,2.3,9.1,4.9,9.1z"/>
	<path fill="#FFFFFF" d="M41.9,16L41.9,16l-37,0c-1.2,0-2.4,0.5-3.3,1.3c-0.9,0.8-1.3,1.9-1.3,3.1c0,2.4,2.1,4.4,4.6,4.4l37,0
		c2.5,0,4.6-2,4.6-4.4S44.5,16,41.9,16z"/>
	<path fill="#FFFFFF" d="M41.9,31.8L41.9,31.8l-37,0c-1.2,0-2.4,0.5-3.3,1.3c-0.9,0.8-1.3,1.9-1.3,3.1c0,2.4,2.1,4.4,4.6,4.4l37,0
		c2.5,0,4.6-2,4.6-4.4S44.5,31.8,41.9,31.8z"/>
</g>
</svg>
