<?xml version="1.0" encoding="utf-8"?>
<!-- Generator: Adobe Illustrator 17.1.0, SVG Export Plug-In . SVG Version: 6.00 Build 0)  -->
<!DOCTYPE svg PUBLIC "-//W3C//DTD SVG 1.1//EN" "http://www.w3.org/Graphics/SVG/1.1/DTD/svg11.dtd">
<svg version="1.1" id="Layer_1" xmlns="http://www.w3.org/2000/svg" xmlns:xlink="http://www.w3.org/1999/xlink" x="0px" y="0px"
	 viewBox="0 0 510 333" enable-background="new 0 0 510 333" xml:space="preserve">
<g>
</g>
<g>
	<defs>
		<rect id="SVGID_1_" x="15" width="478" height="333"/>
	</defs>
	<clipPath id="SVGID_2_">
		<use xlink:href="#SVGID_1_"  overflow="visible"/>
	</clipPath>
	<g opacity="0.1" clip-path="url(#SVGID_2_)">
		<path fill="#212D37" d="M416.6,287.4l0.4-162.1c5.1-3.8,8.5-9.8,8.5-16.7c0-11.3-9.3-20.5-20.6-20.5c-7.3,0-13.7,3.9-17.3,9.6
			L87.3,95.7l-0.5,196.8c-4,3.8-6.4,9.1-6.4,15c0,11.3,9.3,20.5,20.6,20.5c7.4,0,13.9-4,17.5-9.8l271,0c3.7,3.7,8.9,6,14.6,6
			c11.3,0,20.5-9.3,20.5-20.6C424.6,296.9,421.5,291.1,416.6,287.4z"/>
	</g>
	<g clip-path="url(#SVGID_2_)">
		<path fill="#C2D1DF" d="M103.1,89.5c0,0,0.8-0.2,2.2-0.7c1.4-0.4,3.5-1,6.1-2c0.7-0.2,1.3-0.5,2.1-0.7c0.4-0.1,0.7-0.3,1.1-0.4
			c0.4-0.2,0.8-0.3,1.1-0.5c1.5-0.6,3.2-1.3,5-2.1c1.7-0.8,3.6-1.7,5.6-2.6c1-0.5,1.9-1,3-1.5c0.5-0.3,1-0.5,1.5-0.8
			c0.3-0.1,0.5-0.3,0.8-0.4c0.3-0.1,0.5-0.3,0.8-0.4c1-0.6,2.1-1.2,3.2-1.8c0.5-0.3,1.1-0.6,1.6-0.9c0.5-0.3,1.1-0.7,1.6-1
			c1.1-0.7,2.2-1.4,3.3-2.1c1.1-0.7,2.2-1.5,3.4-2.2c4.6-3,9.2-6.4,13.9-10c2.3-1.9,4.7-3.7,7.1-5.7c1.2-1,2.4-1.9,3.5-3
			c1.2-1,2.4-2,3.5-3c1.2-1,2.4-2.1,3.5-3.1c1.2-1.1,2.4-2.1,3.5-3.2c2.3-2.2,4.7-4.3,6.9-6.5c2.3-2.2,4.6-4.4,6.8-6.6
			c1.1-1.1,2.2-2.2,3.3-3.4c1.1-1.1,2.2-2.2,3.3-3.4c4.4-4.5,8.6-9,12.6-13.3c4-4.4,7.9-8.6,11.6-12.7c3.7-4.1,7.1-7.9,10.3-11.5
			c3.2-3.6,6.1-6.8,8.7-9.7c2.6-2.9,4.9-5.4,6.7-7.5c1.9-2.1,3.4-3.7,4.4-4.7c1-1.1,1.6-1.7,1.6-1.7s-0.5,0.6-1.5,1.7
			c-1,1.1-2.4,2.8-4.2,4.9c-3.6,4.2-8.7,10.3-14.9,17.6c-3.1,3.6-6.5,7.6-10,11.7c-3.6,4.1-7.4,8.5-11.4,12.9c-2,2.2-4,4.5-6.2,6.7
			c-1,1.1-2.1,2.3-3.2,3.4c-1.1,1.1-2.2,2.2-3.2,3.4c-4.4,4.5-8.8,9-13.5,13.4c-2.3,2.2-4.6,4.4-7,6.5c-1.2,1.1-2.4,2.1-3.5,3.2
			c-1.2,1-2.3,2.1-3.5,3.1c-1.2,1-2.4,2-3.6,3c-1.2,1-2.4,2-3.6,2.9c-2.4,2-4.8,3.8-7.2,5.6c-4.8,3.6-9.5,6.9-14.1,9.9
			c-1.2,0.7-2.3,1.5-3.4,2.2c-1.1,0.7-2.3,1.3-3.4,2c-0.6,0.3-1.1,0.7-1.6,1c-0.6,0.3-1.1,0.6-1.7,0.9c-1.1,0.6-2.2,1.2-3.2,1.7
			c-0.3,0.1-0.5,0.3-0.8,0.4c-0.3,0.1-0.5,0.3-0.8,0.4c-0.5,0.3-1,0.5-1.6,0.8c-1,0.5-2,1-3,1.5c-2,0.9-3.9,1.7-5.7,2.5
			c-1.8,0.7-3.5,1.3-5.1,1.9c-0.4,0.1-0.8,0.3-1.2,0.4c-0.4,0.1-0.8,0.2-1.1,0.4c-0.7,0.2-1.4,0.5-2.1,0.7c-2.6,0.9-4.8,1.4-6.2,1.8
			C103.9,89.3,103.1,89.5,103.1,89.5z"/>
	</g>
	<g clip-path="url(#SVGID_2_)">
		<path fill="#C2D1DF" d="M378.2,84.4c0,0-0.5-0.5-1.5-1.3c-1-0.9-2.4-2.1-4.2-3.6c-1.8-1.6-4-3.4-6.6-5.6c-2.5-2.1-5.4-4.6-8.5-7.2
			c-3.1-2.7-6.5-5.5-10.1-8.6c-3.6-3-7.3-6.3-11.2-9.6c-3.9-3.4-7.8-6.8-11.9-10.4c-4-3.6-8.1-7.2-12.1-10.9c-4-3.7-8-7.5-11.9-11.2
			c-3.9-3.7-7.6-7.5-11.2-11.1C282-2.5,275.6-9.6,270.4-16c-1.3-1.6-2.5-3.2-3.6-4.7c-1.1-1.5-2.1-3-3.1-4.3
			c-1.9-2.8-3.3-5.3-4.4-7.4c-1.1-2.1-1.8-3.9-2.1-5.1c-0.2-0.6-0.3-1.1-0.4-1.4c-0.1-0.3-0.1-0.5-0.1-0.5s0,0.2,0.1,0.5
			c0.1,0.3,0.2,0.8,0.4,1.4c0.4,1.2,1.2,2.9,2.3,5c1.1,2.1,2.7,4.5,4.6,7.2c1.9,2.7,4.3,5.6,6.9,8.8c2.6,3.1,5.6,6.4,8.8,9.8
			c3.2,3.4,6.6,6.9,10.3,10.6c3.6,3.6,7.4,7.3,11.3,11c3.9,3.7,7.9,7.4,11.9,11.1c4,3.7,8,7.4,12,11c4,3.6,7.9,7.1,11.7,10.5
			c7.7,6.8,14.8,13.1,20.9,18.6c6.1,5.4,11.2,10,14.7,13.3c1.8,1.6,3.1,2.9,4,3.8C377.7,83.9,378.2,84.4,378.2,84.4z"/>
	</g>
	<g clip-path="url(#SVGID_2_)">
		<circle fill="#FC4E2A" cx="256.4" cy="-39.1" r="3.4"/>
	</g>
	<g clip-path="url(#SVGID_2_)">
		<g>
			<g>
				<path fill="#212D37" d="M95.6,318.8c-9.7,0-17.8-7.6-18.4-17.4c-0.3-4.7,1.3-9.3,4.3-13l2.5-3l-3.9-0.5c-0.3,0-0.6-0.3-0.6-0.7
					c0-0.3,0.1-0.4,0.2-0.5c0.1-0.1,0.2-0.2,0.5-0.2l0.1,0l2.3,0.1l-0.2-4.7l-2.3,0.4c0,0-0.1,0-0.1,0c0,0,0,0,0,0
					c-0.4,0-0.7-0.3-0.7-0.7c0-0.3,0.1-0.4,0.2-0.5c0.1-0.1,0.2-0.2,0.5-0.2c0,0,0.1,0,0.1,0l2.4,0.2l-0.2-4.8l-2.4,0.4
					c0,0-0.1,0-0.1,0c0,0,0,0,0,0c-0.4,0-0.7-0.3-0.7-0.7c0-0.4,0.3-0.7,0.7-0.7c0,0,0,0,0,0c0,0,0.1,0,0.1,0l2.4,0.2l-0.3-4.9
					l-2.4,0.5c0,0-0.1,0-0.1,0c0,0,0,0,0,0c-0.4,0-0.7-0.3-0.7-0.7c0-0.4,0.3-0.7,0.7-0.7c0,0,0,0,0,0c0,0,0.1,0,0.1,0l2.4,0.2
					l-0.2-4.9l-2.4,0.5c0,0-0.1,0-0.1,0c0,0,0,0,0,0c-0.4,0-0.7-0.3-0.7-0.7c0-0.3,0.1-0.4,0.2-0.5c0.1-0.1,0.2-0.2,0.5-0.2
					c0,0,0,0,0,0c0,0,0.1,0,0.1,0l2.4,0.2l-0.3-5l-2.4,0.5c-0.1,0-0.1,0-0.1,0c0,0,0,0,0,0c-0.4,0-0.7-0.3-0.7-0.7
					c0-0.3,0.1-0.4,0.2-0.5c0.1-0.1,0.2-0.2,0.5-0.2c0,0,0,0,0,0c0,0,0.1,0,0.1,0l2.4,0.2l-0.3-5l-2.4,0.5c-0.1,0-0.1,0-0.1,0
					c0,0,0,0,0,0c-0.4,0-0.7-0.3-0.7-0.7c0-0.3,0.1-0.4,0.2-0.5s0.2-0.2,0.5-0.2c0,0,0,0,0,0c0,0,0.1,0,0.1,0l2.5,0.3l-0.3-5
					l-2.4,0.5c-0.1,0-0.1,0-0.1,0c0,0,0,0,0,0c-0.4,0-0.7-0.3-0.7-0.7c0-0.3,0.1-0.4,0.2-0.5c0.1-0.1,0.2-0.2,0.5-0.2c0,0,0,0,0,0
					c0,0,0.1,0,0.1,0l2.5,0.3l-0.3-5.1l-2.5,0.6c-0.1,0-0.1,0-0.1,0c0,0,0,0,0,0c-0.4,0-0.7-0.3-0.7-0.7c0-0.3,0.1-0.4,0.2-0.5
					c0.1-0.1,0.2-0.2,0.5-0.2c0,0,0,0,0,0c0.1,0,0.1,0,0.1,0l2.5,0.3l-0.3-5.1l-2.5,0.6c0,0-0.1,0-0.1,0l0,0c-0.4,0-0.7-0.3-0.7-0.7
					c0-0.3,0.1-0.4,0.2-0.5c0.1-0.1,0.2-0.2,0.5-0.2c0,0,0,0,0,0c0.1,0,0.1,0,0.1,0l2.5,0.3l-0.3-5.2l-2.5,0.6c-0.1,0-0.1,0-0.1,0
					c0,0,0,0,0,0c-0.4,0-0.7-0.3-0.7-0.7c0-0.3,0.1-0.4,0.2-0.5s0.2-0.2,0.5-0.2c0,0,0,0,0,0c0.1,0,0.1,0,0.1,0l2.5,0.4l-0.3-5.2
					l-2.5,0.6c0,0-0.1,0-0.1,0l0,0c-0.4,0-0.7-0.3-0.7-0.7c0-0.3,0.1-0.4,0.2-0.5c0.1-0.1,0.2-0.2,0.5-0.2c0,0,0,0,0,0
					c0.1,0,0.1,0,0.1,0l2.6,0.4l-0.3-5.3l-2.5,0.7c0,0-0.1,0-0.1,0c0,0,0,0,0,0c-0.4,0-0.7-0.3-0.7-0.7c0-0.4,0.3-0.7,0.7-0.7
					c0,0,0,0,0,0c0.1,0,0.1,0,0.1,0l2.6,0.4l-0.3-5.3l-2.5,0.7c-0.1,0-0.1,0-0.1,0l0,0c-0.4,0-0.7-0.3-0.7-0.7
					c0-0.4,0.3-0.7,0.7-0.7c0,0,0,0,0,0c0.1,0,0.1,0,0.1,0l2.6,0.4l-0.3-5.4l-2.5,0.7c-0.1,0-0.1,0-0.2,0c0,0,0,0,0,0
					c-0.4,0-0.7-0.3-0.7-0.7c0-0.4,0.3-0.7,0.7-0.7c0,0,0,0,0,0c0.1,0,0.1,0,0.1,0l2.6,0.5l-0.3-5.5l-2.6,0.8c-0.1,0-0.1,0-0.2,0
					c0,0,0,0,0,0c-0.4,0-0.7-0.3-0.7-0.7c0-0.4,0.3-0.7,0.7-0.7c0,0,0,0,0,0c0.1,0,0.1,0,0.2,0l2.6,0.5l-0.3-5.5l-2.6,0.8
					c-0.1,0-0.1,0-0.2,0l0,0c-0.4,0-0.7-0.3-0.7-0.7c0-0.3,0.1-0.4,0.2-0.5c0.1-0.1,0.2-0.2,0.5-0.2c0,0,0,0,0,0c0.1,0,0.1,0,0.2,0
					l2.6,0.5l-0.3-5.6l-2.6,0.8c-0.1,0-0.1,0-0.2,0l0,0c-0.4,0-0.7-0.3-0.7-0.7c0-0.4,0.3-0.7,0.7-0.7c0,0,0,0,0,0
					c0.1,0,0.1,0,0.2,0l2.7,0.5l-0.3-5.6l0,0l-0.3-5.6l-0.9-16.7l-0.3-5.6l-0.3-5.6l-0.3-5.6l-0.3-6.1l-0.3-5.6l-0.3-5.6l-0.3-5.6
					l-0.3-5.6l-2.8,1.2c-0.1,0-0.2,0.1-0.2,0.1c0,0,0,0,0,0c-0.4,0-0.7-0.3-0.7-0.7c0-0.3,0.2-0.5,0.4-0.7l2.5-1.4l-2-2
					c-3.3-3.2-5.3-7.5-5.5-12.1C65,89.8,72.8,81,82.9,80.4c0.4,0,0.7,0,1.1,0c5.9,0,11.5,2.9,14.9,7.7l0.5,0.8l0.9,0.1
					c0.2,0,0.4,0.2,0.5,0.3l0.6,1.1l3.2-0.1l0.5-1.2c0.1-0.2,0.3-0.4,0.6-0.4c0,0,0,0,0,0c0.3,0,0.5,0.2,0.6,0.4l0.6,1.1l3.2-0.1
					l0.5-1.2c0.1-0.2,0.3-0.4,0.6-0.4c0,0,0,0,0,0c0.3,0,0.5,0.2,0.6,0.4l0.6,1.1l3.2-0.1l0.5-1.2c0.1-0.2,0.3-0.4,0.6-0.4
					c0,0,0,0,0,0c0.3,0,0.6,0.2,0.7,0.4l0.6,1.2l3.2-0.1l0.5-1.2c0.1-0.2,0.3-0.4,0.6-0.4c0,0,0,0,0,0c0.3,0,0.6,0.2,0.7,0.4
					l0.6,1.2l3.2-0.1l0.5-1.3c0.1-0.2,0.3-0.4,0.6-0.4c0,0,0,0,0,0c0.3,0,0.6,0.2,0.7,0.4l0.6,1.2l3.2-0.2l0.5-1.3
					c0.1-0.2,0.3-0.4,0.6-0.4c0,0,0,0,0,0c0.3,0,0.5,0.2,0.7,0.4l0.6,1.2l3.2-0.2l0.5-1.3c0.1-0.2,0.3-0.4,0.6-0.5c0,0,0,0,0,0
					c0.3,0,0.5,0.2,0.7,0.4l0.6,1.2l3.2-0.1l0.5-1.3c0.1-0.2,0.3-0.4,0.6-0.5c0,0,0,0,0,0c0.3,0,0.6,0.2,0.7,0.4l0.6,1.3l3.2-0.2
					l0.5-1.3c0.1-0.2,0.3-0.4,0.6-0.5c0,0,0,0,0,0c0.3,0,0.6,0.2,0.7,0.4l0.6,1.3l3.2-0.2l0.5-1.3c0.1-0.2,0.3-0.5,0.6-0.5
					c0,0,0,0,0,0c0.3,0,0.6,0.2,0.7,0.4l0.6,1.3l3.3-0.2l0.5-1.4c0.1-0.2,0.3-0.5,0.6-0.5c0,0,0,0,0,0c0.3,0,0.6,0.2,0.7,0.4
					l0.6,1.3l3.3-0.2L167,86c0.1-0.2,0.3-0.5,0.6-0.5c0,0,0,0,0,0c0.3,0,0.6,0.2,0.7,0.4l0.6,1.3l3.3-0.2l0.4-1.4
					c0.1-0.2,0.3-0.5,0.6-0.5c0,0,0,0,0,0c0.3,0,0.6,0.2,0.7,0.4l0.6,1.3l3.3-0.2l0.4-1.4c0.1-0.2,0.3-0.5,0.6-0.5c0,0,0,0,0,0
					c0.3,0,0.6,0.2,0.7,0.4l0.6,1.4l3.3-0.2l0.4-1.4c0.1-0.2,0.3-0.5,0.6-0.5c0,0,0,0,0,0c0.4,0,0.6,0.2,0.7,0.4l0.6,1.4l3.3-0.2
					l0.4-1.5c0.1-0.2,0.3-0.5,0.6-0.5c0,0,0,0,0,0c0.4,0,0.6,0.2,0.7,0.4l0.6,1.4l3.3-0.2l0.4-1.5c0.1-0.2,0.3-0.5,0.6-0.5
					c0,0,0,0,0,0c0.4,0,0.6,0.2,0.7,0.5l0.5,1.4l3.3-0.2l0.4-1.5c0.1-0.2,0.3-0.5,0.6-0.5c0,0,0,0,0,0c0.4,0,0.6,0.2,0.7,0.5
					l0.5,1.4l3.3-0.2l0.4-1.5c0.1-0.2,0.3-0.5,0.6-0.5c0,0,0,0,0,0c0.3,0,0.6,0.2,0.7,0.5l0.5,1.5l3.4-0.2l0.4-1.5
					c0.1-0.2,0.3-0.5,0.6-0.5c0,0,0,0,0,0c0.3,0,0.6,0.2,0.7,0.5l0.5,1.5l3.4-0.2l0.4-1.5c0.1-0.2,0.3-0.5,0.6-0.5c0,0,0,0,0,0
					c0.3,0,0.6,0.2,0.7,0.5l0.5,1.5l3.4-0.2l0.4-1.6c0.1-0.2,0.3-0.5,0.6-0.5c0,0,0,0,0,0c0.3,0,0.6,0.2,0.7,0.5l0.5,1.5l3.4-0.2
					l0.3-1.6c0.1-0.3,0.3-0.5,0.6-0.5c0,0,0,0,0,0c0.3,0,0.6,0.2,0.7,0.5l0.5,1.5l3.4-0.2l0.3-1.6c0.1-0.3,0.3-0.5,0.6-0.6
					c0,0,0,0,0,0c0.3,0,0.6,0.2,0.7,0.5l0.5,1.6l3.4-0.2l0.3-1.6c0.1-0.3,0.3-0.5,0.6-0.6c0,0,0,0,0,0c0.3,0,0.6,0.2,0.7,0.5
					l0.5,1.6l3.5-0.2l0.3-1.6c0.1-0.3,0.3-0.5,0.7-0.6c0,0,0,0,0,0c0.3,0,0.6,0.2,0.7,0.5l0.5,1.6l3.5-0.2l0.3-1.6
					c0-0.3,0.3-0.6,0.7-0.6c0,0,0,0,0,0c0.3,0,0.6,0.2,0.7,0.5l0.5,1.6l3.5-0.2l0.3-1.7c0-0.3,0.3-0.6,0.7-0.6c0,0,0,0,0,0
					c0.4,0,0.6,0.2,0.7,0.5l0.4,1.6l3.5-0.2l0.3-1.7c0-0.3,0.3-0.6,0.7-0.6c0,0,0,0,0,0c0.4,0,0.6,0.2,0.7,0.5l0.4,1.6l3.5-0.2
					L268,81c0-0.3,0.3-0.6,0.7-0.6c0,0,0,0,0,0c0.4,0,0.6,0.2,0.7,0.5l0.4,1.7l3.6-0.2l0.3-1.7c0-0.3,0.3-0.6,0.7-0.6c0,0,0,0,0,0
					c0.4,0,0.6,0.2,0.7,0.5l0.4,1.7l3.6-0.2l0.2-1.7c0-0.3,0.3-0.6,0.7-0.6c0,0,0,0,0,0c0.4,0,0.6,0.2,0.7,0.5L281,82l3.6-0.2
					l0.2-1.7c0-0.3,0.3-0.6,0.7-0.6c0,0,0,0,0,0c0.4,0,0.6,0.2,0.7,0.5l0.4,1.7l3.6-0.2l0.2-1.8c0-0.3,0.3-0.6,0.7-0.6c0,0,0,0,0,0
					c0.4,0,0.6,0.2,0.7,0.5l0.4,1.7l3.6-0.2l0.2-1.8c0-0.3,0.3-0.6,0.7-0.6c0,0,0,0,0,0c0.4,0,0.6,0.2,0.7,0.6l0.4,1.8l3.7-0.2
					l0.2-1.8c0-0.3,0.3-0.6,0.7-0.6c0,0,0,0,0,0c0.4,0,0.7,0.2,0.7,0.6l0.4,1.8l3.7-0.2l0.2-1.8c0-0.3,0.3-0.6,0.7-0.6c0,0,0,0,0,0
					c0.4,0,0.7,0.2,0.7,0.6l0.3,1.8l3.7-0.2l0.2-1.8c0-0.3,0.3-0.6,0.7-0.6c0,0,0,0,0,0c0.4,0,0.7,0.2,0.7,0.6l0.3,1.8l3.7-0.2
					l0.1-1.9c0-0.3,0.3-0.6,0.7-0.6c0,0,0,0,0,0c0.4,0,0.7,0.2,0.7,0.6l0.3,1.8L324,80l0.1-1.9c0-0.4,0.3-0.6,0.7-0.6c0,0,0,0,0,0
					c0.4,0,0.7,0.3,0.7,0.6l0.3,1.9l3.8-0.2l0.2-1.9c0-0.4,0.3-0.6,0.7-0.7c0,0,0,0,0,0c0.4,0,0.7,0.3,0.7,0.6l0.3,1.9l3.8-0.2
					l0.1-1.9c0-0.4,0.3-0.6,0.7-0.7c0,0,0,0,0,0c0.4,0,0.7,0.3,0.7,0.6l0.3,1.9l3.8-0.2l0.1-1.9c0-0.4,0.3-0.6,0.7-0.7c0,0,0,0,0,0
					c0.4,0,0.7,0.3,0.7,0.6l0.3,1.9l3.9-0.2l0.1-1.9c0-0.4,0.3-0.7,0.7-0.7c0,0,0,0,0,0c0.4,0,0.7,0.3,0.7,0.6l0.3,1.9l3.9-0.2
					l0.1-2c0-0.4,0.3-0.7,0.7-0.7c0,0,0,0,0,0c0.4,0,0.7,0.3,0.7,0.6l0.2,1.9l3.9-0.2l0.1-2c0-0.4,0.3-0.7,0.7-0.7c0,0,0,0,0,0
					c0.4,0,0.7,0.3,0.7,0.6l0.2,2l4-0.2l0-2c0-0.4,0.3-0.7,0.7-0.7c0,0,0,0,0,0c0.4,0,0.7,0.3,0.7,0.6l0.2,2l4.1-0.2l0-2.1
					c0-0.4,0.3-0.7,0.7-0.7c0,0,0,0,0,0c0.3,0,0.4,0.1,0.5,0.2l1.8,1.7l1.4-2c3.3-4.6,8.4-7.5,14-7.8c0.4,0,0.7,0,1.1,0
					c9.7,0,17.8,7.6,18.4,17.4c0.3,4.6-1.2,9.2-4.2,12.8l-0.6,0.7l0.1,0.9c0,0,0,0,0,0.1c0,0.3-0.1,0.4-0.2,0.5
					c-0.1,0.1-0.2,0.2-0.5,0.2l0.1,2.1l-0.1-2.1l-2.3-0.1l0.2,4.6c0,0,2.3-0.3,2.4-0.3c0,0,0,0,0,0c0.4,0,0.7,0.3,0.7,0.7
					c0,0.3-0.1,0.4-0.2,0.5s-0.2,0.2-0.5,0.2l0.1,2.1l-0.1-2.1l-2.3-0.1l0,2.3l0.1,2.3l2.3-0.4c0,0,0,0,0.1,0c0,0,0,0,0,0
					c0.4,0,0.7,0.3,0.7,0.7c0,0.3-0.1,0.4-0.2,0.5s-0.2,0.2-0.5,0.2l0.1,2.1l-0.1-2.1l-2.3-0.1l0,2.4l0.1,2.3l2.3-0.4c0,0,0,0,0.1,0
					c0,0,0,0,0,0c0.4,0,0.7,0.3,0.7,0.7c0,0.4-0.3,0.7-0.7,0.7l0.1,2.1l-0.1-2.1l-0.1,0l-2.4-0.1l0.3,4.7l2.3-0.4c0,0,0.1,0,0.1,0
					c0,0,0,0,0,0c0.4,0,0.7,0.3,0.7,0.7c0,0.4-0.3,0.7-0.7,0.7l0.1,2.1l-0.1-2.1c0,0-0.1,0-0.1,0l-2.3-0.2l0.2,4.8l2.4-0.4
					c0,0,0.1,0,0.1,0c0,0,0,0,0,0c0.4,0,0.7,0.3,0.7,0.7c0,0.3-0.1,0.4-0.2,0.5c-0.1,0.1-0.2,0.2-0.5,0.2c0,0,0,0,0,0
					c0,0-0.1,0-0.1,0l-2.4-0.2l0.3,4.8l2.4-0.4c0,0,0.1,0,0.1,0c0,0,0,0,0,0c0.4,0,0.7,0.3,0.7,0.7c0,0.4-0.3,0.7-0.7,0.7
					c0,0,0,0,0,0c0,0-0.1,0-0.1,0l-2.4-0.2l0.2,4.9l2.4-0.5c0,0,0.1,0,0.1,0l-0.1-2.5l0.1,2.5c0,0,0,0,0,0c0.4,0,0.7,0.3,0.7,0.7
					c0,0.3-0.1,0.4-0.2,0.5c-0.1,0.1-0.2,0.2-0.5,0.2c0,0,0,0,0,0c0,0-0.1,0-0.1,0l-2.4-0.2l0.2,4.9l2.4-0.5c0.1,0,0.1,0,0.1,0
					c0,0,0,0,0,0c0.4,0,0.7,0.3,0.7,0.7c0,0.3-0.1,0.4-0.2,0.5c-0.1,0.1-0.2,0.2-0.5,0.2l0.1,2.1l-0.1-2.1c0,0,0,0,0,0
					c0,0-0.1,0-0.1,0l-2.4-0.2l0.3,5l2.4-0.5c0.1,0,0.1,0,0.1,0c0,0,0,0,0,0c0.4,0,0.7,0.3,0.7,0.7c0,0.4-0.3,0.7-0.7,0.7l0.1,2.1
					l-0.1-2.1c0,0,0,0,0,0c0,0-0.1,0-0.1,0l-2.5-0.3l0.3,5l2.4-0.5c0.1,0,0.1,0,0.1,0c0,0,0,0,0,0c0.4,0,0.7,0.3,0.7,0.7
					c0,0.3-0.1,0.4-0.2,0.5c-0.1,0.1-0.2,0.2-0.5,0.2l0.1,2.3l-0.1-2.3c0,0,0,0,0,0c0,0-0.1,0-0.1,0l-2.5-0.3l0.3,5.1l2.4-0.6
					c0.1,0,0.1,0,0.1,0c0,0,0,0,0,0c0.4,0,0.7,0.3,0.7,0.7c0,0.3-0.1,0.4-0.2,0.5c-0.1,0.1-0.2,0.2-0.5,0.2l0.1,2.4l-0.1-2.4
					c0,0,0,0,0,0c0,0-0.1,0-0.1,0l-2.5-0.3l0.3,5.1l2.5-0.6c0,0,0.1,0,0.1,0c0,0,0,0,0,0c0.4,0,0.7,0.3,0.7,0.7
					c0,0.3-0.1,0.4-0.2,0.5c-0.1,0.1-0.2,0.2-0.5,0.2l0.1,2.1l-0.1-2.1c0,0,0,0,0,0c-0.1,0-0.1,0-0.1,0l-2.5-0.3l0.3,5.2l2.5-0.6
					c0,0,0.1,0,0.1,0c0,0,0,0,0,0c0.4,0,0.7,0.3,0.7,0.7c0,0.4-0.3,0.7-0.7,0.7l0.1,2.1l-0.1-2.1c0,0,0,0,0,0c-0.1,0-0.1,0-0.1,0
					l-2.5-0.4l0.3,5.2l2.5-0.6c0,0,0.1,0,0.1,0c0,0,0,0,0,0c0.4,0,0.7,0.3,0.7,0.7c0,0.4-0.3,0.7-0.7,0.7c0,0,0,0,0,0
					c-0.1,0-0.1,0-0.1,0l-2.6-0.4l0.3,5.3l2.5-0.7c0,0,0.1,0,0.1,0l-0.1-2.1l0.1,2.1c0,0,0,0,0,0c0.4,0,0.7,0.3,0.7,0.7
					c0,0.3-0.1,0.4-0.2,0.5c-0.1,0.1-0.2,0.2-0.5,0.2c0,0,0,0,0,0c-0.1,0-0.1,0-0.1,0l-2.6-0.4l0.3,5.3l2.5-0.7c0.1,0,0.1,0,0.1,0
					c0,0,0,0,0,0c0.4,0,0.7,0.3,0.7,0.7c0,0.4-0.3,0.7-0.7,0.7l0.1,2.1l-0.1-2.1c0,0,0,0,0,0c-0.1,0-0.1,0-0.1,0l-2.6-0.4l0.3,5.4
					l2.5-0.7c0.1,0,0.1,0,0.2,0c0,0,0,0,0,0c0.4,0,0.7,0.3,0.7,0.7c0,0.4-0.3,0.7-0.7,0.7l0.1,2.1l-0.1-2.1c0,0,0,0,0,0
					c-0.1,0-0.1,0-0.1,0l-2.6-0.5l0.3,5.4l2.6-0.7c0.1,0,0.1,0,0.2,0c0,0,0,0,0,0c0.4,0,0.7,0.3,0.7,0.7c0,0.3-0.1,0.4-0.2,0.5
					c-0.1,0.1-0.2,0.2-0.5,0.2l0.1,2.1l-0.1-2.1c0,0,0,0,0,0c-0.1,0-0.1,0-0.2,0l-2.6-0.5l0.3,5.5l2.6-0.8c0.1,0,0.1,0,0.2,0
					c0,0,0,0,0,0c0.4,0,0.7,0.3,0.7,0.7c0,0.3-0.1,0.4-0.2,0.5c-0.1,0.1-0.2,0.2-0.5,0.2c0,0,0,0,0,0c-0.1,0-0.1,0-0.2,0l-2.6-0.5
					l0.3,5.6l2.6-0.8c0.1,0,0.1,0,0.2,0c0,0,0,0,0,0c0.4,0,0.7,0.3,0.7,0.7c0,0.3-0.1,0.4-0.2,0.5c-0.1,0.1-0.2,0.2-0.5,0.2l0.2,4.2
					c0,0,0,0,0,0c0.4,0,0.7,0.3,0.7,0.7c0,0.3-0.1,0.4-0.2,0.5c-0.1,0.1-0.2,0.2-0.5,0.2l0.1,2.3l-0.1-2.3c0,0,0,0,0,0
					c-0.1,0-0.1,0-0.2,0l-2.6-0.5l2.5-0.8c0.1,0,0.1,0,0.2,0l-0.2-4.2c0,0,0,0,0,0c-0.1,0-0.1,0-0.2,0l-2.7-0.5l0.3,5.6l0,0l0.3,5.6
					l0.3,5.6l0.6,11l0,0l0.3,5.7l0.3,5.9l0,0l0.3,5.2l0,0l0.3,6.1l2.7-1.1c0.1,0,0.1,0,0.2,0l-0.1-2.2l0.1,2.2c0,0,0,0,0,0
					c0.4,0,0.7,0.3,0.7,0.7c0,0.4-0.3,0.6-0.5,0.7l-4,1l3.2,2.7c3.9,3.3,6.3,7.9,6.6,13.1c0.6,10.1-7.2,18.9-17.3,19.5
					c-0.4,0-0.7,0-1.1,0c-4.5,0-8.9-1.7-12.3-4.7l-0.6-0.6l-3.7,0.2l-0.5,1.2c-0.1,0.2-0.3,0.4-0.6,0.4c0,0,0,0,0,0
					c-0.3,0-0.6-0.2-0.7-0.4l-0.6-1.2l-3.2,0.2l-0.5,1.2c-0.1,0.2-0.3,0.4-0.6,0.4c0,0,0,0,0,0c-0.3,0-0.6-0.2-0.7-0.4l-0.6-1.2
					l-3.2,0.2l-0.5,1.2c-0.1,0.2-0.3,0.4-0.6,0.4c0,0,0,0,0,0c-0.3,0-0.6-0.2-0.7-0.4l-0.6-1.2l-3.2,0.2l-0.5,1.2
					c-0.1,0.2-0.3,0.4-0.6,0.4c0,0,0,0,0,0c-0.3,0-0.6-0.2-0.7-0.4l-0.6-1.2l-3.2,0.2l-0.5,1.3c-0.1,0.2-0.3,0.4-0.6,0.4
					c0,0,0,0,0,0c-0.3,0-0.6-0.2-0.7-0.4l-0.6-1.2l-3.2,0.2l-0.5,1.3c-0.1,0.2-0.3,0.4-0.6,0.4c0,0,0,0,0,0c-0.3,0-0.6-0.2-0.7-0.4
					l-0.6-1.2l-3.2,0.2l-0.5,1.3c-0.1,0.2-0.3,0.4-0.6,0.5c0,0,0,0,0,0c-0.4,0-0.6-0.2-0.7-0.4l-0.6-1.2l-3.2,0.2l-0.5,1.3
					c-0.1,0.2-0.3,0.4-0.6,0.5c0,0,0,0,0,0c-0.4,0-0.6-0.2-0.7-0.4l-0.6-1.2l-3.2,0.2l-0.5,1.3c-0.1,0.2-0.3,0.4-0.6,0.5
					c0,0,0,0,0,0c-0.3,0-0.5-0.2-0.7-0.4l-0.6-1.2l-3.2,0.2l-0.5,1.3c-0.1,0.2-0.3,0.4-0.6,0.5c0,0,0,0,0,0c-0.3,0-0.5-0.2-0.7-0.4
					l-0.6-1.2l-3.2,0.2l-0.5,1.3c-0.1,0.2-0.3,0.4-0.6,0.5c0,0,0,0,0,0c-0.3,0-0.5-0.2-0.7-0.4l-0.6-1.2l-3.2,0.2l-0.5,1.3
					c-0.1,0.2-0.3,0.4-0.6,0.5c0,0,0,0,0,0c-0.3,0-0.6-0.2-0.7-0.4l-0.6-1.3l-3.2,0.2l-0.5,1.3c-0.1,0.2-0.3,0.4-0.6,0.5
					c0,0,0,0,0,0c-0.3,0-0.6-0.2-0.7-0.4l-0.6-1.3l-3.2,0.2l-0.5,1.3c-0.1,0.2-0.3,0.4-0.6,0.5c0,0,0,0,0,0c-0.3,0-0.6-0.2-0.7-0.4
					l-0.6-1.3l-3.2,0.2l-0.5,1.3c-0.1,0.2-0.3,0.5-0.6,0.5c0,0,0,0,0,0c-0.3,0-0.6-0.2-0.7-0.4l-0.6-1.3l-3.2,0.2l-0.5,1.3
					c-0.1,0.2-0.3,0.5-0.6,0.5c0,0,0,0,0,0c-0.3,0-0.6-0.2-0.7-0.4l-0.6-1.3l-3.2,0.2l-0.5,1.3c-0.1,0.2-0.3,0.5-0.6,0.5
					c0,0,0,0,0,0c-0.3,0-0.6-0.2-0.7-0.4l-0.6-1.3l-3.3,0.2l-0.5,1.4c-0.1,0.2-0.3,0.5-0.6,0.5l0,0c-0.3,0-0.5-0.2-0.6-0.4l-0.6-1.3
					l-3.3,0.2l-0.5,1.4c-0.1,0.2-0.3,0.5-0.6,0.5c0,0,0,0,0,0c-0.3,0-0.6-0.2-0.7-0.4l-0.6-1.3l-3.3,0.2l-0.4,1.4
					c-0.1,0.2-0.3,0.5-0.6,0.5c0,0,0,0,0,0c-0.3,0-0.6-0.2-0.7-0.4l-0.6-1.3l-3.3,0.2l-0.4,1.4c-0.1,0.2-0.3,0.5-0.6,0.5
					c0,0,0,0,0,0c-0.3,0-0.6-0.2-0.7-0.4l-0.6-1.3l-3.3,0.2l-0.4,1.4c-0.1,0.2-0.3,0.5-0.6,0.5c0,0,0,0,0,0c-0.3,0-0.6-0.2-0.7-0.4
					l-0.6-1.3l-3.3,0.2l-0.4,1.4c-0.1,0.2-0.3,0.5-0.6,0.5c0,0,0,0,0,0c-0.3,0-0.6-0.2-0.7-0.4l-0.6-1.3l-3.3,0.2l-0.4,1.4
					c-0.1,0.2-0.3,0.5-0.6,0.5c0,0,0,0,0,0c-0.3,0-0.6-0.2-0.7-0.4l-0.6-1.3l-3.3,0.2l-0.4,1.4c-0.1,0.2-0.3,0.5-0.6,0.5
					c0,0,0,0,0,0c-0.3,0-0.6-0.2-0.7-0.4l-0.6-1.4l-3.3,0.2l-0.4,1.4c-0.1,0.2-0.3,0.5-0.6,0.5c0,0,0,0,0,0c-0.3,0-0.6-0.2-0.7-0.4
					l-0.6-1.4l-3.3,0.2l-0.4,1.4c-0.1,0.2-0.3,0.5-0.6,0.5c0,0,0,0,0,0c-0.3,0-0.6-0.2-0.7-0.4l-0.6-1.4l-3.3,0.2l-0.4,1.4
					c-0.1,0.2-0.3,0.5-0.6,0.5c0,0,0,0,0,0c-0.4,0-0.6-0.2-0.7-0.4l-0.6-1.4l-3.3,0.2l-0.4,1.4c-0.1,0.2-0.3,0.5-0.6,0.5
					c0,0,0,0,0,0c-0.4,0-0.6-0.2-0.7-0.4l-0.6-1.4l-3.3,0.2l-0.4,1.4c-0.1,0.2-0.3,0.5-0.6,0.5c0,0,0,0,0,0c-0.4,0-0.6-0.2-0.7-0.4
					l-0.6-1.4l-3.3,0.2l-0.4,1.5c-0.1,0.2-0.3,0.5-0.6,0.5c0,0,0,0,0,0c-0.4,0-0.6-0.2-0.7-0.4l-0.6-1.4l-3.3,0.2l-0.4,1.5
					c-0.1,0.2-0.3,0.5-0.6,0.5c0,0,0,0,0,0c-0.4,0-0.6-0.2-0.7-0.4l-0.6-1.4l-3.3,0.2l-0.4,1.5c-0.1,0.2-0.3,0.5-0.6,0.5
					c0,0,0,0,0,0c-0.4,0-0.6-0.2-0.7-0.4l-0.6-1.4l-3.3,0.2l-0.4,1.5c-0.1,0.2-0.3,0.5-0.6,0.5c0,0,0,0,0,0c-0.3,0-0.6-0.2-0.7-0.4
					l-0.6-1.4l-3.3,0.2l-0.4,1.5c-0.1,0.2-0.3,0.5-0.6,0.5c0,0,0,0,0,0c-0.3,0-0.6-0.2-0.7-0.5l-0.5-1.4l-3.3,0.2l-0.4,1.5
					c-0.1,0.2-0.3,0.5-0.6,0.5c0,0,0,0,0,0c-0.3,0-0.6-0.2-0.7-0.5l-0.5-1.4l-3.3,0.2l-0.4,1.5c-0.1,0.2-0.3,0.5-0.6,0.5
					c0,0,0,0,0,0c-0.3,0-0.6-0.2-0.7-0.5l-0.5-1.5l-3.4,0.2l-0.4,1.5c-0.1,0.2-0.3,0.5-0.6,0.5c0,0,0,0,0,0c-0.3,0-0.6-0.2-0.7-0.5
					l-0.5-1.5l-3.4,0.2l-0.4,1.5c-0.1,0.2-0.3,0.5-0.6,0.5c0,0,0,0,0,0c-0.3,0-0.6-0.2-0.7-0.5l-0.5-1.5l-3.4,0.2l-0.4,1.5
					c-0.1,0.2-0.3,0.5-0.6,0.5c0,0,0,0,0,0c-0.3,0-0.6-0.2-0.7-0.5l-0.5-1.5l-3.4,0.2l-0.4,1.5c-0.1,0.2-0.3,0.5-0.6,0.5
					c0,0,0,0,0,0c-0.3,0-0.6-0.2-0.7-0.5l-0.5-1.5l-3.4,0.2l-0.4,1.5c-0.1,0.2-0.3,0.5-0.6,0.5c0,0,0,0,0,0c-0.3,0-0.6-0.2-0.7-0.5
					l-0.5-1.5l-3.4,0.2l-0.4,1.5c-0.1,0.2-0.3,0.5-0.6,0.5c0,0,0,0,0,0c-0.3,0-0.6-0.2-0.7-0.5l-0.5-1.5l-3.4,0.2l-0.4,1.6
					c-0.1,0.2-0.3,0.5-0.6,0.5c0,0,0,0,0,0c-0.3,0-0.6-0.2-0.7-0.5l-0.5-1.5l-3.4,0.2l-0.3,1.6c-0.1,0.2-0.3,0.5-0.6,0.5
					c0,0,0,0,0,0c-0.3,0-0.6-0.2-0.7-0.5l-0.5-1.5l-3.4,0.2l-0.3,1.6c-0.1,0.3-0.3,0.5-0.6,0.6c0,0,0,0,0,0c-0.3,0-0.6-0.2-0.7-0.5
					l-0.5-1.5l-3.4,0.2l-0.3,1.6c-0.1,0.3-0.3,0.5-0.6,0.6c0,0,0,0,0,0c-0.3,0-0.6-0.2-0.7-0.5l-0.5-1.5l-3.4,0.2l-0.3,1.6
					c-0.1,0.3-0.3,0.5-0.6,0.6c0,0,0,0,0,0c-0.3,0-0.6-0.2-0.7-0.5l-0.5-1.5l-2.9,0.2l-0.6,1c-3.1,5.7-8.7,9.3-15.2,9.7
					C96.3,318.8,96,318.8,95.6,318.8z M410.3,257c-0.1,0-0.1,0-0.2,0l-2.1-0.6l2-0.8c0.1,0,0.1,0,0.2,0c0,0,0,0,0,0
					c0.4,0,0.7,0.3,0.7,0.7C411,256.6,410.7,257,410.3,257C410.3,257,410.3,257,410.3,257z M409.9,251.4c-0.1,0-0.1,0-0.2,0
					l-2.1-0.6l2.1-0.8c0.1,0,0.1,0,0.2,0l-0.1-2.3l0.1,2.3c0,0,0,0,0,0c0.4,0,0.7,0.3,0.7,0.7c0,0.3-0.1,0.4-0.2,0.5
					C410.4,251.2,410.2,251.4,409.9,251.4C410,251.4,409.9,251.4,409.9,251.4z M409,234.5c-0.1,0-0.1,0-0.2,0l-2.4-0.6l2.3-0.8
					c0.1,0,0.1,0,0.2,0c0,0,0,0,0,0c0.4,0,0.7,0.3,0.7,0.7C409.7,234.2,409.4,234.5,409,234.5C409,234.5,409,234.5,409,234.5z
					 M408.4,223.3c-0.1,0-0.1,0-0.2,0l-2.5-0.5l2.4-0.8c0.1,0,0.1,0,0.2,0c0,0,0,0,0,0c0.4,0,0.7,0.3,0.7,0.7
					C409.1,223,408.8,223.3,408.4,223.3C408.4,223.3,408.4,223.3,408.4,223.3z M74.7,184c-0.4,0-0.7-0.3-0.7-0.7
					c0-0.4,0.3-0.7,0.7-0.7c0,0,0,0,0,0c0.1,0,0.1,0,0.2,0l2.6,0.5l-2.5,0.8C74.9,184,74.8,184,74.7,184L74.7,184z M74.4,178.4
					c-0.4,0-0.7-0.3-0.7-0.7c0-0.4,0.3-0.7,0.7-0.7c0,0,0,0,0,0c0.1,0,0.1,0,0.2,0l2.5,0.5l-2.4,0.8
					C74.6,178.4,74.5,178.4,74.4,178.4L74.4,178.4z M74.1,172.8c-0.4,0-0.7-0.3-0.7-0.7c0-0.3,0.1-0.4,0.2-0.5
					c0.1-0.1,0.2-0.2,0.5-0.2c0,0,0,0,0,0c0.1,0,0.1,0,0.2,0l2.4,0.6l-2.3,0.8C74.2,172.8,74.2,172.8,74.1,172.8
					C74.1,172.8,74.1,172.8,74.1,172.8z M73.8,167.2c-0.4,0-0.7-0.3-0.7-0.7c0-0.3,0.1-0.4,0.2-0.5c0.1-0.1,0.2-0.2,0.5-0.2
					c0,0,0,0,0,0c0.1,0,0.1,0,0.2,0l2.3,0.6l-2.3,0.8C73.9,167.2,73.9,167.2,73.8,167.2C73.8,167.2,73.8,167.2,73.8,167.2z
					 M73.5,161.6c-0.4,0-0.7-0.3-0.7-0.7c0-0.4,0.3-0.7,0.7-0.7c0,0,0,0,0,0c0.1,0,0.1,0,0.2,0l2.3,0.6l-2.2,0.8
					C73.6,161.6,73.6,161.6,73.5,161.6L73.5,161.6z M73.2,156c-0.4,0-0.7-0.3-0.7-0.7c0-0.4,0.3-0.7,0.7-0.7c0,0,0,0,0,0
					c0.1,0,0.1,0,0.2,0l2.2,0.6l-2.1,0.8C73.3,156,73.3,156,73.2,156L73.2,156z M72.8,150.4c-0.4,0-0.7-0.3-0.7-0.7
					c0-0.4,0.3-0.7,0.7-0.7c0,0,0,0,0,0c0.1,0,0.1,0,0.2,0l2.1,0.6l-2.1,0.8C73,150.4,73,150.4,72.8,150.4L72.8,150.4z M72.6,144.8
					c-0.4,0-0.7-0.3-0.7-0.7c0-0.4,0.3-0.7,0.7-0.7c0,0,0,0,0,0c0.1,0,0.1,0,0.2,0l2.1,0.6l-2,0.8C72.7,144.7,72.6,144.8,72.6,144.8
					C72.6,144.8,72.6,144.8,72.6,144.8z M72.3,139.1c-0.4,0-0.7-0.3-0.7-0.7c0-0.4,0.3-0.7,0.7-0.7c0,0,0,0,0,0c0.1,0,0.2,0,0.2,0
					l2,0.6l-1.9,0.8C72.4,139.1,72.3,139.1,72.3,139.1C72.3,139.1,72.3,139.1,72.3,139.1z M72,133.5c-0.4,0-0.7-0.3-0.7-0.7
					c0-0.4,0.3-0.7,0.7-0.7c0,0,0,0,0,0c0.1,0,0.2,0,0.2,0l1.9,0.6l-1.9,0.8C72.1,133.5,72,133.5,72,133.5
					C72,133.5,72,133.5,72,133.5z M71.6,127.9c-0.4,0-0.7-0.3-0.7-0.7c0-0.4,0.3-0.7,0.7-0.7c0,0,0,0,0,0c0.1,0,0.2,0,0.2,0l1.9,0.6
					l-1.8,0.8C71.8,127.9,71.7,127.9,71.6,127.9L71.6,127.9z M71.3,122.3c-0.4,0-0.7-0.3-0.7-0.7c0-0.4,0.3-0.7,0.7-0.7c0,0,0,0,0,0
					c0.1,0,0.2,0,0.2,0l1.8,0.6l-1.8,0.7C71.5,122.3,71.4,122.3,71.3,122.3C71.3,122.3,71.3,122.3,71.3,122.3z"/>
			</g>
			<g>
				<path fill="#151D25" d="M388.5,69.4C388.5,69.4,388.5,69.4,388.5,69.4L388.5,69.4c8.6,0,15.8,6.8,16.3,15.4
					c0.2,4.1-1.1,8.1-3.7,11.3l-1.2,1.4l0,0.2l-2.9-0.1l0.2,4.6l0,0l0.1,1l0.2,4.6l0,0l0.2,4.7l0,0l0,0.9l0,0l0.2,4.7l0,0l0,0.9l0,0
					l0.2,4.7l0,0l0,0.8l0,0l0,0.8l0,0l0.2,3.3l0,0.6l0,0l0,0.8l0,0.1l0,0.7l0,0l0.2,4.8l0,0.1l0,0.7l0,0l0.3,4.9l0,0.1l0,0.6l0,0
					l0.3,4.9l0,0.1l0,0.6l0,0l0.3,4.9l0,0.1l0,0.6l0,0l0.3,5l0,0.1l0.2,4.3l0.1,1.2l0,0.1l0.3,5.1l0,0l0,0.5l0,0.1l0,0.4l0,0l0,0.7
					l0.2,4l0,0l0,0.4l0,0.1l0,0.4l0,0l0.3,5.1l0,0.1l0,0.3l0,0l0.3,5.2l0,0.1l0.2,4.8l0,0.6l0,0.1l0.3,5.3l0,0l0,0.2l0,0.1l0,0.1
					l0,0l0.1,2.6l0.1,2.6l0,0l0,0.1l0,0.2l0.2,3.5l0.1,1.9l0,0.2l0,0l0,0.1l0.3,5.3l0,0l0,0l0,0.1l0,0l0.3,5l0,0.5l0,0l0,0.2
					l0.1,2.2l0.2,3.2l0,0.1l0.1,1.6l0.2,4.1l0,0l0,0.1l0.2,4.5l0,0.8l0,0l0.2,3.7l0.1,2.2l0,0l0.3,5.2l0,0l0.3,5.6l0,0l0.3,5.8
					l0,0.3l0.1,2.2l-3.3,0.8l6.4,5.3c3.5,2.9,5.6,7,5.8,11.6c0.5,9-6.4,16.7-15.4,17.2c-0.3,0-0.6,0-1,0c-4,0-7.9-1.5-10.9-4.2
					l-1.3-1.2l-1.7,0.1l-1.5,0.1l-2.7,0.1l0,0l-2.4,0.1l-0.5,0l-2.7,0.1l0,0l-2.4,0.1l-0.5,0l-2.7,0.1l0,0l-2.4,0.1l-0.5,0l-2.4,0.1
					l0,0l-2.7,0.1l-0.5,0l-2.4,0.1l0,0l-2.7,0.1l-0.5,0l-2.4,0.1l-2.7,0.1l-0.5,0l-2.4,0.1l0,0l-2.7,0.1l-0.5,0l-2.4,0.1l0,0
					l-2.7,0.1l-0.5,0l-2.4,0.1l0,0l-2.7,0.1l-0.5,0l-2.4,0.1l0,0l-2.8,0.1l-0.5,0l-2.8,0.1l0,0l-2.4,0.1l-0.4,0l-2.8,0.1l0,0
					l-2.4,0.1l-0.4,0l-2.8,0.1l0,0l-2.4,0.1l-0.4,0l-2.8,0.1l0,0l-2.4,0.1l-0.4,0l-2.4,0.1l0,0l-2.8,0.2l-0.4,0l-2.4,0.1l0,0
					l-2.8,0.2l-0.4,0l-2.8,0.2v0l-2.4,0.1l-0.4,0l-2.4,0.1l-2.9,0.2l-0.4,0l-2.4,0.1l0,0l-2.9,0.2l-0.4,0l-2.9,0.2l0,0l-2.3,0.1
					l-0.4,0l-2.3,0.1l-0.2,0l-0.4,0l0,0l-2.3,0.1l-0.4,0l-2.3,0.1l-2.9,0.2l-0.4,0l-2.9,0.2l0,0l-2.3,0.1l-0.4,0l-2.9,0.2l0,0
					l-2.3,0.1l-0.3,0l-2.3,0.1l-2.9,0.2l-0.3,0l-2.3,0.1l0,0l-3,0.2l-0.3,0l-3,0.2l0,0l-2.3,0.1l-0.3,0l-3,0.2l0,0l-2.3,0.1l-0.3,0
					l-3,0.2l0,0l-2.3,0.1l-0.3,0l-3,0.2l0,0l-2.3,0.1l-0.3,0l-3,0.2l0,0l-2.3,0.1l-0.3,0l-3,0.2l0,0l-2.3,0.1l-0.3,0l-3,0.2l0,0
					l-2.3,0.1l-0.3,0l-3.1,0.2l0,0l-2.3,0.1l-0.3,0l-2.3,0.1l-0.3,0l-0.5,0l0,0l-2.3,0.1l-0.3,0l-2.3,0.1l0,0l-3.1,0.2l-0.3,0
					l-2.3,0.1l0,0l-3.1,0.2l-0.3,0l-2.3,0.1l0,0l-3.1,0.2l-0.2,0l-3.1,0.2l0,0l-2.3,0.1l-0.2,0l-3.1,0.2l0,0l-2.2,0.1l-0.2,0
					l-3.1,0.2l0,0l-2.2,0.1l-0.2,0l-3.2,0.2l0,0l-2.2,0.1l-0.2,0l-2.2,0.1l0,0l-3.2,0.2l-0.2,0l-2.2,0.1l0,0l-3.2,0.2l-0.2,0
					l-3.2,0.2l0,0l-2.2,0.1l-0.2,0l-3.2,0.2l0,0l-2.2,0.1l-0.2,0l-2.2,0.1l-3.2,0.2l-0.2,0l-3.2,0.2l0,0l-2.2,0.1l-0.1,0l-2.4,0.1
					l-1.1,2.1c-2.7,5-7.7,8.2-13.4,8.6c-0.3,0-0.6,0-1,0c-8.6,0-15.8-6.8-16.3-15.4c-0.2-4.2,1.1-8.3,3.8-11.5l5-5.9l-3.4-0.4
					l-0.1-2.2l0,0l-0.2-4.8l0,0l0-0.8l0,0l0-0.8l0,0l-0.2-4.8l0-0.1l0-0.7l0,0l-0.2-4.8l0-0.1l-0.1-1l-0.2-4.6l0-0.1l0-0.6l0,0
					l-0.3-4.9l0-0.1l0-0.6l0,0l-0.3-4.9l0-0.1l-0.1-1.3l-0.2-4.2l0-0.1l-0.3-5l0,0l0-0.5l0-0.1l0-0.4l0,0l-0.1-1.4l-0.2-3.2l0,0
					l0-0.4l0-0.1l0-0.4l0,0l-0.3-5.1l0-0.1l0-0.3l0,0l-0.3-5.2l0-0.1l-0.2-3.8l-0.1-1.7l0-0.1l-0.3-5.2l0,0l0-0.2l0-0.1l0-0.2l0-0.4
					l-0.2-4.7l0,0l0-0.2l0-0.2l-0.2-4.9l0-0.6l0-0.2l0-0.1l0,0l-0.1-1.5l-0.2-3.8l0,0l0-0.1l0-0.2l0,0l0,0l-0.3-5.4l0-0.1l0,0
					l-0.3-5.5l0-0.2l-0.1-2.7l-0.1-2.7l0,0l0,0l-0.1-2.5l-0.2-3.2l0,0l0-0.1l-0.1-2.1l-0.2-3.2l0,0l-0.2-3.6l-0.1-2.3l0,0l-0.1-1.9
					l-0.2-3.4l0-0.3l-0.3-5.8l0,0l-0.1-1.6l-0.2-3.3l-0.2-4.8l-0.1-1.6l0,0l-0.2-4.7l0-0.4l0-0.3l-0.3-6l0,0l-0.3-5.7l0,0l-0.2-3.2
					l0.5-0.3l-0.6-0.5l-0.1-1.7l-1.1,0.5l-2.3-2.2c-2.9-2.8-4.7-6.7-4.9-10.7c-0.5-9,6.4-16.7,15.4-17.2c0.3,0,0.6,0,1,0
					c5.2,0,10.2,2.5,13.2,6.8l1.1,1.5l1.1,0.1l0.9,1.6l2.6-0.1l0.6,0l2.6-0.1l0,0l2.4-0.1l0.6,0l2.6-0.1l0,0l2.4-0.1l0.6,0l2.6-0.1
					l0,0l2.4-0.1l0.5,0l2.4-0.1l0,0l2.7-0.1l0.5,0l2.4-0.1l0,0l2.7-0.1l0.5,0l2.7-0.1l0,0l2.4-0.1l0.5,0l2.8-0.1l0,0l2.4-0.1l0.5,0
					l2.4-0.1l2.8-0.1l0.4,0l2.4-0.1l0,0l2.8-0.1l0.4,0l2.5-0.1l2.7-0.1l0.4,0l2.9-0.1l0,0l2.4-0.1l0.4,0l2.9-0.1l0,0l2.3-0.1l0.4,0
					l2.9-0.1l0,0l2.3-0.1l0.3,0l3-0.1l0,0l2.3-0.1l0.3,0l2.3-0.1l0,0l3-0.1l0.3,0l2.3-0.1l0,0l3-0.1l0.3,0l3-0.1l0,0l2.3-0.1l0.3,0
					l3.1-0.1l0,0l2.3-0.1l0.3,0l3.1-0.1l0,0l2.3-0.1l0.2,0l3.1-0.1l0,0l2.2-0.1l0.2,0l3.2-0.1l0,0l2.2-0.1l0.2,0l3.2-0.1l0,0
					l2.2-0.1l0.2,0l3.2-0.1l0,0l2.2-0.1l0.2,0l3.2-0.2l0,0l2.2-0.1l0.2,0l2.2-0.1l3.3-0.2l0.2,0l2.1-0.1l0,0l3.3-0.2l0.2,0l3.3-0.2
					l0,0l2.1-0.1l0.1,0l3.4-0.2l0,0l2.1-0.1l0.1,0l3.4-0.2l0,0l2.1-0.1l0.1,0l2.1-0.1l0,0l1.2-0.1l0.2,0l0,0l2.1-0.1l0.1,0l3.1-0.1
					l2.4-0.1l0.1,0l2-0.1l0,0l0.4,0l1,0l0,0l2-0.1l0.1,0l3.1-0.1l2.4-0.1l0.1,0l2-0.1l0,0l0.9,0l0.7,0l0,0l2-0.1l0.1,0l1.9-0.1l0,0
					l3.6-0.2l0.1,0l1.9-0.1l0,0l3.6-0.2l0.1,0l1.9-0.1l0,0l3.6-0.2l0.1,0l1.9-0.1l0,0l3.7-0.2l0.1,0l1.9-0.1l0,0l3.7-0.2l0,0
					l1.8-0.1l0,0l3.7-0.2l0,0l2.7-0.1l2.9-0.1l0,0l1.8-0.1l0,0l2-0.1l0,0l1.8-0.1l0,0l1.7-0.1l0,0l3.8-0.2l0,0l1.7-0.1l0,0l3.9-0.2
					l0,0l1.7-0.1l0,0l3.9-0.2l1.7-0.1l0,0l3.9-0.2l1.6-0.1l0,0l4-0.2l4.1-0.2l0-0.6l1.1,1l2.9-4.1c2.9-4.1,7.4-6.6,12.4-6.9
					C387.8,69.4,388.2,69.4,388.5,69.4 M388.5,65.2c-0.4,0-0.8,0-1.2,0c-6.5,0.4-12.1,3.7-15.6,8.7c-0.5-0.5-1.2-0.8-2-0.8
					c0,0-0.1,0-0.1,0c-1.5,0.1-2.7,1.4-2.7,2.9l0,0c-0.1-1.4-1.3-2.6-2.8-2.6c0,0-0.1,0-0.1,0c-1.5,0.1-2.7,1.3-2.7,2.8l0,0
					c-0.2-1.4-1.4-2.5-2.8-2.5c0,0-0.1,0-0.1,0c-1.5,0.1-2.6,1.3-2.7,2.7l0,0c-0.2-1.4-1.4-2.5-2.8-2.5c0,0-0.1,0-0.1,0
					c-1.5,0.1-2.6,1.3-2.7,2.7l0,0c-0.2-1.4-1.4-2.4-2.8-2.4c0,0-0.1,0-0.1,0c-1.5,0.1-2.6,1.3-2.7,2.7l0,0
					c-0.2-1.4-1.4-2.4-2.8-2.4c0,0-0.1,0-0.1,0c-1.5,0.1-2.6,1.2-2.7,2.7l0,0c-0.2-1.4-1.4-2.4-2.8-2.4c0,0-0.1,0-0.1,0
					c-1.4,0.1-2.6,1.2-2.7,2.7l0,0c-0.2-1.4-1.4-2.4-2.8-2.4c0,0-0.1,0-0.1,0c-1.4,0.1-2.6,1.2-2.7,2.6l0,0
					c-0.2-1.3-1.4-2.3-2.8-2.3c0,0-0.1,0-0.1,0c-1.4,0.1-2.6,1.2-2.7,2.6l0,0c-0.2-1.3-1.4-2.3-2.8-2.3c0,0-0.1,0-0.1,0
					c-1.4,0.1-2.5,1.2-2.7,2.6l-0.1,0c-0.2-1.3-1.4-2.3-2.8-2.3c0,0-0.1,0-0.1,0c-1.4,0.1-2.5,1.2-2.7,2.6l-0.1,0
					c-0.3-1.3-1.4-2.3-2.8-2.3c0,0-0.1,0-0.1,0c-1.4,0.1-2.5,1.2-2.7,2.5l-0.1,0c-0.3-1.3-1.4-2.3-2.7-2.3c0,0-0.1,0-0.1,0
					c-1.4,0.1-2.5,1.2-2.6,2.5l-0.1,0c-0.3-1.3-1.4-2.2-2.7-2.2c0,0-0.1,0-0.1,0c-1.4,0.1-2.5,1.1-2.6,2.5l-0.1,0
					c-0.3-1.3-1.4-2.2-2.7-2.2c0,0-0.1,0-0.1,0c-1.4,0.1-2.5,1.1-2.6,2.5l-0.1,0c-0.3-1.3-1.4-2.2-2.7-2.2c0,0-0.1,0-0.1,0
					c-1.4,0.1-2.5,1.1-2.6,2.4l-0.1,0c-0.3-1.2-1.4-2.2-2.7-2.2c0,0-0.1,0-0.1,0c-1.4,0.1-2.5,1.1-2.6,2.4l-0.1,0
					c-0.3-1.2-1.4-2.1-2.7-2.1c0,0-0.1,0-0.1,0c-1.4,0.1-2.4,1.1-2.6,2.4l-0.1,0c-0.3-1.2-1.4-2.1-2.7-2.1c0,0-0.1,0-0.1,0
					c-1.4,0.1-2.4,1.1-2.6,2.4l-0.1,0c-0.3-1.2-1.4-2.1-2.7-2.1c0,0-0.1,0-0.1,0c-1.3,0.1-2.4,1.1-2.6,2.3l-0.1,0
					c-0.3-1.2-1.4-2.1-2.7-2.1c0,0-0.1,0-0.1,0c-1.3,0.1-2.4,1.1-2.6,2.3l-0.1,0c-0.3-1.2-1.4-2-2.7-2c0,0-0.1,0-0.1,0
					c-1.3,0.1-2.4,1-2.6,2.3l-0.2,0c-0.3-1.2-1.4-2-2.7-2c0,0-0.1,0-0.1,0c-1.3,0.1-2.4,1-2.6,2.3l-0.2,0c-0.4-1.2-1.4-2-2.7-2
					c0,0-0.1,0-0.1,0c-1.3,0.1-2.4,1-2.6,2.2l-0.2,0c-0.4-1.1-1.4-2-2.7-2c0,0-0.1,0-0.1,0c-1.3,0.1-2.3,1-2.6,2.2l-0.2,0
					c-0.4-1.1-1.4-1.9-2.7-1.9c0,0-0.1,0-0.1,0c-1.3,0.1-2.3,1-2.6,2.2l-0.2,0c-0.4-1.1-1.4-1.9-2.7-1.9c0,0-0.1,0-0.1,0
					c-1.3,0.1-2.3,1-2.6,2.2l-0.2,0c-0.4-1.1-1.4-1.9-2.7-1.9c0,0-0.1,0-0.1,0c-1.3,0.1-2.3,1-2.6,2.1l-0.2,0
					c-0.4-1.1-1.4-1.9-2.6-1.9c0,0-0.1,0-0.1,0c-1.3,0.1-2.3,1-2.6,2.1l-0.2,0c-0.4-1.1-1.4-1.9-2.6-1.9c0,0-0.1,0-0.1,0
					c-1.3,0.1-2.3,0.9-2.6,2.1l-0.3,0c-0.4-1.1-1.4-1.8-2.6-1.8c0,0-0.1,0-0.1,0c-1.2,0.1-2.3,0.9-2.6,2.1l-0.3,0
					c-0.4-1.1-1.4-1.8-2.6-1.8c0,0-0.1,0-0.1,0c-1.2,0.1-2.2,0.9-2.6,2.1l-0.3,0c-0.4-1.1-1.4-1.8-2.6-1.8c0,0-0.1,0-0.1,0
					c-1.2,0.1-2.2,0.9-2.6,2l-0.3,0c-0.4-1-1.4-1.8-2.6-1.8c0,0-0.1,0-0.1,0c-1.2,0.1-2.2,0.9-2.5,2l-0.3,0c-0.4-1-1.4-1.7-2.6-1.7
					c0,0-0.1,0-0.1,0c-1.2,0.1-2.2,0.9-2.5,2l-0.3,0c-0.4-1-1.4-1.7-2.6-1.7c0,0-0.1,0-0.1,0c-1.2,0.1-2.2,0.9-2.5,2l-0.4,0
					c-0.4-1-1.4-1.7-2.6-1.7c0,0-0.1,0-0.1,0c-1.2,0.1-2.2,0.9-2.5,1.9l-0.4,0c-0.4-1-1.4-1.7-2.6-1.7c0,0-0.1,0-0.1,0
					c-1.2,0.1-2.2,0.8-2.5,1.9l-0.4,0c-0.4-1-1.4-1.6-2.6-1.6c0,0-0.1,0-0.1,0c-1.2,0.1-2.1,0.8-2.5,1.9l-0.4,0
					c-0.5-1-1.4-1.6-2.5-1.6c0,0-0.1,0-0.1,0c-1.2,0.1-2.1,0.8-2.5,1.9l-0.4,0c-0.5-1-1.4-1.6-2.5-1.6c0,0-0.1,0-0.1,0
					c-1.2,0.1-2.1,0.8-2.5,1.8l-0.5,0c-0.5-0.9-1.4-1.6-2.5-1.6c0,0-0.1,0-0.1,0c-1.1,0.1-2.1,0.8-2.5,1.8l-0.5,0
					c-0.5-0.9-1.4-1.6-2.5-1.6c0,0-0.1,0-0.1,0c-1.1,0.1-2.1,0.8-2.5,1.8l-0.5,0c-0.5-0.9-1.4-1.5-2.5-1.5c0,0-0.1,0-0.1,0
					c-1.1,0.1-2.1,0.8-2.5,1.8l-0.5,0c-0.5-0.9-1.4-1.5-2.5-1.5c0,0-0.1,0-0.1,0c-1.1,0.1-2.1,0.8-2.5,1.7l-0.5,0
					c-0.5-0.9-1.4-1.5-2.5-1.5c0,0-0.1,0-0.1,0c-1.1,0.1-2,0.8-2.4,1.7l-0.6,0c-0.5-0.9-1.4-1.5-2.5-1.5c0,0-0.1,0-0.1,0
					c-1.1,0.1-2,0.7-2.4,1.7l-0.6,0c-0.5-0.9-1.4-1.4-2.4-1.4c0,0-0.1,0-0.1,0c-1.1,0.1-2,0.7-2.4,1.7l-0.6,0
					c-0.4-0.8-1.2-1.3-2.1-1.4c-3.8-5.2-9.9-8.5-16.7-8.5c-0.4,0-0.8,0-1.2,0C71.5,79,62.8,88.7,63.5,100c0.3,5.3,2.6,10.1,6.2,13.5
					c-0.9,0.5-1.5,1.5-1.5,2.6c0.1,1.5,1.3,2.7,2.8,2.7c0.1,0,0.1,0,0.2,0c0.3,0,0.7-0.1,1-0.2l0,0.4c-0.3-0.1-0.5-0.1-0.8-0.1
					c-0.1,0-0.1,0-0.2,0c-1.5,0.1-2.7,1.4-2.7,3c0.1,1.5,1.3,2.7,2.8,2.7c0.1,0,0.1,0,0.2,0c0.3,0,0.7-0.1,0.9-0.2l0,0.3
					c-0.3-0.1-0.5-0.1-0.8-0.1c0,0-0.1,0-0.2,0c-1.5,0.1-2.7,1.4-2.7,3c0.1,1.5,1.3,2.7,2.8,2.7c0.1,0,0.1,0,0.2,0
					c0.3,0,0.6-0.1,0.9-0.2l0,0.3c-0.3-0.1-0.5-0.1-0.8-0.1c-0.1,0-0.1,0-0.2,0c-1.5,0.1-2.7,1.4-2.7,3c0.1,1.5,1.3,2.7,2.8,2.7
					c0.1,0,0.1,0,0.2,0c0.3,0,0.6-0.1,0.9-0.2l0,0.3c-0.2-0.1-0.5-0.1-0.8-0.1c-0.1,0-0.1,0-0.2,0c-1.5,0.1-2.7,1.4-2.7,3
					c0.1,1.5,1.3,2.7,2.8,2.7c0.1,0,0.1,0,0.2,0c0.3,0,0.6-0.1,0.9-0.2l0,0.3c-0.2-0.1-0.5-0.1-0.7-0.1c-0.1,0-0.1,0-0.2,0
					c-1.5,0.1-2.7,1.4-2.7,3c0.1,1.5,1.3,2.7,2.8,2.7c0.1,0,0.1,0,0.2,0c0.3,0,0.6-0.1,0.9-0.2l0,0.3c-0.2-0.1-0.5-0.1-0.7-0.1
					c-0.1,0-0.1,0-0.2,0c-1.5,0.1-2.7,1.4-2.7,3c0.1,1.5,1.3,2.7,2.8,2.7c0.1,0,0.1,0,0.2,0c0.3,0,0.6-0.1,0.8-0.2l0,0.3
					c-0.2-0.1-0.5-0.1-0.7-0.1c-0.1,0-0.1,0-0.2,0c-1.5,0.1-2.7,1.4-2.7,3c0.1,1.5,1.3,2.7,2.8,2.7c0.1,0,0.1,0,0.2,0
					c0.3,0,0.6-0.1,0.8-0.2l0,0.2c-0.2-0.1-0.4-0.1-0.7-0.1c-0.1,0-0.1,0-0.2,0c-1.5,0.1-2.7,1.4-2.7,3c0.1,1.5,1.3,2.7,2.8,2.7
					c0.1,0,0.1,0,0.2,0c0.3,0,0.5-0.1,0.8-0.2l0,0.2c-0.2,0-0.4-0.1-0.6-0.1c-0.1,0-0.1,0-0.2,0c-1.5,0.1-2.7,1.4-2.7,3
					c0.1,1.5,1.3,2.7,2.8,2.7c0.1,0,0.1,0,0.2,0c0.3,0,0.5-0.1,0.8-0.2l0,0.2c-0.2,0-0.4-0.1-0.6-0.1c0,0-0.1,0-0.1,0
					c-1.5,0.1-2.7,1.4-2.7,3c0.1,1.5,1.3,2.7,2.8,2.7c0.1,0,0.1,0,0.2,0c0.3,0,0.5-0.1,0.7-0.1l0,0.2c-0.2,0-0.4-0.1-0.6-0.1
					c0,0-0.1,0-0.1,0c-1.5,0.1-2.7,1.4-2.7,3c0.1,1.5,1.3,2.7,2.8,2.7c0.1,0,0.1,0,0.2,0c0.3,0,0.5-0.1,0.7-0.1l0,0.2
					c-0.2,0-0.4-0.1-0.6-0.1c0,0-0.1,0-0.1,0c-1.5,0.1-2.7,1.4-2.7,3c0.1,1.5,1.3,2.7,2.8,2.7c0.1,0,0.1,0,0.2,0
					c0.2,0,0.5-0.1,0.7-0.1l0,0.2c-0.2,0-0.4-0.1-0.6-0.1c0,0-0.1,0-0.1,0c-1.5,0.1-2.7,1.4-2.7,3c0.1,1.5,1.3,2.7,2.8,2.7
					c0.1,0,0.1,0,0.2,0c0.2,0,0.5-0.1,0.7-0.1l0,0.2c-0.2,0-0.4-0.1-0.5-0.1c0,0-0.1,0-0.1,0c-1.5,0.1-2.7,1.4-2.7,3
					c0.1,1.5,1.3,2.7,2.8,2.7c0.1,0,0.1,0,0.2,0c0.2,0,0.4-0.1,0.7-0.1l0,0.2c-0.2,0-0.3,0-0.5,0c0,0-0.1,0-0.1,0
					c-1.5,0.1-2.7,1.4-2.7,3c0.1,1.5,1.3,2.7,2.8,2.7c0.1,0,0.1,0,0.2,0c0.2,0,0.4-0.1,0.6-0.1l0,0.2c-0.2,0-0.3,0-0.5,0
					c0,0-0.1,0-0.1,0c-1.5,0.1-2.7,1.4-2.7,3c0.1,1.5,1.3,2.7,2.8,2.7c0.1,0,0.1,0,0.2,0c0.2,0,0.4,0,0.6-0.1l0,0.1
					c-0.2,0-0.3,0-0.5,0c0,0-0.1,0-0.1,0c-1.5,0.1-2.7,1.4-2.7,3c0.1,1.5,1.3,2.7,2.8,2.7c0.1,0,0.1,0,0.2,0c0.2,0,0.4,0,0.6-0.1
					l0,0.1c-0.1,0-0.3,0-0.4,0c0,0-0.1,0-0.2,0c-1.5,0.1-2.7,1.4-2.7,3c0.1,1.5,1.3,2.7,2.8,2.7c0.1,0,0.1,0,0.2,0
					c0.2,0,0.4,0,0.6-0.1l0,0.1c-0.1,0-0.3,0-0.4,0c-0.1,0-0.1,0-0.2,0c-1.5,0.1-2.7,1.4-2.7,3c0.1,1.5,1.3,2.7,2.8,2.7
					c0.1,0,0.1,0,0.2,0c0.2,0,0.4,0,0.5-0.1l0,0.1c-0.1,0-0.3,0-0.4,0c-0.1,0-0.1,0-0.2,0c-1.5,0.1-2.7,1.4-2.7,3
					c0.1,1.5,1.3,2.7,2.8,2.7c0.1,0,0.1,0,0.2,0c0.2,0,0.4,0,0.5-0.1l0,0.1c-0.1,0-0.3,0-0.4,0c0,0-0.1,0-0.1,0
					c-1.5,0.1-2.7,1.4-2.7,3c0.1,1.5,1.3,2.7,2.8,2.7c0.1,0,0.1,0,0.2,0c0.2,0,0.3,0,0.5-0.1l0,0.1c-0.1,0-0.2,0-0.4,0
					c0,0-0.1,0-0.1,0c-1.5,0.1-2.7,1.4-2.7,3c0.1,1.5,1.3,2.7,2.8,2.7c0.1,0,0.1,0,0.2,0c0.2,0,0.3,0,0.5-0.1l0,0.1
					c-0.1,0-0.2,0-0.3,0c0,0-0.1,0-0.1,0c-1.5,0.1-2.7,1.4-2.7,3c0.1,1.5,1.3,2.7,2.8,2.7c0.1,0,0.1,0,0.2,0c0.2,0,0.3,0,0.5-0.1
					l0,0.1c-0.1,0-0.2,0-0.3,0c0,0-0.1,0-0.1,0c-1.5,0.1-2.7,1.4-2.7,3c0.1,1.5,1.3,2.7,2.8,2.7c0.1,0,0.1,0,0.2,0
					c0.1,0,0.3,0,0.4-0.1l0,0.1c-0.1,0-0.2,0-0.3,0c0,0-0.1,0-0.1,0c-1.5,0.1-2.7,1.4-2.7,3c0.1,1.5,1.3,2.7,2.8,2.7
					c0.1,0,0.1,0,0.2,0c0.1,0,0.3,0,0.4-0.1l0,0.1c-0.1,0-0.2,0-0.3,0c0,0-0.1,0-0.1,0c-1.5,0.1-2.7,1.4-2.7,3
					c0.1,1.5,1.3,2.7,2.8,2.7c0.1,0,0.1,0,0.2,0c0.1,0,0.3,0,0.4-0.1l0,0.1c-0.1,0-0.2,0-0.3,0c0,0-0.1,0-0.1,0
					c-1.5,0.1-2.7,1.4-2.7,3c0.1,1.5,1.3,2.7,2.8,2.7c0.1,0,0.1,0,0.2,0c0.1,0,0.2,0,0.4,0l0,0.1c-0.1,0-0.2,0-0.2,0
					c0,0-0.1,0-0.1,0c-1.5,0.1-2.7,1.4-2.7,3c0.1,1.5,1.3,2.7,2.8,2.7c0.1,0,0.1,0,0.2,0c0.1,0,0.2,0,0.3,0l0,0c-0.1,0-0.1,0-0.2,0
					c0,0-0.1,0-0.1,0c-1.5,0.1-2.7,1.4-2.7,3c0.1,1.5,1.3,2.7,2.8,2.7c0.1,0,0.1,0,0.2,0c0.1,0,0.2,0,0.3,0l0,0c-0.1,0-0.1,0-0.2,0
					c0,0-0.1,0-0.1,0c-1.5,0.1-2.7,1.4-2.7,3c0.1,1.4,1.1,2.5,2.5,2.6c-3.3,3.9-5.1,9-4.8,14.4c0.6,10.9,9.7,19.4,20.5,19.4
					c0.4,0,0.8,0,1.2,0c7.4-0.4,13.6-4.7,16.9-10.8l0.1,0c0.4,1.1,1.4,1.9,2.7,1.9c0.1,0,0.1,0,0.2,0c1.3-0.1,2.3-1,2.6-2.2l0.2,0
					c0.4,1.1,1.4,1.9,2.7,1.9c0.1,0,0.1,0,0.2,0c1.3-0.1,2.3-1,2.6-2.2l0.2,0c0.4,1.1,1.4,1.9,2.7,1.9c0.1,0,0.1,0,0.2,0
					c1.3-0.1,2.3-1,2.6-2.2l0.2,0c0.4,1.1,1.4,1.9,2.7,1.9c0.1,0,0.1,0,0.2,0c1.3-0.1,2.3-1,2.6-2.2l0.2,0c0.4,1.1,1.4,1.9,2.7,1.9
					c0.1,0,0.1,0,0.2,0c1.3-0.1,2.3-1,2.6-2.2l0.2,0c0.4,1.1,1.4,1.9,2.7,1.9c0.1,0,0.1,0,0.2,0c1.3-0.1,2.3-1,2.6-2.2l0.2,0
					c0.4,1.1,1.4,1.9,2.6,1.9c0.1,0,0.1,0,0.2,0c1.3-0.1,2.3-1,2.6-2.2l0.2,0c0.4,1.1,1.4,1.9,2.6,1.9c0.1,0,0.1,0,0.2,0
					c1.3-0.1,2.3-1,2.6-2.2l0.2,0c0.4,1.1,1.4,1.9,2.6,1.9c0.1,0,0.1,0,0.2,0c1.3-0.1,2.3-1,2.6-2.1l0.2,0c0.4,1.1,1.4,1.8,2.6,1.8
					c0.1,0,0.1,0,0.2,0c1.3-0.1,2.3-1,2.6-2.1l0.2,0c0.4,1.1,1.4,1.8,2.6,1.8c0.1,0,0.1,0,0.2,0c1.3-0.1,2.3-1,2.6-2.1l0.3,0
					c0.4,1.1,1.4,1.8,2.6,1.8c0.1,0,0.1,0,0.2,0c1.3-0.1,2.3-1,2.6-2.1l0.3,0c0.4,1.1,1.4,1.8,2.6,1.8c0.1,0,0.1,0,0.2,0
					c1.3-0.1,2.3-0.9,2.6-2.1l0.3,0c0.4,1.1,1.4,1.8,2.6,1.8c0.1,0,0.1,0,0.2,0c1.2-0.1,2.3-0.9,2.6-2.1l0.3,0
					c0.4,1.1,1.4,1.8,2.6,1.8c0.1,0,0.1,0,0.2,0c1.2-0.1,2.3-0.9,2.6-2.1l0.3,0c0.4,1.1,1.4,1.8,2.6,1.8c0.1,0,0.1,0,0.2,0
					c1.2-0.1,2.2-0.9,2.6-2.1l0.3,0c0.4,1,1.4,1.8,2.6,1.8c0.1,0,0.1,0,0.2,0c1.2-0.1,2.2-0.9,2.6-2.1l0.3,0c0.4,1,1.4,1.8,2.6,1.8
					c0.1,0,0.1,0,0.2,0c1.2-0.1,2.2-0.9,2.5-2l0.3,0c0.4,1,1.4,1.8,2.6,1.8c0.1,0,0.1,0,0.2,0c1.2-0.1,2.2-0.9,2.5-2l0.3,0
					c0.4,1,1.4,1.7,2.6,1.7c0.1,0,0.1,0,0.2,0c1.2-0.1,2.2-0.9,2.5-2l0.3,0c0.4,1,1.4,1.7,2.6,1.7c0.1,0,0.1,0,0.2,0
					c1.2-0.1,2.2-0.9,2.5-2l0.3,0c0.4,1,1.4,1.7,2.6,1.7c0.1,0,0.1,0,0.2,0c1.2-0.1,2.2-0.9,2.5-2l0.3,0c0.4,1,1.4,1.7,2.6,1.7
					c0.1,0,0.1,0,0.2,0c1.2-0.1,2.2-0.9,2.5-2l0.3,0c0.4,1,1.4,1.7,2.6,1.7c0.1,0,0.1,0,0.2,0c1.2-0.1,2.2-0.9,2.5-2l0.3,0
					c0.4,1,1.4,1.7,2.6,1.7c0.1,0,0.1,0,0.2,0c1.2-0.1,2.2-0.9,2.5-2l0.4,0c0.4,1,1.4,1.7,2.6,1.7c0.1,0,0.1,0,0.2,0
					c1.2-0.1,2.2-0.9,2.5-2l0.4,0c0.4,1,1.4,1.7,2.6,1.7c0.1,0,0.1,0,0.2,0c1.2-0.1,2.2-0.9,2.5-2l0.4,0c0.4,1,1.4,1.7,2.6,1.7
					c0.1,0,0.1,0,0.2,0c1.2-0.1,2.2-0.9,2.5-1.9l0.4,0c0.4,1,1.4,1.7,2.6,1.7c0.1,0,0.1,0,0.2,0c1.2-0.1,2.2-0.9,2.5-1.9l0.4,0
					c0.4,1,1.4,1.6,2.6,1.6c0.1,0,0.1,0,0.2,0c1.2-0.1,2.2-0.9,2.5-1.9l0.4,0c0.4,1,1.4,1.6,2.5,1.6c0.1,0,0.1,0,0.2,0
					c1.2-0.1,2.2-0.9,2.5-1.9l0.4,0c0.4,1,1.4,1.6,2.5,1.6c0.1,0,0.1,0,0.2,0c1.2-0.1,2.1-0.8,2.5-1.9l0.4,0c0.5,1,1.4,1.6,2.5,1.6
					c0.1,0,0.1,0,0.2,0c1.2-0.1,2.1-0.8,2.5-1.9l0.4,0c0.5,1,1.4,1.6,2.5,1.6c0.1,0,0.1,0,0.2,0c1.2-0.1,2.1-0.8,2.5-1.9l0.4,0
					c0.5,0.9,1.4,1.6,2.5,1.6c0.1,0,0.1,0,0.2,0c1.2-0.1,2.1-0.8,2.5-1.9l0.4,0c0.5,0.9,1.4,1.6,2.5,1.6c0.1,0,0.1,0,0.2,0
					c1.2-0.1,2.1-0.8,2.5-1.9l0.4,0c0.5,0.9,1.4,1.6,2.5,1.6c0.1,0,0.1,0,0.2,0c1.2-0.1,2.1-0.8,2.5-1.8l0.4,0
					c0.5,0.9,1.4,1.6,2.5,1.6c0.1,0,0.1,0,0.2,0c1.2-0.1,2.1-0.8,2.5-1.8l0.5,0c0.5,0.9,1.4,1.6,2.5,1.6c0.1,0,0.1,0,0.2,0
					c1.2-0.1,2.1-0.8,2.5-1.8l0.5,0c0.5,0.9,1.4,1.5,2.5,1.5c0.1,0,0.1,0,0.2,0c1.1-0.1,2.1-0.8,2.5-1.8l0.5,0
					c0.5,0.9,1.4,1.5,2.5,1.5c0.1,0,0.1,0,0.2,0c1.1-0.1,2.1-0.8,2.5-1.8l0.5,0c0.5,0.9,1.4,1.5,2.5,1.5c0.1,0,0.1,0,0.2,0
					c1.1-0.1,2.1-0.8,2.5-1.8l0.5,0c0.5,0.9,1.4,1.5,2.5,1.5c0.1,0,0.1,0,0.2,0c1.1-0.1,2.1-0.8,2.5-1.8l0.5,0
					c0.5,0.9,1.4,1.5,2.5,1.5c0.1,0,0.1,0,0.2,0c1.1-0.1,2.1-0.8,2.5-1.8l0.5,0c0.5,0.9,1.4,1.5,2.5,1.5c0.1,0,0.1,0,0.2,0
					c1.1-0.1,2.1-0.8,2.5-1.8l0.5,0c0.5,0.9,1.4,1.5,2.5,1.5c0.1,0,0.1,0,0.2,0c1.1-0.1,2.1-0.8,2.4-1.8l0.5,0
					c0.5,0.9,1.4,1.5,2.5,1.5c0.1,0,0.1,0,0.2,0c1.1-0.1,2-0.8,2.4-1.7l0.5,0c0.5,0.9,1.4,1.5,2.5,1.5c0.1,0,0.1,0,0.2,0
					c1.1-0.1,2-0.8,2.4-1.7l1.5-0.1c3.7,3.3,8.5,5.3,13.7,5.3c0.4,0,0.8,0,1.2,0c11.3-0.7,20-10.4,19.3-21.7
					c-0.3-5.9-3.1-11.1-7.3-14.6c1.3-0.3,2.2-1.5,2.1-2.9c-0.1-1.5-1.3-2.7-2.8-2.7c-0.1,0-0.1,0-0.2,0c-0.3,0-0.6,0.1-0.9,0.2
					l0-0.3c0.2,0.1,0.5,0.1,0.7,0.1c0.1,0,0.1,0,0.2,0c1.5-0.1,2.7-1.4,2.7-3c-0.1-1.5-1.3-2.7-2.8-2.7c-0.1,0-0.1,0-0.2,0
					c-0.3,0-0.6,0.1-0.9,0.2l0-0.3c0.2,0.1,0.5,0.1,0.7,0.1c0.1,0,0.1,0,0.2,0c1.5-0.1,2.7-1.4,2.7-3c-0.1-1.5-1.3-2.7-2.8-2.7
					c-0.1,0-0.1,0-0.2,0c-0.3,0-0.6,0.1-0.8,0.2l0-0.3c0.2,0.1,0.5,0.1,0.7,0.1c0.1,0,0.1,0,0.2,0c1.5-0.1,2.7-1.4,2.7-3
					c-0.1-1.5-1.3-2.7-2.8-2.7c-0.1,0-0.1,0-0.2,0c-0.3,0-0.6,0.1-0.8,0.2l0-0.2c0.2,0.1,0.4,0.1,0.7,0.1c0.1,0,0.1,0,0.2,0
					c1.5-0.1,2.7-1.4,2.7-3c-0.1-1.5-1.3-2.7-2.8-2.7c-0.1,0-0.1,0-0.2,0c-0.3,0-0.5,0.1-0.8,0.2l0-0.2c0.2,0,0.4,0.1,0.6,0.1
					c0.1,0,0.1,0,0.2,0c1.5-0.1,2.7-1.4,2.7-3c-0.1-1.5-1.3-2.7-2.8-2.7c-0.1,0-0.1,0-0.2,0c-0.3,0-0.5,0.1-0.8,0.2l0-0.2
					c0.2,0,0.4,0.1,0.6,0.1c0,0,0.1,0,0.1,0c1.5-0.1,2.7-1.4,2.7-3c-0.1-1.5-1.3-2.7-2.8-2.7c-0.1,0-0.1,0-0.2,0
					c-0.3,0-0.5,0.1-0.7,0.1l0-0.2c0.2,0,0.4,0.1,0.6,0.1c0,0,0.1,0,0.1,0c1.5-0.1,2.7-1.4,2.7-3c-0.1-1.5-1.3-2.7-2.8-2.7
					c-0.1,0-0.1,0-0.2,0c-0.3,0-0.5,0.1-0.7,0.1l0-0.2c0.2,0,0.4,0.1,0.6,0.1c0,0,0.1,0,0.1,0c1.5-0.1,2.7-1.4,2.7-3
					c-0.1-1.5-1.3-2.7-2.8-2.7c-0.1,0-0.1,0-0.2,0c-0.2,0-0.5,0.1-0.7,0.1l0-0.2c0.2,0,0.4,0.1,0.6,0.1c0,0,0.1,0,0.1,0
					c1.5-0.1,2.7-1.4,2.7-3c-0.1-1.5-1.3-2.7-2.8-2.7c-0.1,0-0.1,0-0.2,0c-0.2,0-0.5,0.1-0.7,0.1l0-0.2c0.2,0,0.4,0.1,0.5,0.1
					c0,0,0.1,0,0.1,0c1.5-0.1,2.7-1.4,2.7-3c-0.1-1.5-1.3-2.7-2.8-2.7c-0.1,0-0.1,0-0.2,0c-0.2,0-0.4,0.1-0.7,0.1l0-0.2
					c0.2,0,0.3,0,0.5,0c0,0,0.1,0,0.1,0c1.5-0.1,2.7-1.4,2.7-3c-0.1-1.5-1.3-2.7-2.8-2.7c-0.1,0-0.1,0-0.2,0c-0.2,0-0.4,0.1-0.6,0.1
					l0-0.1c0.2,0,0.3,0,0.5,0c0,0,0.1,0,0.1,0c1.5-0.1,2.7-1.4,2.7-3c-0.1-1.5-1.3-2.7-2.8-2.7c-0.1,0-0.1,0-0.2,0
					c-0.2,0-0.4,0-0.6,0.1l0-0.1c0.2,0,0.3,0,0.5,0c0,0,0.1,0,0.1,0c1.5-0.1,2.7-1.4,2.7-3c-0.1-1.5-1.3-2.7-2.8-2.7
					c-0.1,0-0.1,0-0.2,0c-0.2,0-0.4,0-0.6,0.1l0-0.1c0.1,0,0.3,0,0.4,0c0.1,0,0.1,0,0.2,0c1.5-0.1,2.7-1.4,2.7-3
					c-0.1-1.5-1.3-2.7-2.8-2.7c-0.1,0-0.1,0-0.2,0c-0.2,0-0.4,0-0.6,0.1l0-0.1c0.1,0,0.3,0,0.4,0c0.1,0,0.1,0,0.2,0
					c1.5-0.1,2.7-1.4,2.7-3c-0.1-1.5-1.3-2.7-2.8-2.7c-0.1,0-0.1,0-0.2,0c-0.2,0-0.4,0-0.5,0.1l0-0.1c0.1,0,0.3,0,0.4,0
					c0.1,0,0.1,0,0.2,0c1.5-0.1,2.7-1.4,2.7-3c-0.1-1.5-1.3-2.7-2.8-2.7c-0.1,0-0.1,0-0.2,0c-0.2,0-0.4,0-0.5,0.1l0-0.1
					c0.1,0,0.2,0,0.4,0c0,0,0.1,0,0.1,0c1.5-0.1,2.7-1.4,2.7-3c-0.1-1.5-1.3-2.7-2.8-2.7c-0.1,0-0.1,0-0.2,0c-0.2,0-0.3,0-0.5,0.1
					l0-0.1c0.1,0,0.2,0,0.4,0c0,0,0.1,0,0.1,0c1.5-0.1,2.7-1.4,2.7-3c-0.1-1.5-1.3-2.7-2.8-2.7c-0.1,0-0.1,0-0.2,0
					c-0.2,0-0.3,0-0.5,0.1l0-0.1c0.1,0,0.2,0,0.3,0c0,0,0.1,0,0.1,0c1.5-0.1,2.7-1.4,2.7-3c-0.1-1.5-1.3-2.7-2.8-2.7
					c-0.1,0-0.1,0-0.2,0c-0.2,0-0.3,0-0.5,0.1l0-0.1c0.1,0,0.2,0,0.3,0c0,0,0.1,0,0.1,0c1.5-0.1,2.7-1.4,2.7-3
					c-0.1-1.5-1.3-2.7-2.8-2.7c-0.1,0-0.1,0-0.2,0c-0.1,0-0.3,0-0.4,0.1l0-0.1c0.1,0,0.2,0,0.3,0c0,0,0.1,0,0.1,0
					c1.5-0.1,2.7-1.4,2.7-3c-0.1-1.5-1.3-2.7-2.8-2.7c-0.1,0-0.1,0-0.2,0c-0.1,0-0.3,0-0.4,0.1l0-0.1c0.1,0,0.2,0,0.3,0
					c0,0,0.1,0,0.1,0c1.5-0.1,2.7-1.4,2.7-3c-0.1-1.5-1.3-2.7-2.8-2.7c-0.1,0-0.1,0-0.2,0c-0.1,0-0.3,0-0.4,0.1l0-0.1
					c0.1,0,0.2,0,0.3,0c0,0,0.1,0,0.1,0c1.5-0.1,2.7-1.4,2.7-3c-0.1-1.5-1.3-2.7-2.8-2.7c-0.1,0-0.1,0-0.2,0c-0.1,0-0.2,0-0.4,0
					l0-0.1c0.1,0,0.2,0,0.2,0c0,0,0.1,0,0.1,0c1.5-0.1,2.7-1.4,2.7-3c-0.1-1.5-1.3-2.7-2.8-2.7c-0.1,0-0.1,0-0.2,0
					c-0.1,0-0.2,0-0.3,0l0,0c0.1,0,0.1,0,0.2,0c0,0,0.1,0,0.1,0c1.5-0.1,2.7-1.4,2.7-3c-0.1-1.5-1.3-2.7-2.8-2.7c-0.1,0-0.1,0-0.2,0
					c-0.1,0-0.2,0-0.3,0l0,0c0.1,0,0.1,0,0.2,0c0,0,0.1,0,0.1,0c1.5-0.1,2.7-1.4,2.7-3c-0.1-1.5-1.3-2.7-2.8-2.7c-0.1,0-0.1,0-0.2,0
					c-0.1,0-0.2,0-0.3,0l0,0c0,0,0.1,0,0.1,0c0.1,0,0.1,0,0.2,0c1.5-0.1,2.7-1.4,2.7-3c-0.1-1.5-1.3-2.7-2.8-2.7c-0.1,0-0.1,0-0.2,0
					c-0.1,0-0.2,0-0.3,0l0,0c0,0,0.1,0,0.1,0c0,0,0.1,0,0.1,0c1.5-0.1,2.7-1.4,2.7-3c-0.1-1.5-1.3-2.7-2.8-2.7c-0.1,0-0.1,0-0.2,0
					c-0.1,0-0.2,0-0.2,0l0,0c0,0,0.1,0,0.1,0c0,0,0.1,0,0.1,0c1.5-0.1,2.7-1.4,2.7-3c0-0.1,0-0.2,0-0.3c3.2-3.9,5-8.9,4.7-14.2
					C408.3,73.6,399.3,65.2,388.5,65.2L388.5,65.2z"/>
			</g>
		</g>
		<g>
			<g>
				<path fill="#C2D1DF" d="M113,293.7c-5.1,0-9.2-4-9.5-9l-8.8-171.2c-0.1-2.6,0.7-5,2.5-6.9c1.7-1.9,4.1-3,6.6-3.1L368.7,93
					c0.1,0,0.3,0,0.4,0c5.1,0,9.2,4,9.5,9l8.5,167.2c0.3,5.2-3.8,9.7-9,10l-264.6,14.5C113.4,293.7,113.2,293.7,113,293.7z"/>
			</g>
			<g>
				<path fill="#151D25" d="M369.1,94.1c4.5,0,8.2,3.5,8.4,8l8.5,167.2c0.2,4.6-3.3,8.6-8,8.9l-264.6,14.5c-0.2,0-0.3,0-0.5,0
					c-4.5,0-8.2-3.5-8.4-8l-8.8-171.2c-0.2-4.7,3.4-8.7,8.1-8.9l264.8-10.5C368.8,94.1,369,94.1,369.1,94.1 M369.1,92L369.1,92
					c-0.1,0-0.3,0-0.4,0l-264.8,10.5c-2.8,0.1-5.5,1.3-7.4,3.4c-1.9,2.1-2.9,4.8-2.7,7.7l8.8,171.2c0.3,5.6,4.9,10,10.5,10
					c0.2,0,0.4,0,0.6,0l264.6-14.5c5.8-0.3,10.3-5.3,10-11.1L379.6,102C379.3,96.4,374.7,92,369.1,92L369.1,92z"/>
			</g>
		</g>
	</g>
	<g opacity="0.31" clip-path="url(#SVGID_2_)">
		<path fill="#ADC2D1" d="M102.6,245.3l-6.8-131.9c-0.2-4.7,3.4-8.7,8.1-8.9l264.8-10.5c4.6-0.2,8.5,3.4,8.8,8l0,0.1
			c0.1,2.9,1.5,33.4,1.5,33.4s-82.9,36.5-127.8,53.3C183.9,214.2,102.6,245.3,102.6,245.3z"/>
	</g>
	<g opacity="0.1" clip-path="url(#SVGID_2_)">
		<g>
			<path fill="#212D37" d="M488.2,243.1c0,1.2-0.9,2.1-2.1,2l-29.5-1.5c-1.2-0.1-2.1-1.1-2.1-2.2l-0.4-48c0-1.2,0.9-2.1,2.1-2.1
				l29.9,0.4c1.2,0,2.1,1,2.1,2.1V243.1z"/>
		</g>
	</g>
	<g clip-path="url(#SVGID_2_)">
		<path fill="#ADC2D1" d="M486.9,241.9c0,1.2-0.9,2.1-2.1,2l-29.5-1.5c-1.2-0.1-2.1-1.1-2.1-2.2l-0.4-48c0-1.2,0.9-2.1,2.1-2.1
			l29.9,0.4c1.2,0,2.1,1,2.1,2.1V241.9z"/>
	</g>
	<g clip-path="url(#SVGID_2_)">
		<g>
			<path fill="#E7EDF4" d="M459.5,201.9c0,0,0.3-0.2,0.7-0.3c0.2-0.1,0.5-0.2,0.8-0.2c0.3-0.1,0.7-0.1,1.1-0.2
				c0.4,0,0.8-0.1,1.2-0.1c0.4,0,0.9,0.2,1.4,0.3c0.5,0.1,1,0.2,1.5,0.1c0.5,0,1-0.2,1.5-0.4c0.5-0.2,1-0.4,1.6-0.5
				c0.5-0.1,1-0.2,1.5-0.3c0.5-0.1,1-0.1,1.5-0.1c0.5,0,0.9,0.1,1.3,0.2c0.2,0,0.4,0.1,0.6,0.1c0.2,0.1,0.4,0.1,0.5,0.2
				c0.3,0.1,0.6,0.2,0.8,0.3c0.5,0.2,0.7,0.4,0.7,0.4l0,0.2c0,0-0.3,0.1-0.7,0.3c-0.2,0.1-0.5,0.1-0.8,0.2c-0.2,0-0.3,0.1-0.5,0.1
				c-0.2,0-0.4,0.1-0.6,0.1c-0.4,0.1-0.8,0.1-1.2,0.2c-0.4,0-0.9,0.1-1.4,0c-0.5,0-1-0.1-1.5-0.1c-0.5,0-1.1-0.1-1.6-0.2
				c-0.5-0.1-1.1-0.2-1.6-0.1c-0.5,0-1,0.2-1.5,0.3c-0.5,0.2-1,0.4-1.4,0.4c-0.5,0.1-0.9,0-1.3,0c-0.4,0-0.8-0.1-1.1-0.2
				c-0.3-0.1-0.6-0.2-0.8-0.3c-0.5-0.2-0.7-0.4-0.7-0.4L459.5,201.9z"/>
		</g>
		<g>
			<path fill="#E7EDF4" d="M460,209c0,0,0.2-0.2,0.5-0.4c0.3-0.2,0.7-0.4,1.2-0.5c0.3-0.1,0.5-0.1,0.8-0.1c0.3,0,0.6,0.2,0.9,0.3
				c0.3,0.1,0.7,0.2,1,0.2c0.3,0,0.7-0.2,1-0.3c0.3-0.2,0.7-0.4,1-0.4c0.3-0.1,0.7-0.2,1-0.3c0.6-0.1,1.2-0.1,1.8,0
				c0.5,0.1,1,0.3,1.3,0.4c0.3,0.2,0.5,0.3,0.5,0.3v0.2c0,0-0.2,0.2-0.5,0.3c-0.3,0.2-0.7,0.4-1.2,0.6c-0.2,0.1-0.5,0.2-0.8,0.2
				c-0.3,0.1-0.6,0.1-0.9,0.1c-0.3,0-0.7,0-1-0.1c-0.3,0-0.7-0.1-1.1-0.3c-0.4-0.1-0.7-0.2-1.1-0.2c-0.3,0-0.7,0.1-1,0.3
				c-0.3,0.2-0.6,0.4-0.9,0.4c-0.3,0.1-0.6,0-0.8,0c-0.5-0.1-1-0.2-1.3-0.4c-0.3-0.2-0.5-0.3-0.5-0.3L460,209z"/>
		</g>
		<g>
			<path fill="#E7EDF4" d="M470.9,208.2c0,0,0,0,0.1-0.1c0.1-0.1,0.2-0.1,0.3-0.2c0.3-0.2,0.6-0.4,1.1-0.4c0.2,0,0.5-0.1,0.7,0
				c0.3,0,0.5,0.2,0.8,0.4c0.3,0.2,0.6,0.3,0.9,0.2c0.3,0,0.6-0.1,0.9-0.3c0.3-0.1,0.6-0.3,0.9-0.4c0.3-0.1,0.6-0.1,0.9-0.2
				c0.6-0.1,1.1,0,1.6,0.2c0.2,0.1,0.4,0.2,0.6,0.2c0.2,0.1,0.3,0.2,0.5,0.3c0.3,0.2,0.4,0.3,0.4,0.3v0.2c0,0-0.2,0.1-0.4,0.3
				c-0.1,0.1-0.3,0.2-0.5,0.3c-0.2,0.1-0.4,0.2-0.6,0.2c-0.5,0.1-1,0.3-1.6,0.2c-0.3,0-0.6-0.1-0.9-0.2c-0.3-0.1-0.6-0.2-0.9-0.4
				c-0.3-0.2-0.6-0.3-0.9-0.3c-0.3,0-0.6,0.1-0.9,0.2c-0.3,0.2-0.6,0.3-0.8,0.4c-0.3,0.1-0.5,0-0.7,0c-0.5-0.1-0.8-0.3-1.1-0.4
				c-0.1-0.1-0.2-0.2-0.3-0.2c-0.1-0.1-0.1-0.1-0.1-0.1V208.2z"/>
		</g>
		<g>
			<path fill="#E7EDF4" d="M458.6,217.1c0,0,0-0.1,0-0.2c0-0.1,0-0.2,0-0.4c0-0.2,0-0.3,0.2-0.6c0.1-0.1,0.1-0.2,0.2-0.3
				c0.1-0.1,0.2-0.2,0.3-0.3c0.2-0.2,0.5-0.4,0.9-0.4c0.4-0.1,0.8,0.1,1.1,0.2c0.2,0.1,0.3,0.1,0.5,0.2c0.2,0.1,0.3,0.1,0.5,0.1
				c0.2,0,0.3,0,0.5,0c0.2,0,0.4-0.1,0.5-0.1c0.4-0.1,0.7-0.1,1-0.1c0.3,0,0.6,0,0.9,0c0.3,0,0.5,0.1,0.8,0.1
				c0.2,0.1,0.5,0.1,0.7,0.2c0.2,0.1,0.4,0.1,0.6,0.2c0.1,0,0.2,0.1,0.3,0.1c0.1,0,0.2,0.1,0.2,0.1c0.1,0.1,0.3,0.1,0.3,0.2
				c0.1,0,0.1,0.1,0.1,0.1l0.1,0.2c0,0,0,0-0.1,0.1c-0.1,0.1-0.2,0.2-0.3,0.3c-0.1,0.1-0.3,0.2-0.5,0.3c-0.2,0.1-0.5,0.2-0.7,0.3
				c-0.3,0.1-0.6,0.1-0.9,0.1c-0.3,0-0.6-0.1-0.9-0.2c-0.3-0.1-0.6-0.2-0.9-0.4c-0.3-0.1-0.6-0.4-0.8-0.6c-0.3-0.2-0.6-0.4-0.9-0.4
				c-0.1,0-0.3,0-0.4,0c-0.1,0-0.3,0.1-0.4,0.2c-0.1,0.1-0.2,0.2-0.3,0.3c-0.1,0.1-0.2,0.2-0.3,0.2c-0.1,0.1-0.2,0.1-0.3,0.1
				c-0.1,0-0.2,0.1-0.3,0.1c0,0-0.1,0-0.1,0c0,0-0.1,0-0.1,0c-0.1,0-0.2,0-0.2,0.1c-0.2,0-0.4,0.1-0.5,0.1c-0.2,0-0.3,0.1-0.4,0.1
				c-0.1,0-0.2,0-0.2,0L458.6,217.1z"/>
		</g>
		<g>
			<path fill="#E7EDF4" d="M472.6,216.2c0,0,0,0,0.1-0.1c0.1-0.1,0.2-0.2,0.3-0.3c0.2-0.1,0.4-0.2,0.6-0.3c0.2-0.1,0.5-0.2,0.7-0.2
				c0.3,0,0.6-0.1,0.9,0c0.3,0,0.6,0.2,1,0.4c0.3,0.2,0.7,0.3,1,0.3c0.4,0,0.7-0.1,1.1-0.2c0.4-0.1,0.7-0.3,1.1-0.3
				c0.4,0,0.7-0.1,1-0.1c0.3,0,0.7,0,1,0c0.3,0.1,0.6,0.1,0.9,0.2c0.5,0.2,1,0.4,1.3,0.7c0.1,0.1,0.1,0.1,0.2,0.2
				c0.1,0.1,0.1,0.1,0.1,0.2c0.1,0.1,0.1,0.1,0.1,0.1l-0.1,0.2c0,0-0.1,0-0.1,0.1c-0.1,0-0.2,0.1-0.4,0.1c-0.1,0-0.2,0.1-0.3,0.1
				c-0.1,0-0.2,0.1-0.3,0.1c-0.2,0.1-0.5,0.1-0.7,0.2c-0.5,0.1-1.1,0.2-1.8,0c-0.3-0.1-0.7-0.1-1-0.2c-0.3-0.1-0.7-0.2-1-0.4
				c-0.4-0.2-0.7-0.3-1.1-0.3c-0.3,0-0.7,0.1-1,0.2c-0.3,0.2-0.7,0.3-1,0.4c-0.3,0.1-0.6,0-0.9,0c-0.3,0-0.5-0.1-0.7-0.2
				c-0.2-0.1-0.4-0.2-0.5-0.2c-0.2-0.1-0.3-0.2-0.4-0.2c-0.1-0.1-0.1-0.1-0.1-0.1L472.6,216.2z"/>
		</g>
		<g>
			<path fill="#E7EDF4" d="M460,225.5c0,0,0.2-0.2,0.6-0.4c0.4-0.2,0.9-0.4,1.5-0.5c0.3,0,0.7-0.1,1-0.1c0.4,0,0.7,0.2,1.1,0.3
				c0.4,0.1,0.8,0.2,1.2,0.2c0.4,0,0.8-0.1,1.3-0.3c0.4-0.2,0.8-0.3,1.3-0.4c0.4-0.1,0.8-0.1,1.2-0.2c0.8-0.1,1.5,0,2.2,0.1
				c0.6,0.1,1.2,0.3,1.5,0.5c0.4,0.2,0.6,0.3,0.6,0.3l0,0.2c0,0-0.2,0.2-0.6,0.3c-0.4,0.2-0.9,0.4-1.5,0.6c-0.6,0.2-1.4,0.3-2.1,0.2
				c-0.4,0-0.8-0.1-1.2-0.1c-0.4,0-0.8-0.2-1.3-0.3c-0.4-0.1-0.8-0.2-1.3-0.2c-0.4,0-0.8,0.1-1.2,0.3c-0.4,0.2-0.8,0.3-1.1,0.4
				c-0.4,0.1-0.7,0-1,0c-0.6-0.1-1.2-0.2-1.5-0.4c-0.4-0.2-0.6-0.3-0.6-0.3L460,225.5z"/>
		</g>
		<g>
			<path fill="#E7EDF4" d="M460.8,232.6c0,0,0,0,0.1-0.1c0-0.1,0.1-0.1,0.1-0.2c0.1-0.1,0.1-0.2,0.2-0.3c0.1-0.1,0.2-0.1,0.3-0.2
				c0.1,0,0.2-0.1,0.4,0c0.1,0,0.3,0.2,0.4,0.4c0.1,0.2,0.3,0.3,0.4,0.2c0.1,0,0.3-0.1,0.4-0.3c0.1-0.1,0.3-0.3,0.4-0.4
				c0.1-0.1,0.3-0.1,0.4-0.2c0.3-0.1,0.5,0,0.7,0.2c0.1,0.1,0.2,0.2,0.3,0.2c0.1,0.1,0.2,0.2,0.2,0.3c0.1,0.1,0.1,0.2,0.1,0.2
				c0,0.1,0.1,0.1,0.1,0.1v0.2c0,0,0,0-0.1,0.1c0,0.1-0.1,0.1-0.1,0.2c-0.1,0.1-0.1,0.2-0.2,0.3c-0.1,0.1-0.2,0.2-0.3,0.2
				c-0.2,0.1-0.5,0.3-0.7,0.2c-0.1,0-0.3-0.1-0.4-0.2c-0.1-0.1-0.3-0.2-0.4-0.4c-0.1-0.2-0.3-0.3-0.4-0.3c-0.1,0-0.3,0.1-0.4,0.2
				c-0.1,0.2-0.3,0.3-0.4,0.4c-0.1,0.1-0.2,0-0.4,0c-0.1,0-0.2-0.1-0.3-0.2c-0.1-0.1-0.2-0.2-0.2-0.3c-0.1-0.1-0.1-0.2-0.1-0.2
				c0-0.1-0.1-0.1-0.1-0.1V232.6z"/>
		</g>
		<g>
			<path fill="#E7EDF4" d="M468.9,232.6c0,0,0,0,0.1-0.1c0.1,0,0.1-0.1,0.2-0.2c0,0,0,0,0.1-0.1c0,0,0.1,0,0.1-0.1
				c0.1,0,0.1-0.1,0.2-0.1c0.1-0.1,0.3-0.1,0.4-0.2c0.2,0,0.3-0.1,0.5,0c0.2,0.1,0.4,0.2,0.5,0.4c0.2,0.2,0.4,0.3,0.6,0.3
				c0.2,0,0.4-0.1,0.6-0.2c0.2-0.1,0.4-0.3,0.6-0.3c0.2-0.1,0.4-0.1,0.6-0.1c0.4-0.1,0.8,0.1,1.1,0.2c0.2,0.1,0.3,0.2,0.4,0.3
				c0.1,0.1,0.2,0.2,0.3,0.3c0.1,0.1,0.1,0.2,0.2,0.3c0.1,0.1,0.1,0.1,0.1,0.1l-0.1,0.2c0,0,0,0-0.1,0.1c0,0.1-0.1,0.1-0.2,0.2
				c-0.1,0.1-0.2,0.2-0.3,0.2c-0.1,0.1-0.3,0.2-0.4,0.2c-0.3,0.1-0.7,0.2-1.1,0.1c-0.2-0.1-0.4-0.1-0.6-0.2
				c-0.2-0.1-0.4-0.2-0.6-0.4c-0.2-0.2-0.4-0.3-0.6-0.3c-0.2,0-0.4,0.1-0.6,0.2c-0.2,0.1-0.4,0.3-0.6,0.3c-0.2,0-0.4,0-0.5-0.1
				c-0.2-0.1-0.3-0.1-0.4-0.2c-0.1,0-0.1-0.1-0.2-0.1c0,0-0.1,0-0.1-0.1c0,0-0.1-0.1-0.1-0.1c-0.1-0.1-0.2-0.2-0.2-0.3
				c0-0.1,0-0.1,0-0.1L468.9,232.6z"/>
		</g>
		<g>
			<path fill="#E7EDF4" d="M473.9,233.1c0,0,0,0,0.1-0.1c0.1-0.1,0.1-0.1,0.2-0.2c0.2-0.2,0.5-0.4,0.9-0.4c0.2,0,0.4-0.1,0.6,0
				c0.2,0,0.4,0.2,0.6,0.4c0.2,0.2,0.5,0.3,0.7,0.2c0.2,0,0.5-0.1,0.7-0.3c0.2-0.1,0.5-0.3,0.7-0.4c0.2-0.1,0.5-0.1,0.7-0.2
				c0.4-0.1,0.9,0,1.2,0.2c0.2,0.1,0.3,0.2,0.5,0.2c0.1,0.1,0.3,0.2,0.4,0.3c0.2,0.2,0.3,0.3,0.3,0.3v0.2c0,0-0.1,0.1-0.3,0.3
				c-0.1,0.1-0.2,0.2-0.4,0.3c-0.1,0.1-0.3,0.2-0.5,0.2c-0.4,0.1-0.8,0.3-1.2,0.2c-0.2,0-0.5-0.1-0.7-0.2c-0.2-0.1-0.5-0.2-0.7-0.4
				c-0.2-0.2-0.5-0.3-0.7-0.3c-0.2,0-0.5,0.1-0.7,0.2c-0.2,0.2-0.4,0.3-0.6,0.4c-0.2,0.1-0.4,0-0.6,0c-0.4-0.1-0.7-0.3-0.9-0.4
				c-0.1-0.1-0.2-0.2-0.2-0.2c-0.1-0.1-0.1-0.1-0.1-0.1V233.1z"/>
		</g>
		<g>
			<path fill="none" d="M477.2,226.4"/>
		</g>
	</g>
	<g clip-path="url(#SVGID_2_)">
		<defs>
			<path id="SVGID_3_" d="M378.1,278.2l-264.6,14.5c-4.7,0.3-8.7-3.3-8.9-8l-8.8-171.2c-0.2-4.7,3.4-8.7,8.1-8.9l264.8-10.5
				c4.6-0.2,8.5,3.4,8.8,8l8.5,167.2C386.3,274,382.7,277.9,378.1,278.2z"/>
		</defs>
		<clipPath id="SVGID_4_">
			<use xlink:href="#SVGID_3_"  overflow="visible"/>
		</clipPath>
		<g clip-path="url(#SVGID_4_)">
			<path fill="#3973AD" d="M99.8,237.4c18.7,16.1,62.8,17.7,83.9,7.4c12.6-6.1,18.9-15.2,26.5-25.4c14.3,13.7,38.3,25.4,58.7,24.1
				c20.5-1.3,41.1-15.2,53.9-31.9c13.4,7.1,24.7,13.8,40.3,15.9c8.9,1.2,17.1,0.9,26-0.1l3.4,52.1l-291.4,15.9L99.8,237.4z"/>
		</g>
		<g clip-path="url(#SVGID_4_)">
			<path fill="#3982C5" d="M98.8,241.4c18.7,16.1,62.8,17.7,83.9,7.4c12.6-6.1,17.3-17.5,27.4-25.4c14.3,13.7,37.5,25.4,57.9,24.1
				c20.5-1.3,40.6-19.2,54.8-32.7c13.4,7.1,23.9,14.6,39.5,16.7c8.9,1.2,17.1,0.9,26-0.1l3.4,52.1l-291.4,15.9L98.8,241.4z"/>
		</g>
	</g>
	<g opacity="0.1" clip-path="url(#SVGID_2_)">
		<path d="M196.3,174.7c-1.5,0.1-3,0.3-4.5,0.7c0-0.5,0-1,0-1.6c-0.7-12.6-11.4-22.3-24-21.6c-10.6,0.6-19.1,8.3-21.1,18.2
			c-3.2-1.8-7-2.8-11-2.6c-10.6,0.6-18.8,9.1-19.2,19.5c-2.3-0.9-4.8-1.3-7.4-1.1c-10.1,0.5-17.9,9.2-17.4,19.3
			c0.5,9.4,7.9,16.7,17.1,17.3l0,0.1l89.1-4.8l0,0c0.3,0,0.6,0,0.9,0c12-0.6,21.2-10.9,20.6-22.9
			C218.6,183.3,208.3,174.1,196.3,174.7z"/>
	</g>
	<g clip-path="url(#SVGID_2_)">
		<path fill="#FFFFFF" d="M194.6,171.3c-1.5,0.1-3,0.3-4.5,0.7c0-0.5,0-1,0-1.6c-0.7-12.6-11.4-22.3-24-21.6
			c-10.6,0.6-19.1,8.3-21.1,18.2c-3.2-1.8-7-2.8-11-2.6c-10.6,0.6-18.8,9.1-19.2,19.5c-2.3-0.9-4.8-1.3-7.4-1.1
			c-10.1,0.5-17.9,9.2-17.4,19.3c0.5,9.4,7.9,16.7,17.1,17.3l0,0.1l89.1-4.8l0,0c0.3,0,0.6,0,0.9,0c12-0.6,21.2-10.9,20.6-22.9
			C216.9,179.9,206.6,170.7,194.6,171.3z"/>
	</g>
	<g clip-path="url(#SVGID_2_)">
		<path fill="#FFFFFF" d="M263,152C263,152,263,152,263,152C262.9,152,262.9,152,263,152c-0.3-3.4-3.1-6-6.5-5.8
			c-2.7,0.1-5,2.1-5.6,4.6c-0.7-0.4-1.6-0.6-2.4-0.6c-2.4,0.1-4.3,2.2-4.2,4.6c0,0.2,0,0.3,0.1,0.5c-0.7-0.3-1.5-0.5-2.3-0.4
			c-2.6,0.1-4.6,2.4-4.5,5c0.1,2.6,2.4,4.6,5,4.5l0,0l21.1-1.1c3.1-0.2,5.5-2.8,5.3-5.9S266.1,151.8,263,152z"/>
	</g>
	<g clip-path="url(#SVGID_2_)">
		<circle fill="#FFCD00" cx="315.1" cy="136.9" r="27.8"/>
	</g>
	<g opacity="5.000000e-02" clip-path="url(#SVGID_2_)">
		<g>
			<path d="M316.6,164.6c14.3-0.8,25.5-12.3,26.2-26.3c-3.3-4.1-8.4-6.7-14.1-6.3c-9.3,0.5-16.4,8.4-15.9,17.7
				c0,0.4,0.1,0.8,0.1,1.2c-1.1-0.2-2.2-0.2-3.3-0.2c-5.3,0.3-9.9,3.2-12.6,7.3C302.3,162.5,309.2,165,316.6,164.6z"/>
		</g>
	</g>
	<g opacity="0.1" clip-path="url(#SVGID_2_)">
		<path d="M298.7,174.5c0.5,8.8,8,15.6,16.9,15.1c0.2,0,0.5,0,0.7-0.1l0,0l65.5-3.5l0-0.1c6.6-1.2,11.5-7.1,11.1-14
			c-0.4-7.5-6.8-13.2-14.2-12.8c-1.9,0.1-3.7,0.6-5.3,1.4c-1.1-7.5-7.8-13.1-15.6-12.7c-2.9,0.2-5.6,1.2-7.9,2.7
			c-2.3-7.1-9.1-12.1-16.9-11.6c-9.3,0.5-16.4,8.4-15.9,17.7c0,0.4,0.1,0.8,0.1,1.2c-1.1-0.2-2.2-0.2-3.3-0.2
			C305,158.1,298.2,165.6,298.7,174.5z"/>
	</g>
	<g clip-path="url(#SVGID_2_)">
		<path fill="#FFFFFF" d="M295.4,171.7c0.5,8.8,8,15.6,16.9,15.1c0.2,0,0.5,0,0.7-0.1l0,0l65.5-3.5l0-0.1c6.6-1.2,11.5-7.1,11.1-14
			c-0.4-7.5-6.8-13.2-14.2-12.8c-1.9,0.1-3.7,0.6-5.3,1.4c-1.1-7.5-7.8-13.1-15.6-12.7c-2.9,0.2-5.6,1.2-7.9,2.7
			c-2.3-7.1-9.1-12.1-16.9-11.6c-9.3,0.5-16.4,8.4-15.9,17.7c0,0.4,0.1,0.8,0.1,1.2c-1.1-0.2-2.2-0.2-3.3-0.2
			C301.7,155.3,294.9,162.8,295.4,171.7z"/>
	</g>
</g>
</svg>
