<?xml version="1.0" encoding="utf-8"?>
<!-- Generator: Adobe Illustrator 17.1.0, SVG Export Plug-In . SVG Version: 6.00 Build 0)  -->
<!DOCTYPE svg PUBLIC "-//W3C//DTD SVG 1.1//EN" "http://www.w3.org/Graphics/SVG/1.1/DTD/svg11.dtd">
<svg version="1.1" id="Layer_1" xmlns="http://www.w3.org/2000/svg" xmlns:xlink="http://www.w3.org/1999/xlink" x="0px" y="0px"
	 viewBox="0 0 640 1136" enable-background="new 0 0 640 1136" xml:space="preserve">
<g opacity="0.2">
	<path d="M417,1070.4c-115.6-8.3-205.1-89.5-199.6-180.3c1.4-11,2.8-22,6.9-33L44,756.6c-13.8-8.3-16.5-23.4-6.9-33
		c8.3-9.6,23.4-12.4,37.2-6.9l200.9,70.2c41.3-33,100.5-52.3,165.2-48.2C556,746.9,645.5,828.1,640,919
		C633.1,1011.2,534,1078.6,417,1070.4z"/>
</g>
<g>
	<path fill="#8750B9" d="M509.2,318.9c0,140.4-114.2,254.6-254.6,254.6c-17.9,0-34.4-1.4-50.9-5.5L90.8,741.4
		c-11,17.9-34.4,22-50.9,11c-15.1-9.6-20.6-27.5-15.1-44l66.1-195.4C35.8,467.5,0,397.3,0,318.9C0,178.5,114.2,64.3,254.6,64.3
		S509.2,178.5,509.2,318.9z"/>
</g>
</svg>
