<?xml version="1.0" encoding="utf-8"?>
<!-- Generator: Adobe Illustrator 17.1.0, SVG Export Plug-In . SVG Version: 6.00 Build 0)  -->
<!DOCTYPE svg PUBLIC "-//W3C//DTD SVG 1.1//EN" "http://www.w3.org/Graphics/SVG/1.1/DTD/svg11.dtd">
<svg version="1.1" id="Layer_1" xmlns="http://www.w3.org/2000/svg" xmlns:xlink="http://www.w3.org/1999/xlink" x="0px" y="0px"
	 viewBox="0 0 46.5 73.2" enable-background="new 0 0 46.5 73.2" xml:space="preserve">
<g opacity="0.2">
	<path d="M30.3,73.1c-8.4-0.6-14.9-6.5-14.5-13.1c0.1-0.8,0.2-1.6,0.5-2.4L3.2,50.3c-1-0.6-1.2-1.7-0.5-2.4c0.6-0.7,1.7-0.9,2.7-0.5
		L20,52.5c3-2.4,7.3-3.8,12-3.5c8.4,0.6,14.9,6.5,14.5,13.1C46,68.8,38.8,73.7,30.3,73.1z M35.3,62.7c2.3,0.2,4.6-1.4,4.7-3.2
		c0.1-1.8-2-3.6-4.3-3.8s-4.4,1.4-4.6,3.2C30.9,60.7,33,62.5,35.3,62.7z"/>
</g>
<g>
	<path fill="#FA5A28" d="M37,18.5C37,28.7,28.7,37,18.5,37c-1.3,0-2.5-0.1-3.7-0.4L6.6,49.2c-0.8,1.3-2.5,1.6-3.7,0.8
		c-1.1-0.7-1.5-2-1.1-3.2l4.8-14.2C2.6,29.3,0,24.2,0,18.5C0,8.3,8.3,0,18.5,0C28.7,0,37,8.3,37,18.5z M20.5,13.5
		c0-2.8-2.6-5.4-5.4-5.4c-2.8,0-5.4,2.7-5.4,5.5s2.6,5.2,5.4,5.2C17.9,18.8,20.5,16.2,20.5,13.5z"/>
</g>
</svg>
