<?xml version="1.0" encoding="utf-8"?>
<!-- Generator: Adobe Illustrator 17.1.0, SVG Export Plug-In . SVG Version: 6.00 Build 0)  -->
<!DOCTYPE svg PUBLIC "-//W3C//DTD SVG 1.1//EN" "http://www.w3.org/Graphics/SVG/1.1/DTD/svg11.dtd">
<svg version="1.1" id="Layer_1" xmlns="http://www.w3.org/2000/svg" xmlns:xlink="http://www.w3.org/1999/xlink" x="0px" y="0px"
	 viewBox="0 0 185.4 300" enable-background="new 0 0 185.4 300" xml:space="preserve">
<path opacity="0.2" fill="#34343F" d="M185.4,150c0-0.2,0-0.5,0-0.7c-0.1-9-3.5-17.8-10.2-24.5c-0.1-0.1-0.2-0.2-0.3-0.3
	c-0.1-0.1-0.2-0.2-0.3-0.4L61.3,10.9C47.1-3.4,24.1-3.7,10.2,10.2C-3.7,24.1-3.4,47.1,10.9,61.3L99.6,150l-88.7,88.7
	c-14.2,14.2-14.5,37.2-0.7,51.1c13.9,13.9,36.9,13.6,51.1-0.7l113.2-113.2c0.1-0.1,0.2-0.2,0.3-0.4c0.1-0.1,0.2-0.2,0.3-0.3
	c6.7-6.7,10.1-15.6,10.2-24.5C185.4,150.5,185.4,150.2,185.4,150z"/>
</svg>
