<?xml version="1.0" encoding="utf-8"?>
<!-- Generator: Adobe Illustrator 17.1.0, SVG Export Plug-In . SVG Version: 6.00 Build 0)  -->
<!DOCTYPE svg PUBLIC "-//W3C//DTD SVG 1.1//EN" "http://www.w3.org/Graphics/SVG/1.1/DTD/svg11.dtd">
<svg version="1.1" id="Layer_1" xmlns="http://www.w3.org/2000/svg" xmlns:xlink="http://www.w3.org/1999/xlink" x="0px" y="0px"
	 viewBox="0 0 270.7 366.4" enable-background="new 0 0 270.7 366.4" xml:space="preserve">
<g>
	<path fill="#25B8DC" d="M81.2,63.2h30.1l5.8,178.1c1.1,9,7.7,17.5,18.3,17.5c11.7,0,16.9-6.5,18.3-17.5l5.7-178.1h30.1
		c3.4,0,7.1-2.3,8.5-5.4c0.3-1.1,0.6-2.5,0.6-3.7c0-2.3-0.8-4.5-2.3-6.2C174,24,143.8,3.1,139,0.8c-2.3-1.1-4.8-1.1-7.3,0
		c-4.5,2.3-35.3,23.4-57,47.1c-2.5,2.5-3.1,6.5-1.7,9.9C74.4,60.9,77.8,63.2,81.2,63.2z"/>
	<path fill="#25B8DC" d="M255.5,105.3c-26.3-4.3-52.7-7.1-79.2-8.5l-1.1,35c19.9,1.1,39.6,3,59.4,5.7v187.3c-33,4.5-66,6.8-99.3,6.8
		c-33.3,0-66.6-2.3-99.3-6.8V137.4c19.6-2.7,39.5-4.6,59.4-5.7l-1.1-35c-26.6,1.4-53,4.2-79.1,8.5C6.5,106.4,0,114,0,123v216
		c0,9,6.5,16.4,15.2,17.8c39.5,6.5,80.1,9.6,120.1,9.6c40,0,80.7-3.1,120.1-9.6c8.7-1.4,15.2-8.7,15.2-17.8V123
		C270.7,114,264.3,106.4,255.5,105.3z"/>
</g>
</svg>
