<?xml version="1.0" encoding="utf-8"?>
<!-- Generator: Adobe Illustrator 17.1.0, SVG Export Plug-In . SVG Version: 6.00 Build 0)  -->
<!DOCTYPE svg PUBLIC "-//W3C//DTD SVG 1.1//EN" "http://www.w3.org/Graphics/SVG/1.1/DTD/svg11.dtd">
<svg version="1.1" id="Layer_1" xmlns="http://www.w3.org/2000/svg" xmlns:xlink="http://www.w3.org/1999/xlink" x="0px" y="0px"
	 viewBox="0 0 30 30" enable-background="new 0 0 30 30" xml:space="preserve">
<g>
	<path fill="#FFFFFF" d="M29.9,16.4c-0.1,0.7-0.6,1.2-1.3,1.3c-0.8,0.1-2.6,0.3-2.6,0.3c-0.8,0.2-1.3,0.8-1.3,1.6
		c0,0.3,0.1,0.7,0.3,0.9c0,0,1,1.4,1.6,2.1c0.4,0.5,0.4,1.3,0,1.8c-0.6,0.7-1.3,1.4-2,2c-0.3,0.2-0.6,0.3-0.9,0.3
		c-0.3,0-0.7-0.1-0.9-0.3l-2-1.6c-0.3-0.2-0.6-0.3-0.9-0.3c-0.8,0-1.5,0.6-1.6,1.4l-0.3,2.5c-0.1,0.7-0.7,1.2-1.3,1.3
		C16,30,15.5,30,15,30c-0.5,0-1,0-1.4-0.1c-0.7-0.1-1.2-0.6-1.3-1.3c0,0-0.3-2.5-0.3-2.5c-0.1-0.8-0.8-1.4-1.6-1.4
		c-0.4,0-0.7,0.1-1,0.3l-2,1.5c-0.2,0.2-0.6,0.3-0.9,0.3c-0.3,0-0.7-0.1-0.9-0.3c-0.7-0.6-1.4-1.3-2-2C3,24,3,23.2,3.4,22.7l1.5-2
		c0.2-0.3,0.3-0.6,0.3-1c0-0.8-0.6-1.5-1.4-1.6l-2.4-0.3c-0.7-0.1-1.2-0.7-1.3-1.3c-0.1-0.9-0.1-1.9,0-2.9c0.1-0.7,0.6-1.2,1.3-1.3
		l2.4-0.3c0.8-0.1,1.4-0.8,1.4-1.7c0-0.3-0.1-0.7-0.3-1c0,0-1-1.3-1.5-2C3,6.8,3,6,3.4,5.5c0.6-0.7,1.3-1.4,2-2C6,3,6.8,3,7.3,3.4
		l2,1.5c0.3,0.2,0.6,0.3,1,0.3c0.8,0,1.5-0.6,1.6-1.4l0.3-2.5c0.1-0.7,0.7-1.2,1.3-1.3c0.9-0.1,1.9-0.1,2.9,0
		c0.7,0.1,1.2,0.6,1.3,1.3l0.3,2.5c0.2,0.8,0.8,1.4,1.6,1.4c0.3,0,0.7-0.1,0.9-0.3c0,0,1.3-1,2-1.6C23.2,3,24,3,24.5,3.4
		c0.7,0.6,1.4,1.3,2,2C27,6,27,6.8,26.6,7.3c0,0-1.6,2-1.6,2.1c-0.2,0.3-0.3,0.6-0.3,0.9c0,0.8,0.6,1.5,1.3,1.7c0,0,1.7,0.2,2.6,0.3
		c0.7,0.1,1.2,0.7,1.3,1.3C30,14.5,30,15.5,29.9,16.4z M20.1,15c0-2.8-2.3-5.1-5.1-5.1c-2.8,0-5.1,2.3-5.1,5.1s2.3,5.1,5.1,5.1
		C17.8,20.1,20.1,17.8,20.1,15z"/>
</g>
</svg>
