<?xml version="1.0" encoding="utf-8"?>
<!-- Generator: Adobe Illustrator 17.1.0, SVG Export Plug-In . SVG Version: 6.00 Build 0)  -->
<!DOCTYPE svg PUBLIC "-//W3C//DTD SVG 1.1//EN" "http://www.w3.org/Graphics/SVG/1.1/DTD/svg11.dtd">
<svg version="1.1" id="Layer_1" xmlns="http://www.w3.org/2000/svg" xmlns:xlink="http://www.w3.org/1999/xlink" x="0px" y="0px"
	 viewBox="0 0 640 829.8" enable-background="new 0 0 640 829.8" xml:space="preserve">
<g>
	<defs>
		<rect id="SVGID_1_" y="0" width="640" height="829.8"/>
	</defs>
	<clipPath id="SVGID_2_">
		<use xlink:href="#SVGID_1_"  overflow="visible"/>
	</clipPath>
	<rect x="-52.1" y="-163.6" clip-path="url(#SVGID_2_)" fill="#25B8DC" width="763.5" height="748"/>
</g>
<g>
	<defs>
		<rect id="SVGID_3_" y="0" width="640" height="829.8"/>
	</defs>
	<clipPath id="SVGID_4_">
		<use xlink:href="#SVGID_3_"  overflow="visible"/>
	</clipPath>
	<g clip-path="url(#SVGID_4_)">
		<path fill="#25A4C6" d="M762.5,486.4c-5.5,0-10-4.5-10-10v-40c0-5.5-4.5-10-10-10h-29.9c-5.5,0-10-4.5-10-10v-73.2
			c0-5.5-4.5-10-10-10h-69.2c-5.5,0-10,4.5-10,10v73.2c0,5.5,0,14.5,0,20v40c0,5.5-4.5,10-10,10H549c-5.5,0-10,4.5-10,10v39.4
			c0,5.5-4.5,10-10,10H425.9c-5.5,0-10-4.5-10-10v-109c0-5.5-4.5-10-10-10H88.5c-5.5,0-10,4.5-10,10v109c0,5.5-4.5,10-10,10H-47.2
			c-5.5,0-10,4.5-10,10V744c0,5.5,4.5,10,10,10h882c5.5,0,10-4.5,10-10V496.4c0-5.5-4.5-10-10-10H762.5z"/>
	</g>
</g>
<g>
	<defs>
		<rect id="SVGID_5_" y="0" width="640" height="829.8"/>
	</defs>
	<clipPath id="SVGID_6_">
		<use xlink:href="#SVGID_5_"  overflow="visible"/>
	</clipPath>
	<path id="Bush_2_" clip-path="url(#SVGID_6_)" fill="#A7F0FF" d="M151.2,652.9c-0.9-39-32.8-70.3-72.1-70.3
		c-33.4,0-61.5,22.7-69.7,53.6c-36.1,4-66.6,27.7-66.6,64.9c0,19.7,6.7,44.5,28.9,53.2h246.5c0,0,3-13.6,3-29.2
		C221.2,685.7,190,653.9,151.2,652.9z"/>
</g>
<g>
	<defs>
		<rect id="SVGID_7_" y="0" width="640" height="829.8"/>
	</defs>
	<clipPath id="SVGID_8_">
		<use xlink:href="#SVGID_7_"  overflow="visible"/>
	</clipPath>
	<path id="Shadow_2_" clip-path="url(#SVGID_8_)" fill="#9BE4F3" d="M171.2,675.4c-0.7-28.8-24.3-51.9-53.2-51.9L28.4,754h189.9
		c3.6-10.6,4.7-21.6,4.7-25.4C223,699.7,199.9,676.2,171.2,675.4z"/>
</g>
<g>
	<defs>
		<rect id="SVGID_9_" y="0" width="640" height="829.8"/>
	</defs>
	<clipPath id="SVGID_10_">
		<use xlink:href="#SVGID_9_"  overflow="visible"/>
	</clipPath>
	<path clip-path="url(#SVGID_10_)" fill="#76E1F6" d="M127.4,349.8c-3.3,0-6.6,0.3-9.7,1c0.1-1.1,0.1-2.3,0.1-3.4
		c0-27.1-22-49.2-49.2-49.2c-22.8,0-42,15.6-47.6,36.7c-6.8-4.3-14.8-6.8-23.4-6.8c-22.8,0-41.5,17.4-43.6,39.6
		c-4.8-2.1-10.2-3.3-15.8-3.3c-21.9,0-39.6,17.7-39.6,39.6c0,20.2,15.1,36.9,34.7,39.3v0.3h191.9l0,0c0.7,0,1.3,0,2,0
		c25.9,0,46.9-21,46.9-46.9C174.1,370.8,153.3,349.8,127.4,349.8z"/>
</g>
<g>
	<defs>
		<rect id="SVGID_11_" y="0" width="640" height="829.8"/>
	</defs>
	<clipPath id="SVGID_12_">
		<use xlink:href="#SVGID_11_"  overflow="visible"/>
	</clipPath>
	<path clip-path="url(#SVGID_12_)" fill="#76E1F6" d="M433.8,324.7L433.8,324.7l-0.1-0.1c0-7.3-5.9-13.2-13.2-13.2
		c-5.9,0-10.9,3.9-12.6,9.3c-1.5-1-3.3-1.5-5.2-1.5c-5.2,0-9.5,4.2-9.5,9.5c0,0.4,0,0.7,0.1,1.1c-1.4-0.8-3.1-1.2-4.8-1.2
		c-5.6,0-10.2,4.6-10.2,10.2s4.6,10.2,10.2,10.2l0,0h45.4c6.7,0,12.1-5.4,12.1-12.1C445.9,330.1,440.5,324.7,433.8,324.7z"/>
</g>
<g>
	<defs>
		<rect id="SVGID_13_" y="0" width="640" height="829.8"/>
	</defs>
	<clipPath id="SVGID_14_">
		<use xlink:href="#SVGID_13_"  overflow="visible"/>
	</clipPath>
	<circle clip-path="url(#SVGID_14_)" fill="#A7F0FF" cx="547.4" cy="298.2" r="59.8"/>
</g>
<g>
	<defs>
		<rect id="SVGID_15_" y="0" width="640" height="829.8"/>
	</defs>
	<clipPath id="SVGID_16_">
		<use xlink:href="#SVGID_15_"  overflow="visible"/>
	</clipPath>
	<path clip-path="url(#SVGID_16_)" fill="#9BE4F3" d="M547.4,358.1c30.9,0,56.3-23.4,59.4-53.4c-6.5-9.2-17.3-15.3-29.5-15.3
		c-20,0-36.2,16.2-36.2,36.2c0,0.8,0,1.7,0.1,2.5c-2.3-0.5-4.7-0.7-7.1-0.7c-11.5,0-21.7,5.6-28,14.3
		C516.9,351.7,531.4,358.1,547.4,358.1z"/>
</g>
<g>
	<defs>
		<rect id="SVGID_17_" y="0" width="640" height="829.8"/>
	</defs>
	<clipPath id="SVGID_18_">
		<use xlink:href="#SVGID_17_"  overflow="visible"/>
	</clipPath>
	<path clip-path="url(#SVGID_18_)" fill="#76E1F6" d="M501.1,370.7c0,19.1,15.4,34.5,34.5,34.5c0.5,0,1,0,1.5,0l0,0h141.2v-0.3
		c14.4-1.8,25.5-14,25.5-28.9c0-16.1-13-29.1-29.1-29.1c-4.1,0-8.1,0.9-11.6,2.4c-1.5-16.3-15.3-29.1-32-29.1
		c-6.3,0-12.2,1.8-17.2,5c-4.1-15.5-18.2-27-35-27c-20,0-36.2,16.2-36.2,36.2c0,0.8,0,1.7,0.1,2.5c-2.3-0.5-4.7-0.7-7.1-0.7
		C516.6,336.2,501.1,351.7,501.1,370.7z"/>
</g>
<g>
	<defs>
		<rect id="SVGID_19_" y="0" width="640" height="829.8"/>
	</defs>
	<clipPath id="SVGID_20_">
		<use xlink:href="#SVGID_19_"  overflow="visible"/>
	</clipPath>
	<g clip-path="url(#SVGID_20_)">
		<g>
			<path fill="#B5F7FF" d="M399.1,681.2H116.9V428c0-23.4,19-42.4,42.4-42.4h197.4c23.4,0,42.4,19,42.4,42.4
				C399.1,428,399.1,681.2,399.1,681.2z"/>
			<path fill="#9BE4F3" d="M399.1,681.2H258.2V385.6h98.5c23.4,0,42.4,19,42.4,42.4V681.2z"/>
			<g>
				<path fill="#FFFFFF" d="M241.9,420.2c0,5.5,4.5,10,10,10h12.2c5.5,0,10-4.5,10-10v-6.8c0-5.5-4.5-10-10-10h-12.2
					c-5.5,0-10,4.5-10,10V420.2z"/>
			</g>
			<g>
				<path fill="#EDFFFF" d="M258,430.2h6.1c5.5,0,10-4.5,10-10v-6.8c0-5.5-4.5-10-10-10H258V430.2z"/>
			</g>
			<path fill="#25A4C6" d="M134.5,606.7H381V475.2c0-15-12.2-27.2-27.2-27.2H161.7c-15,0-27.2,12.2-27.2,27.2V606.7z"/>
			<path fill="#2594B8" d="M258,606.7h123.1V475.2c0-15-12.2-27.2-27.2-27.2H258V606.7z"/>
			<circle fill="#FFFFFF" cx="162.5" cy="486.4" r="13.1"/>
			<circle fill="#FFFFFF" cx="179.1" cy="470.1" r="3.5"/>
			<path fill="#FFFFFF" d="M174,666.9h-57.3v-36.7H174c3.4,0,6.1,2.7,6.1,6.1v24.4C180.1,664.2,177.4,666.9,174,666.9z"/>
			<path fill="#EDFFFF" d="M174,666.9h-36.1l29.1-36.7h7c3.4,0,6.1,2.7,6.1,6.1v24.4C180.1,664.2,177.4,666.9,174,666.9z"/>
			<rect x="116.7" y="630.2" fill="#25B8DC" width="17.8" height="36.7"/>
			<path fill="#FFFFFF" d="M341.6,666.9h57.3v-36.7h-57.3c-3.4,0-6.1,2.7-6.1,6.1v24.4C335.4,664.2,338.2,666.9,341.6,666.9z"/>
			<rect x="381.3" y="630.2" fill="#25B8DC" width="17.8" height="36.7"/>
			<path fill="#76DCF6" d="M382,720.7H133.6c-9.3,0-16.9-7.6-16.9-16.9v-22.6h282.2v22.5C398.9,713,391.3,720.7,382,720.7z"/>
			<path fill="#76CEE4" d="M382.2,720.7H258.4v-39.5h140.8v22.5C399.1,713,391.5,720.7,382.2,720.7z"/>
			<g>
				<path opacity="0.2" enable-background="new    " d="M258.6,645.4l-12.1,7.5l12.1,7.5l12.1-7.5L258.6,645.4z M252.4,652.9
					l6.2-3.9l6.2,3.9l-6.2,3.9L252.4,652.9z"/>
				<g opacity="0.2">
					<polygon points="252.4,645.9 258.6,642 264.9,645.9 263.3,646.9 266.2,648.7 270.7,645.9 258.6,638.4 246.5,645.9 251,648.7 
						253.9,646.9 					"/>
				</g>
				<path fill="#FFFFFF" d="M257.7,644.4l-12.1,7.5l12.1,7.5l12.1-7.5L257.7,644.4z M251.4,651.9l6.2-3.9l6.2,3.9l-6.2,3.9
					L251.4,651.9z"/>
				<g>
					<polygon fill="#FFFFFF" points="251.4,645 257.7,641 263.9,645 262.4,645.9 265.3,647.7 269.8,645 257.7,637.4 245.6,645 
						250.1,647.7 253,645.9 					"/>
				</g>
			</g>
			<path fill="#2D4049" d="M173.5,754h-10.2c-8.2,0-14.9-6.7-14.9-14.9v-18.6h39.9v18.6C188.4,747.4,181.7,754,173.5,754z"/>
			<path fill="#2D4049" d="M352.3,754h-10.2c-8.2,0-14.9-6.7-14.9-14.9v-18.6h39.9v18.6C367.1,747.4,360.5,754,352.3,754z"/>
			<rect x="327.2" y="720.7" fill="#1F2D32" width="39.9" height="8.3"/>
			<rect x="148.4" y="720.7" fill="#1F2D32" width="39.9" height="8.3"/>
			<polygon fill="#EDFFFF" points="345.8,666.9 381,666.9 381,630.2 374.9,630.2 			"/>
		</g>
	</g>
</g>
<g>
	<defs>
		<rect id="SVGID_21_" y="0" width="640" height="829.8"/>
	</defs>
	<clipPath id="SVGID_22_">
		<use xlink:href="#SVGID_21_"  overflow="visible"/>
	</clipPath>
	<g opacity="0.1" clip-path="url(#SVGID_22_)">
		<path d="M393.1,489.2c0,8,2.1,15.6,5.7,22.1v-44.2C395.2,473.7,393.1,481.2,393.1,489.2z"/>
	</g>
</g>
<g>
	<defs>
		<rect id="SVGID_23_" y="0" width="640" height="829.8"/>
	</defs>
	<clipPath id="SVGID_24_">
		<use xlink:href="#SVGID_23_"  overflow="visible"/>
	</clipPath>
	<rect x="449.8" y="466.6" clip-path="url(#SVGID_24_)" fill="#2D4049" width="6.8" height="287.5"/>
</g>
<g>
	<defs>
		<rect id="SVGID_25_" y="0" width="640" height="829.8"/>
	</defs>
	<clipPath id="SVGID_26_">
		<use xlink:href="#SVGID_25_"  overflow="visible"/>
	</clipPath>
	<rect x="453.2" y="466.6" clip-path="url(#SVGID_26_)" fill="#1F2D32" width="3.4" height="287.5"/>
</g>
<g>
	<defs>
		<rect id="SVGID_27_" y="0" width="640" height="829.8"/>
	</defs>
	<clipPath id="SVGID_28_">
		<use xlink:href="#SVGID_27_"  overflow="visible"/>
	</clipPath>
	<g clip-path="url(#SVGID_28_)">
		<path fill="#25A4C6" d="M452.4,539.7c-27.9,0-50.6-22.7-50.6-50.6s22.7-50.6,50.6-50.6s50.6,22.7,50.6,50.6
			C503,517.1,480.3,539.7,452.4,539.7z"/>
		<path fill="#FFFFFF" d="M452.4,443.7c25.2,0,45.6,20.4,45.6,45.6c0,25.2-20.4,45.6-45.6,45.6s-45.6-20.4-45.6-45.6
			C406.8,464.1,427.2,443.7,452.4,443.7 M452.4,433.7c-30.6,0-55.6,24.9-55.6,55.6s24.9,55.6,55.6,55.6S508,520,508,489.3
			S483,433.7,452.4,433.7L452.4,433.7z"/>
	</g>
</g>
<g>
	<defs>
		<rect id="SVGID_29_" y="0" width="640" height="829.8"/>
	</defs>
	<clipPath id="SVGID_30_">
		<use xlink:href="#SVGID_29_"  overflow="visible"/>
	</clipPath>
	<g opacity="0.1" clip-path="url(#SVGID_30_)">
		<path d="M462.1,488.3c-3,0-5.4,2.4-5.4,5.4v1.2h2.6v-1.2c0-1.5,1.3-2.8,2.8-2.8s2.8,1.3,2.8,2.8v1.2h2.6v-1.2
			C467.5,490.7,465.1,488.3,462.1,488.3z"/>
	</g>
</g>
<g>
	<defs>
		<rect id="SVGID_31_" y="0" width="640" height="829.8"/>
	</defs>
	<clipPath id="SVGID_32_">
		<use xlink:href="#SVGID_31_"  overflow="visible"/>
	</clipPath>
	<g clip-path="url(#SVGID_32_)">
		<path fill="#FFFFFF" d="M460.9,486.8c-3,0-5.4,2.4-5.4,5.4v1.2h2.6v-1.2c0-1.5,1.3-2.8,2.8-2.8s2.8,1.3,2.8,2.8v1.2h2.6v-1.2
			C466.3,489.3,463.9,486.8,460.9,486.8z"/>
	</g>
</g>
<g>
	<defs>
		<rect id="SVGID_33_" y="0" width="640" height="829.8"/>
	</defs>
	<clipPath id="SVGID_34_">
		<use xlink:href="#SVGID_33_"  overflow="visible"/>
	</clipPath>
	<g id="Shadow_1_" clip-path="url(#SVGID_34_)">
		<path fill="#2594B8" d="M452.4,534.7c25.2,0,45.6-20.4,45.6-45.6c0-25.2-20.4-45.6-45.6-45.6V534.7z"/>
	</g>
</g>
<g>
	<defs>
		<rect id="SVGID_35_" y="0" width="640" height="829.8"/>
	</defs>
	<clipPath id="SVGID_36_">
		<use xlink:href="#SVGID_35_"  overflow="visible"/>
	</clipPath>
	<path clip-path="url(#SVGID_36_)" fill="#2588AA" d="M469.6,464.2h-30.2c-2.7,0-4.9,2.2-4.9,4.9v7v18.8v11.8c0,2,1.3,3.8,3.1,4.5
		v4.7c0,1.3,1.1,2.4,2.4,2.4h2.2c1.3,0,2.4-1.1,2.4-2.4v-4.4h20.1v4.4c0,1.3,1.1,2.4,2.4,2.4h2.2c1.3,0,2.4-1.1,2.4-2.4v-4.7
		c1.8-0.7,3-2.5,3-4.5v-11.9V476v-7C474.4,466.3,472.2,464.2,469.6,464.2z M437.5,469.1c0-1,0.8-1.8,1.8-1.8h30.2
		c1,0,1.8,0.8,1.8,1.8v2.4c-0.6-0.2-1.2-0.4-1.8-0.4h-30.2c-0.7,0-1.3,0.1-1.8,0.4V469.1z M440.8,507.2c-1.8,0-3.3-1.5-3.3-3.3
		s1.5-3.3,3.3-3.3c1.8,0,3.3,1.5,3.3,3.3C444,505.7,442.5,507.2,440.8,507.2z M439.3,496.7c-1,0-1.8-0.8-1.8-1.8V476
		c0-1,0.8-1.8,1.8-1.8h30.2c1,0,1.8,0.8,1.8,1.8v18.8c0,1-0.8,1.8-1.8,1.8h-30.2V496.7z M468.2,507.2c-1.8,0-3.3-1.5-3.3-3.3
		s1.5-3.3,3.3-3.3c1.8,0,3.3,1.5,3.3,3.3C471.4,505.7,470,507.2,468.2,507.2z"/>
</g>
<g>
	<defs>
		<rect id="SVGID_37_" y="0" width="640" height="829.8"/>
	</defs>
	<clipPath id="SVGID_38_">
		<use xlink:href="#SVGID_37_"  overflow="visible"/>
	</clipPath>
	<path clip-path="url(#SVGID_38_)" fill="#FFFFFF" d="M468.4,462.7h-30.2c-2.7,0-4.9,2.2-4.9,4.9v7v18.8v11.8c0,2,1.3,3.8,3.1,4.5
		v4.7c0,1.3,1.1,2.4,2.4,2.4h2.2c1.3,0,2.4-1.1,2.4-2.4V510h20.1v4.4c0,1.3,1.1,2.4,2.4,2.4h2.2c1.3,0,2.4-1.1,2.4-2.4v-4.7
		c1.8-0.7,3-2.5,3-4.5v-11.9v-18.7v-7C473.2,464.8,471,462.7,468.4,462.7z M436.3,467.6c0-1,0.8-1.8,1.8-1.8h30.2
		c1,0,1.8,0.8,1.8,1.8v2.4c-0.6-0.2-1.2-0.4-1.8-0.4h-30.2c-0.7,0-1.3,0.1-1.8,0.4V467.6z M439.5,505.7c-1.8,0-3.3-1.5-3.3-3.3
		s1.5-3.3,3.3-3.3s3.3,1.5,3.3,3.3S441.3,505.7,439.5,505.7z M438.1,495.2c-1,0-1.8-0.8-1.8-1.8v-18.8c0-1,0.8-1.8,1.8-1.8h30.2
		c1,0,1.8,0.8,1.8,1.8v18.8c0,1-0.8,1.8-1.8,1.8H438.1z M467,505.7c-1.8,0-3.3-1.5-3.3-3.3s1.5-3.3,3.3-3.3s3.3,1.5,3.3,3.3
		C470.2,504.2,468.8,505.7,467,505.7z"/>
</g>
<g>
	<defs>
		<rect id="SVGID_39_" y="0" width="640" height="829.8"/>
	</defs>
	<clipPath id="SVGID_40_">
		<use xlink:href="#SVGID_39_"  overflow="visible"/>
	</clipPath>
	<path clip-path="url(#SVGID_40_)" fill="#1C232E" d="M640.9,685.5c0,0-280,64.2-640.9,64.2v107.5h640.9V685.5z"/>
</g>
<g>
	<defs>
		<rect id="SVGID_41_" y="0" width="640" height="829.8"/>
	</defs>
	<clipPath id="SVGID_42_">
		<use xlink:href="#SVGID_41_"  overflow="visible"/>
	</clipPath>
	<path clip-path="url(#SVGID_42_)" fill="#151D25" d="M640.9,744.5c0,0-411.9,32.4-640.9,78.1v34.6h640.9V744.5z"/>
</g>
<rect y="393.1" fill="none" width="640" height="829.8"/>
<rect y="393.1" fill="none" width="640" height="829.8"/>
<rect y="393.1" fill="none" width="640" height="829.8"/>
<rect y="393.1" fill="none" width="640" height="829.8"/>
<rect y="393.1" fill="none" width="640" height="829.8"/>
<rect y="393.1" fill="none" width="640" height="829.8"/>
<rect y="393.1" fill="none" width="640" height="829.8"/>
<rect y="393.1" fill="none" width="640" height="829.8"/>
<rect y="393.1" fill="none" width="640" height="829.8"/>
<rect y="393.1" fill="none" width="640" height="829.8"/>
<rect y="393.1" fill="none" width="640" height="829.8"/>
<rect y="393.1" fill="none" width="640" height="829.8"/>
<rect y="393.1" fill="none" width="640" height="829.8"/>
<rect y="393.1" fill="none" width="640" height="829.8"/>
<rect y="393.1" fill="none" width="640" height="829.8"/>
<rect y="393.1" fill="none" width="640" height="829.8"/>
<rect y="393.1" fill="none" width="640" height="829.8"/>
<rect y="393.1" fill="none" width="640" height="829.8"/>
<rect y="393.1" fill="none" width="640" height="829.8"/>
<rect y="393.1" fill="none" width="640" height="829.8"/>
<rect y="393.1" fill="none" width="640" height="829.8"/>
</svg>
