<?xml version="1.0" encoding="utf-8"?>
<!-- Generator: Adobe Illustrator 17.1.0, SVG Export Plug-In . SVG Version: 6.00 Build 0)  -->
<!DOCTYPE svg PUBLIC "-//W3C//DTD SVG 1.1//EN" "http://www.w3.org/Graphics/SVG/1.1/DTD/svg11.dtd">
<svg version="1.1" id="Layer_1" xmlns="http://www.w3.org/2000/svg" xmlns:xlink="http://www.w3.org/1999/xlink" x="0px" y="0px"
	 viewBox="0 0 640 568" enable-background="new 0 0 640 568" xml:space="preserve">
<g id="Layer_7">
</g>
<g id="Buildings">
</g>
<g id="Bush">
</g>
<g id="Clouds">
</g>
<g id="Bus">
</g>
<g id="Pole">
</g>
<rect y="109.1" fill="none" width="640" height="829.8"/>
<rect fill="#00A8FF" width="640.9" height="558"/>
<rect y="109.1" fill="none" width="640" height="829.8"/>
<rect y="109.1" fill="none" width="640" height="829.8"/>
<rect y="109.1" fill="none" width="640" height="829.8"/>
<rect y="109.1" fill="none" width="640" height="829.8"/>
<rect y="109.1" fill="none" width="640" height="829.8"/>
<rect y="109.1" fill="none" width="640" height="829.8"/>
<rect y="109.1" fill="none" width="640" height="829.8"/>
<rect y="109.1" fill="none" width="640" height="829.8"/>
<rect y="109.1" fill="none" width="640" height="829.8"/>
<rect y="109.1" fill="none" width="640" height="829.8"/>
<rect y="109.1" fill="none" width="640" height="829.8"/>
<rect y="109.1" fill="none" width="640" height="829.8"/>
<rect y="109.1" fill="none" width="640" height="829.8"/>
<rect y="109.1" fill="none" width="640" height="829.8"/>
<rect y="109.1" fill="none" width="640" height="829.8"/>
<rect y="109.1" fill="none" width="640" height="829.8"/>
<rect y="109.1" fill="none" width="640" height="829.8"/>
<rect y="109.1" fill="none" width="640" height="829.8"/>
<rect y="109.1" fill="none" width="640" height="829.8"/>
<path fill="#1C232E" d="M0,568h640.9V460.5C280,460.5,0,396.3,0,396.3L0,568z"/>
<rect y="109.1" fill="none" width="640" height="829.8"/>
<path fill="#151D25" d="M0,568h640.9v-34.6C411.9,487.7,0,455.3,0,455.3L0,568z"/>
</svg>
