<?xml version="1.0" encoding="utf-8"?>
<!-- Generator: Adobe Illustrator 17.1.0, SVG Export Plug-In . SVG Version: 6.00 Build 0)  -->
<!DOCTYPE svg PUBLIC "-//W3C//DTD SVG 1.1//EN" "http://www.w3.org/Graphics/SVG/1.1/DTD/svg11.dtd">
<svg version="1.1" id="Layer_1" xmlns="http://www.w3.org/2000/svg" xmlns:xlink="http://www.w3.org/1999/xlink" x="0px" y="0px"
	 viewBox="0 0 28 30" enable-background="new 0 0 28 30" xml:space="preserve">
<g>
	<path fill="#FFFFFF" d="M28,4.7v23.2c0,0.5-0.4,0.9-0.9,1C26.8,28.9,20,30,14,30S1.2,28.9,0.9,28.9c-0.5-0.1-0.9-0.5-0.9-1V4.7
		c0-0.5,0.4-0.9,0.9-1c2.6-0.3,5.3-0.5,8-0.6C8.8,4.4,8.7,5.7,8.4,6.9C6.9,7,5.4,7.1,4,7.2v18.3c2.5,0.3,6.5,0.7,10,0.7
		s7.5-0.4,10-0.7V7.2c-1.4-0.1-2.9-0.2-4.4-0.3c-0.3-1.2-0.4-2.5-0.5-3.8c2.8,0.1,5.4,0.3,8,0.6C27.6,3.8,28,4.3,28,4.7z M13,23
		c-0.5,0-1-0.2-1.4-0.6l-4.3-4.3c-0.8-0.8-0.8-2,0-2.8s2.1-0.8,2.8,0l2.8,2.8l5.9-6.7c0.7-0.8,2-0.9,2.8-0.2c0.8,0.7,0.9,2,0.2,2.8
		l-7.3,8.2C14.1,22.7,13.6,22.9,13,23L13,23z M11.4,1c0-0.6,0.4-1,1-1h3.2c0.6,0,1,0.4,1,1c0,0.1,0.3,4.9,1.3,7.7
		c0.1,0.3,0.1,0.6-0.1,0.9c-0.2,0.3-0.5,0.4-0.8,0.4h-5.8c-0.3,0-0.6-0.2-0.8-0.4c-0.2-0.3-0.2-0.6-0.1-0.9
		C11.1,5.9,11.4,1.1,11.4,1z"/>
</g>
</svg>
